<svg width="251" height="198" viewBox="0 0 251 198" fill="none" xmlns="http://www.w3.org/2000/svg">
<path d="M247.73 0.0869714C249.562 21.1706 250.489 35.3181 250.505 42.5296C250.508 44.523 250.479 46.0378 250.387 47.2312C248.618 52.9001 241.889 67.2902 240.902 70.8886C240.008 74.146 237.039 82.0738 235.361 88.5247C233.893 94.1591 231.993 97.7542 229.661 99.3099L214.105 112.246C206.034 123.949 184.515 110.333 182.054 108.766L185.172 88.2115C191.302 91.7738 198.146 92.2525 205.705 89.6509C212.1 87.4476 217.511 75.746 219.798 72.1952C220.631 68.8361 222.318 64.7443 224.862 59.9165C227.875 54.1984 233.552 44.664 233.561 42.4263C233.895 37.1263 233.107 22.3116 234.446 13.5624C235.856 4.34598 240.284 -0.145815 247.73 0.0869714Z" fill="#E89258"/>
<path d="M191.693 150.956L191.564 197.941H145.425L154.4 137.158C154.298 125.248 159.98 110.48 171.449 92.8592C176.805 84.628 193.902 55.769 195.277 54.3821C200.741 48.8739 207.851 54.5903 206.315 64.6428C205.626 69.1444 199.695 81.2969 188.52 101.102L231.626 101.99C216.954 120.962 208.272 132.333 205.584 136.1C203.308 139.285 198.679 144.238 191.693 150.956Z" fill="#F69D5E"/>
<path d="M250.125 6.47052C246.234 24.2738 244.618 36.7656 245.277 43.9476C245.459 45.9328 245.238 48.9607 245.095 49.4967C243.838 55.3017 239.761 70.8426 239.098 74.5131C238.498 77.8377 236.248 85.9984 235.149 92.5722C234.19 98.3148 232.469 101.998 229.985 103.62L215.643 117.89C208.646 130.266 186 118.62 183.41 117.279L186.151 91.418C189.013 92.2394 194.092 91.0164 201.389 87.7508C207.562 84.9885 213.02 79.4574 214.982 75.7181C216.759 73.2099 218.698 69.4394 220.802 64.4049C223.293 58.441 226.925 51.4476 227.908 46.2099C229.092 40.7738 230.952 27.0689 233.457 21.2804C238.244 10.223 243.8 5.28691 250.125 6.47052Z" fill="#F69D5E"/>
<path d="M65.459 88.2116L68.5771 108.766C66.118 110.333 44.5984 123.949 36.5279 112.246L20.9721 99.3099C18.6393 97.7542 16.7393 94.1591 15.2721 88.5247C13.5934 82.0739 10.6246 74.146 9.73115 70.8886C8.74262 67.2902 2.01475 52.9001 0.2459 47.2312C0.154096 46.0378 0.124588 44.523 0.127867 42.5296C0.14426 35.3181 1.06885 21.1706 2.90328 0.0869714C10.3492 -0.145815 14.777 4.34598 16.1869 13.5624C17.5262 22.3116 16.7361 37.1263 17.0705 42.4263C17.0803 44.664 22.7574 54.1984 25.7705 59.9165C28.3131 64.7443 30.0016 68.8362 30.8344 72.1952C33.1213 75.746 38.5311 87.4476 44.9279 89.6509C52.4869 92.2525 59.3295 91.7738 65.459 88.2116Z" fill="#E89258"/>
<path d="M96.2328 137.158L105.207 197.941H59.0689L58.9394 150.956C51.9541 144.238 47.3246 139.285 45.0492 136.1C42.3607 132.333 33.6787 120.962 19.0049 101.99L62.1131 101.102C50.9377 81.2969 45.0066 69.1444 44.3181 64.6428C42.7804 54.5903 49.8918 48.8739 55.3558 54.3821C56.7312 55.769 73.8279 84.628 79.1836 92.8592C90.6525 110.48 96.3345 125.248 96.2328 137.158Z" fill="#F69D5E"/>
<path d="M64.4819 91.418L67.2229 117.279C64.6328 118.62 41.9852 130.266 34.9901 117.89L20.6475 103.62C18.1639 101.998 16.4426 98.3148 15.4836 92.5722C14.3852 85.9984 12.1344 77.8377 11.5344 74.5131C10.8721 70.8426 6.79506 55.3017 5.53769 49.4967C5.39506 48.9607 5.17375 45.9328 5.35572 43.9476C6.01474 36.7656 4.39834 24.2738 0.508179 6.47052C6.83277 5.28691 12.3885 10.223 17.1738 21.2804C19.6803 27.0689 21.541 40.7738 22.7246 46.2099C23.7082 51.4476 27.3393 58.441 29.8311 64.4049C31.9344 69.4394 33.8737 73.2099 35.6492 75.7181C37.6131 79.4574 43.0688 84.9885 49.2442 87.7508C56.5393 91.0164 61.6196 92.2394 64.4819 91.418Z" fill="#F69D5E"/>
</svg>
