<svg width="154" height="139" viewBox="0 0 154 139" fill="none" xmlns="http://www.w3.org/2000/svg">
<g filter="url(#filter0_d_27_47)">
<path d="M150.023 41.7099C150.13 52.0837 146.795 61.6279 141.175 69.0443C135.134 79.0738 113.892 101.138 77.4459 135.236C40.8475 102.02 18.818 80.0378 11.3557 69.2886C6.54425 62.205 3.65901 53.4591 3.56393 43.9656C3.31639 20.046 20.8672 0.444308 42.7475 0.185292C57.6197 0.00660329 70.6656 8.79185 77.5705 21.9476C84.0557 9.01153 96.5607 0.180374 111.02 0.00660329C132.328 -0.254053 149.79 18.4115 150.023 41.7099Z" fill="url(#paint0_linear_27_47)"/>
<path d="M150.023 41.7099C150.13 52.0837 146.795 61.6279 141.175 69.0443C135.134 79.0738 113.892 101.138 77.4459 135.236L77.5705 21.9476C84.0557 9.01153 96.5607 0.180374 111.02 0.00660329C132.328 -0.254053 149.79 18.4115 150.023 41.7099Z" fill="url(#paint1_linear_27_47)"/>
</g>
<defs>
<filter id="filter0_d_27_47" x="0.56134" y="-2.99609" width="152.464" height="141.232" filterUnits="userSpaceOnUse" color-interpolation-filters="sRGB">
<feFlood flood-opacity="0" result="BackgroundImageFix"/>
<feColorMatrix in="SourceAlpha" type="matrix" values="0 0 0 0 0 0 0 0 0 0 0 0 0 0 0 0 0 0 127 0" result="hardAlpha"/>
<feOffset/>
<feGaussianBlur stdDeviation="1.5"/>
<feComposite in2="hardAlpha" operator="out"/>
<feColorMatrix type="matrix" values="0 0 0 0 0 0 0 0 0 0 0 0 0 0 0 0 0 0 0.11 0"/>
<feBlend mode="normal" in2="BackgroundImageFix" result="effect1_dropShadow_27_47"/>
<feBlend mode="normal" in="SourceGraphic" in2="effect1_dropShadow_27_47" result="shape"/>
</filter>
<linearGradient id="paint0_linear_27_47" x1="4" y1="36" x2="150" y2="38.5" gradientUnits="userSpaceOnUse">
<stop stop-color="#E20707"/>
<stop offset="1" stop-color="#BF0000"/>
</linearGradient>
<linearGradient id="paint1_linear_27_47" x1="4" y1="36" x2="150" y2="38.5" gradientUnits="userSpaceOnUse">
<stop stop-color="#E20707"/>
<stop offset="1" stop-color="#BF0000"/>
</linearGradient>
</defs>
</svg>
