<svg width="1400" height="769" viewBox="0 0 1400 769" fill="none" xmlns="http://www.w3.org/2000/svg">
<g clip-path="url(#clip0_104_341)">
<path d="M1120.95 564.826C1117.65 542.584 1116.78 520.049 1118.35 497.618L1120.95 460.494C1106.61 489.019 1109.85 526.561 1120.95 564.826V564.826Z" fill="#CACACA"/>
<path d="M1132.14 571.036C1130.55 557.764 1130.13 544.377 1130.88 531.031L1132.14 508.934C1125.24 525.913 1126.8 548.26 1132.14 571.036Z" fill="#CACACA"/>
<g filter="url(#filter0_d_104_341)">
<path d="M1181.84 598.364V610.785C1181.84 611.772 1181.44 612.716 1180.74 613.414C1180.05 614.112 1179.1 614.506 1178.11 614.511H1171.9C1171.74 614.51 1171.58 614.542 1171.43 614.604C1171.27 614.666 1171.14 614.758 1171.02 614.873C1170.91 614.989 1170.81 615.126 1170.75 615.277C1170.69 615.428 1170.66 615.59 1170.66 615.753V717.601C1170.65 718.587 1170.26 719.532 1169.56 720.23C1168.86 720.928 1167.92 721.322 1166.93 721.327H1091.14C1090.15 721.326 1089.2 720.933 1088.5 720.235C1087.8 719.536 1087.41 718.589 1087.41 717.601V615.753C1087.41 615.424 1087.28 615.109 1087.05 614.876C1086.81 614.643 1086.5 614.512 1086.17 614.511H1078.71C1077.73 614.51 1076.78 614.117 1076.08 613.419C1075.38 612.72 1074.99 611.773 1074.99 610.785V598.364C1074.99 597.875 1075.08 597.39 1075.27 596.938C1075.46 596.485 1075.73 596.074 1076.08 595.728C1076.42 595.382 1076.83 595.108 1077.29 594.921C1077.74 594.733 1078.22 594.638 1078.71 594.638H1178.11C1179.1 594.641 1180.05 595.035 1180.75 595.733C1181.45 596.431 1181.84 597.377 1181.84 598.364Z" fill="#F40009"/>
</g>
<path d="M1170.77 617.119H1087.52V620.845H1170.77V617.119Z" fill="#E6E6E6"/>
<path d="M1170.85 671.789C1143 683.313 1114.84 683.44 1086.36 671.789V645.539C1113.77 636.336 1143.44 636.336 1170.85 645.539V671.789Z" fill="#E6E6E6"/>
<path d="M1097.7 659.946L1103.72 657.412L1104.27 659.106L1099.87 660.814L1104.27 662.522L1103.72 664.216L1097.7 661.682V659.946ZM1108.26 663.222C1108.36 663.231 1108.48 663.241 1108.61 663.25C1108.75 663.25 1108.91 663.25 1109.1 663.25C1110.19 663.25 1111 662.975 1111.52 662.424C1112.06 661.873 1112.32 661.113 1112.32 660.142C1112.32 659.125 1112.07 658.355 1111.57 657.832C1111.06 657.309 1110.26 657.048 1109.17 657.048C1109.02 657.048 1108.87 657.053 1108.71 657.062C1108.55 657.062 1108.4 657.071 1108.26 657.09V663.222ZM1114.58 660.142C1114.58 660.982 1114.44 661.715 1114.18 662.34C1113.92 662.965 1113.55 663.483 1113.06 663.894C1112.59 664.305 1112 664.613 1111.31 664.818C1110.62 665.023 1109.85 665.126 1108.99 665.126C1108.6 665.126 1108.14 665.107 1107.62 665.07C1107.09 665.042 1106.58 664.977 1106.08 664.874V655.424C1106.58 655.331 1107.1 655.27 1107.65 655.242C1108.2 655.205 1108.67 655.186 1109.06 655.186C1109.89 655.186 1110.64 655.279 1111.31 655.466C1111.99 655.653 1112.58 655.947 1113.06 656.348C1113.55 656.749 1113.92 657.263 1114.18 657.888C1114.44 658.513 1114.58 659.265 1114.58 660.142ZM1119.24 655.186C1120.7 655.186 1121.81 655.447 1122.59 655.97C1123.36 656.483 1123.75 657.286 1123.75 658.378C1123.75 659.059 1123.59 659.615 1123.27 660.044C1122.97 660.464 1122.52 660.795 1121.93 661.038C1122.13 661.281 1122.33 661.561 1122.55 661.878C1122.76 662.186 1122.97 662.513 1123.18 662.858C1123.39 663.194 1123.6 663.549 1123.79 663.922C1123.99 664.286 1124.17 664.645 1124.34 665H1121.89C1121.71 664.683 1121.53 664.361 1121.34 664.034C1121.16 663.707 1120.98 663.39 1120.78 663.082C1120.59 662.774 1120.41 662.485 1120.22 662.214C1120.03 661.934 1119.85 661.682 1119.66 661.458H1118.58V665H1116.4V655.438C1116.88 655.345 1117.37 655.279 1117.87 655.242C1118.38 655.205 1118.84 655.186 1119.24 655.186ZM1119.37 657.048C1119.21 657.048 1119.06 657.053 1118.93 657.062C1118.81 657.071 1118.7 657.081 1118.58 657.09V659.722H1119.2C1120.02 659.722 1120.61 659.619 1120.96 659.414C1121.32 659.209 1121.5 658.859 1121.5 658.364C1121.5 657.888 1121.31 657.552 1120.95 657.356C1120.59 657.151 1120.07 657.048 1119.37 657.048ZM1125.74 655.298H1127.92V665H1125.74V655.298ZM1136.68 665C1136.05 663.889 1135.37 662.793 1134.65 661.71C1133.92 660.627 1133.14 659.605 1132.32 658.644V665H1130.17V655.298H1131.94C1132.25 655.606 1132.59 655.984 1132.97 656.432C1133.34 656.88 1133.72 657.361 1134.1 657.874C1134.49 658.378 1134.88 658.905 1135.26 659.456C1135.65 659.997 1136 660.52 1136.34 661.024V655.298H1138.51V665H1136.68ZM1146.47 665C1146.28 664.683 1146.05 664.342 1145.77 663.978C1145.51 663.605 1145.22 663.236 1144.91 662.872C1144.6 662.499 1144.28 662.144 1143.94 661.808C1143.6 661.463 1143.27 661.159 1142.93 660.898V665H1140.75V655.298H1142.93V658.966C1143.5 658.369 1144.07 657.748 1144.64 657.104C1145.22 656.451 1145.76 655.849 1146.25 655.298H1148.84C1148.18 656.082 1147.51 656.838 1146.84 657.566C1146.18 658.294 1145.48 659.027 1144.74 659.764C1145.51 660.408 1146.26 661.173 1146.98 662.06C1147.71 662.947 1148.4 663.927 1149.06 665H1146.47ZM1154.35 667.59H1152.21L1156.92 654.038H1159.03L1154.35 667.59ZM1165.93 661.682L1159.91 664.216L1159.36 662.522L1163.76 660.814L1159.36 659.106L1159.91 657.412L1165.93 659.946V661.682Z" fill="#F40009"/>
<path d="M946.088 447.464C942.216 424.178 938.222 400.446 927.396 379.469C920.28 365.729 908.986 352.636 893.76 349.919C890.761 349.652 887.813 348.97 885.002 347.892C880.54 345.744 820.589 311.533 811.06 305.575C802.878 300.459 789.963 290.988 783.451 290.988C776.899 290.844 751.778 296.688 653.727 289.027C653.727 289.027 626.791 299.64 605.949 312.509C605.633 312.301 504.181 366.76 500.369 366.617C493.151 366.313 486.442 370.933 482.304 376.75C478.167 382.568 476.226 389.77 474.194 396.733C496.353 446.062 516.627 495.454 538.788 544.782C539.826 546.64 540.377 548.73 540.391 550.858C539.946 553.066 539.003 555.144 537.634 556.934C526.767 574.384 527.112 596.333 528.299 616.843C529.488 637.353 530.957 659.018 521.787 677.401C519.293 682.449 516.05 687.068 513.678 692.116C508.123 703.547 506.115 740.108 509.36 752.39L915.866 764.031C907.126 740.014 946.088 447.464 946.088 447.464Z" fill="#1E1C1A"/>
<path d="M439.056 546.969C438.245 552.835 438.163 558.778 438.813 564.663L444.639 648.305C445.186 656.188 445.725 664.052 446.465 671.916C447.863 687.177 449.951 702.316 452.543 717.434C452.601 719.581 453.509 721.616 455.068 723.094C456.626 724.572 458.707 725.372 460.855 725.317C486.502 730.742 513 730.525 539.175 729.048C579.116 726.819 681.302 722.603 687.545 714.496C693.788 706.389 690.149 693.276 682.009 686.721C673.869 680.166 539.021 664.184 539.021 664.184C540.338 653.747 544.313 643.917 548.083 634.007C554.856 616.431 561.182 598.277 561.303 579.449C561.425 560.62 554.329 540.824 538.899 530.037C526.207 521.182 509.865 519.539 494.399 519.904C483.146 520.227 463.702 517.532 453.424 521.931C445.29 525.511 440.576 539.008 439.056 546.969Z" fill="#C8967B"/>
<path d="M473.022 398.234C471.047 400.301 469.516 402.75 468.522 405.43C452.134 442.35 442.454 481.893 439.935 522.206C439.98 524.172 439.526 526.117 438.618 527.861C437.722 529.021 436.724 530.1 435.637 531.083C434.69 532.206 433.972 533.505 433.527 534.905C433.081 536.305 432.916 537.779 433.04 539.243C433.164 540.707 433.576 542.133 434.251 543.437C434.926 544.742 435.852 545.902 436.976 546.849C437.16 547.004 437.349 547.154 437.543 547.297C440.888 541.004 448.896 538.947 456.014 538.4C490.094 535.705 523.385 551.554 557.568 550.359C555.156 542.029 551.687 534.024 549.72 525.593C541.022 488.16 562.717 447.405 549.416 411.349C546.759 404.134 542.32 397.041 535.326 393.879C532.43 392.712 529.399 391.91 526.305 391.492C517.667 389.932 500.473 383.264 492.122 385.94C489.04 386.933 487.824 389.83 485.269 391.581C481.388 394.06 476.239 394.971 473.022 398.234Z" fill="#1E1C1A"/>
<path d="M946.331 521.931C936.052 517.532 916.609 520.227 905.356 519.904C889.89 519.539 873.548 521.182 860.856 530.038C845.426 540.824 838.33 560.62 838.452 579.449C838.573 598.277 844.899 616.431 851.671 634.007C855.442 643.917 859.417 653.747 860.734 664.184C860.734 664.184 725.886 680.166 717.746 686.721C709.605 693.276 705.967 706.389 712.21 714.496C718.453 722.603 913.253 730.742 938.9 725.318C941.048 725.372 943.129 724.572 944.687 723.094C946.245 721.616 947.154 719.581 947.212 717.434C949.804 702.316 951.892 687.177 953.29 671.916C954.03 664.052 954.569 656.188 955.116 648.305L960.942 564.663C961.592 558.778 961.51 552.835 960.699 546.97C959.18 539.008 954.465 525.511 946.331 521.931Z" fill="#C8967B"/>
<path d="M914.486 391.581C911.931 389.83 910.716 386.933 907.633 385.94C899.282 383.264 882.088 389.932 873.451 391.492C870.356 391.91 867.325 392.712 864.429 393.879C857.435 397.041 852.996 404.134 850.339 411.349C837.039 447.405 858.733 488.16 850.035 525.593C848.068 534.024 844.599 542.029 842.188 550.359C876.37 551.555 909.661 535.705 943.741 538.4C950.859 538.947 958.867 541.004 962.212 547.297C962.406 547.154 962.595 547.005 962.779 546.849C963.903 545.902 964.829 544.743 965.504 543.438C966.179 542.133 966.591 540.707 966.715 539.243C966.839 537.779 966.674 536.305 966.228 534.905C965.783 533.505 965.066 532.207 964.118 531.083C963.031 530.1 962.034 529.021 961.138 527.861C960.229 526.117 959.776 524.172 959.82 522.206C957.302 481.893 947.622 442.35 931.234 405.43C930.24 402.75 928.708 400.301 926.734 398.234C923.516 394.971 918.367 394.059 914.486 391.581Z" fill="#1E1C1A"/>
<path d="M719.822 289.109C774.546 289.109 818.909 244.763 818.909 190.059C818.909 135.356 774.546 91.0099 719.822 91.0099C665.098 91.0099 620.736 135.356 620.736 190.059C620.736 244.763 665.098 289.109 719.822 289.109Z" fill="#C8967B"/>
<path d="M814.37 104.608C799.556 80.5607 776.367 62.8413 749.267 54.8606L737.102 63.7342V52.2121C730.594 51.2163 724.006 50.8327 717.427 51.0664L706.932 60.5586V51.855C691.393 53.7852 676.423 58.9128 662.965 66.9145C649.508 74.9162 637.855 85.6185 628.741 98.3463C605.95 131.19 602.103 176.883 624.52 209.991C630.673 191.087 638.142 173.349 644.297 154.446C649.133 155.105 654.035 155.129 658.877 154.517L666.364 137.054L668.455 153.778C691.661 151.758 726.08 147.32 748.078 143.255L745.939 130.425L758.738 141.086C765.477 139.535 769.479 138.128 769.148 137.053C785.51 163.419 805.533 180.26 821.892 206.626C828.107 169.448 835.259 138.534 814.37 104.608Z" fill="#020202"/>
<path d="M628.706 226.977C612.784 226.977 599.878 213.027 599.878 195.819V180.24C599.878 163.032 612.784 149.082 628.706 149.082V226.977H628.706Z" fill="#FFD447"/>
<path d="M812.705 149.082C828.626 149.082 841.533 163.032 841.533 180.24V195.819C841.533 213.027 828.626 226.977 812.705 226.977V149.082Z" fill="#FFD447"/>
<path d="M828.812 182.647H824.238C824.238 119.951 777.046 68.9436 719.038 68.9436C661.031 68.9436 613.838 119.951 613.838 182.647H609.264C609.264 117.225 658.509 64 719.038 64C779.568 64 828.812 117.225 828.812 182.647Z" fill="#FFD447"/>
<path d="M670.573 729.312C687.357 729.312 700.963 715.711 700.963 698.933C700.963 682.155 687.357 668.554 670.573 668.554C653.788 668.554 640.182 682.155 640.182 698.933C640.182 715.711 653.788 729.312 670.573 729.312Z" fill="#C8967B"/>
<path d="M737.866 729.312C754.65 729.312 768.256 715.711 768.256 698.933C768.256 682.155 754.65 668.554 737.866 668.554C721.081 668.554 707.475 682.155 707.475 698.933C707.475 715.711 721.081 729.312 737.866 729.312Z" fill="#C8967B"/>
<path d="M910.781 767.231H493.264C488.39 767.225 483.716 765.287 480.269 761.842C476.822 758.396 474.883 753.725 474.878 748.852V495.651C474.883 490.779 476.822 486.107 480.269 482.662C483.716 479.216 488.39 477.278 493.264 477.273H910.781C915.656 477.278 920.329 479.216 923.776 482.662C927.223 486.107 929.162 490.779 929.168 495.651V748.852C929.162 753.725 927.223 758.396 923.776 761.842C920.329 765.287 915.656 767.225 910.781 767.231Z" fill="#3F3D56"/>
<path d="M715.686 634.569C722.404 634.569 727.851 629.125 727.851 622.409C727.851 615.693 722.404 610.249 715.686 610.249C708.968 610.249 703.521 615.693 703.521 622.409C703.521 629.125 708.968 634.569 715.686 634.569Z" fill="#F2F7F2"/>
<g style="mix-blend-mode:soft-light" filter="url(#filter1_d_104_341)">
<path d="M834.878 597C834.878 593.686 837.564 591 840.878 591H867.878C871.191 591 873.878 593.686 873.878 597V617H834.878V597Z" fill="#020202"/>
<path d="M849.486 608.904C849.486 609.608 849.374 610.141 849.15 610.504C848.931 610.867 848.483 611.048 847.806 611.048H843.55C843.091 611.048 842.731 610.915 842.47 610.648C842.208 610.381 842.078 610.016 842.078 609.552V600.184L842.19 600.072H849.086C849.123 600.264 849.147 600.445 849.158 600.616C849.168 600.781 849.174 600.936 849.174 601.08C849.174 601.224 849.155 601.403 849.118 601.616C849.086 601.824 849.035 602.024 848.966 602.216H845.694C845.576 602.216 845.416 602.216 845.214 602.216C845.016 602.211 844.811 602.205 844.598 602.2C844.598 602.419 844.6 602.616 844.606 602.792C844.611 602.963 844.614 603.155 844.614 603.368V604.48C844.827 604.475 845.032 604.472 845.23 604.472C845.427 604.467 845.582 604.464 845.694 604.464H848.134C848.187 604.619 848.224 604.797 848.246 605C848.272 605.203 848.286 605.373 848.286 605.512C848.286 605.656 848.272 605.824 848.246 606.016C848.224 606.208 848.187 606.387 848.134 606.552H845.694C845.582 606.552 845.427 606.552 845.23 606.552C845.032 606.547 844.827 606.541 844.614 606.536V607.768C844.614 607.976 844.611 608.168 844.606 608.344C844.6 608.515 844.598 608.707 844.598 608.92V608.936C844.779 608.925 844.966 608.917 845.158 608.912C845.35 608.907 845.558 608.904 845.782 608.904H849.486ZM853.913 608.712C853.828 608.712 853.727 608.709 853.609 608.704C853.497 608.699 853.388 608.696 853.281 608.696L852.601 611.016C852.441 611.053 852.268 611.077 852.081 611.088C851.9 611.104 851.711 611.112 851.513 611.112C851.321 611.112 851.103 611.096 850.857 611.064C850.617 611.037 850.425 610.995 850.281 610.936L850.185 610.8L853.721 600.072C853.924 600.04 854.167 600.016 854.449 600C854.737 599.984 854.988 599.976 855.201 599.976C855.404 599.976 855.649 599.987 855.937 600.008C856.225 600.024 856.473 600.051 856.681 600.088L860.121 610.832C859.945 610.933 859.716 611.011 859.433 611.064C859.156 611.117 858.897 611.144 858.657 611.144C858.252 611.144 857.935 611.051 857.705 610.864C857.476 610.672 857.284 610.301 857.129 609.752L856.825 608.696C856.724 608.696 856.615 608.699 856.497 608.704C856.38 608.709 856.279 608.712 856.193 608.712H853.913ZM854.233 605.456L853.873 606.696C853.975 606.696 854.084 606.696 854.201 606.696C854.319 606.691 854.423 606.688 854.513 606.688H855.681C855.761 606.688 855.852 606.691 855.953 606.696C856.06 606.696 856.164 606.696 856.265 606.696L855.985 605.696C855.863 605.248 855.719 604.72 855.553 604.112C855.388 603.504 855.239 602.936 855.105 602.408H855.009C854.956 602.707 854.884 603.037 854.793 603.4C854.703 603.763 854.607 604.125 854.505 604.488C854.409 604.845 854.319 605.168 854.233 605.456ZM862.139 603.368C862.139 603.149 862.141 602.955 862.147 602.784C862.152 602.608 862.155 602.408 862.155 602.184H862.139C862.021 602.184 861.853 602.187 861.635 602.192C861.416 602.197 861.248 602.2 861.131 602.2H859.475C859.437 602.008 859.413 601.821 859.403 601.64C859.392 601.453 859.387 601.288 859.387 601.144C859.387 600.995 859.392 600.827 859.403 600.64C859.413 600.453 859.437 600.264 859.475 600.072H867.395C867.432 600.205 867.461 600.363 867.483 600.544C867.509 600.72 867.523 600.891 867.523 601.056C867.523 601.472 867.413 601.768 867.195 601.944C866.981 602.115 866.645 602.2 866.187 602.2H865.715C865.597 602.2 865.429 602.197 865.211 602.192C864.992 602.187 864.824 602.184 864.707 602.184H864.691C864.691 602.408 864.693 602.608 864.699 602.784C864.704 602.955 864.707 603.149 864.707 603.368V611C864.488 611.037 864.264 611.061 864.035 611.072C863.805 611.088 863.603 611.096 863.427 611.096C863.245 611.096 863.04 611.088 862.811 611.072C862.581 611.061 862.357 611.037 862.139 611V603.368Z" fill="#F2F7F2"/>
<path d="M834.878 617H886.878C890.191 617 892.878 619.686 892.878 623V639H834.878V617Z" fill="#020202"/>
<path d="M841.118 632.048C841.15 631.691 841.259 631.336 841.446 630.984C841.638 630.632 841.859 630.349 842.11 630.136C842.558 630.408 843.067 630.651 843.638 630.864C844.208 631.077 844.779 631.184 845.35 631.184C845.814 631.184 846.147 631.072 846.35 630.848C846.552 630.624 846.654 630.384 846.654 630.128C846.654 629.952 846.598 629.755 846.486 629.536C846.374 629.317 846.094 629.115 845.646 628.928L843.718 628.128C843.056 627.851 842.51 627.48 842.078 627.016C841.646 626.552 841.43 625.939 841.43 625.176C841.43 624.509 841.603 623.925 841.95 623.424C842.296 622.923 842.763 622.533 843.35 622.256C843.942 621.973 844.6 621.832 845.326 621.832C846.078 621.832 846.787 621.933 847.454 622.136C848.12 622.333 848.662 622.539 849.078 622.752C849.056 623.12 848.968 623.475 848.814 623.816C848.664 624.152 848.464 624.435 848.214 624.664C847.808 624.472 847.334 624.296 846.79 624.136C846.246 623.971 845.758 623.888 845.326 623.888C844.867 623.888 844.539 623.992 844.342 624.2C844.15 624.408 844.054 624.619 844.054 624.832C844.054 625.035 844.12 625.216 844.254 625.376C844.392 625.536 844.638 625.691 844.99 625.84L846.958 626.648C847.731 626.968 848.326 627.403 848.742 627.952C849.163 628.501 849.374 629.12 849.374 629.808C849.374 630.453 849.216 631.035 848.902 631.552C848.592 632.069 848.126 632.48 847.502 632.784C846.878 633.088 846.099 633.24 845.166 633.24C844.52 633.24 843.832 633.139 843.102 632.936C842.371 632.728 841.71 632.432 841.118 632.048ZM857.824 630.84C857.824 631.651 857.69 632.221 857.424 632.552C857.162 632.883 856.714 633.048 856.08 633.048H852.472C852.013 633.048 851.65 632.915 851.384 632.648C851.117 632.381 850.984 632.016 850.984 631.552V622.072L851.096 621.968H852.032C852.522 621.968 852.898 622.096 853.16 622.352C853.421 622.603 853.552 623.013 853.552 623.584V630.896C854.074 630.859 854.573 630.84 855.048 630.84H857.824ZM866.751 630.904C866.751 631.608 866.639 632.141 866.415 632.504C866.197 632.867 865.749 633.048 865.071 633.048H860.815C860.357 633.048 859.997 632.915 859.735 632.648C859.474 632.381 859.343 632.016 859.343 631.552V622.184L859.455 622.072H866.351C866.389 622.264 866.413 622.445 866.423 622.616C866.434 622.781 866.439 622.936 866.439 623.08C866.439 623.224 866.421 623.403 866.383 623.616C866.351 623.824 866.301 624.024 866.231 624.216H862.959C862.842 624.216 862.682 624.216 862.479 624.216C862.282 624.211 862.077 624.205 861.863 624.2C861.863 624.419 861.866 624.616 861.871 624.792C861.877 624.963 861.879 625.155 861.879 625.368V626.48C862.093 626.475 862.298 626.472 862.495 626.472C862.693 626.467 862.847 626.464 862.959 626.464H865.399C865.453 626.619 865.49 626.797 865.511 627C865.538 627.203 865.551 627.373 865.551 627.512C865.551 627.656 865.538 627.824 865.511 628.016C865.49 628.208 865.453 628.387 865.399 628.552H862.959C862.847 628.552 862.693 628.552 862.495 628.552C862.298 628.547 862.093 628.541 861.879 628.536V629.768C861.879 629.976 861.877 630.168 861.871 630.344C861.866 630.515 861.863 630.707 861.863 630.92V630.936C862.045 630.925 862.231 630.917 862.423 630.912C862.615 630.907 862.823 630.904 863.047 630.904H866.751ZM875.923 630.904C875.923 631.608 875.811 632.141 875.587 632.504C875.368 632.867 874.92 633.048 874.243 633.048H869.987C869.528 633.048 869.168 632.915 868.907 632.648C868.646 632.381 868.515 632.016 868.515 631.552V622.184L868.627 622.072H875.523C875.56 622.264 875.584 622.445 875.595 622.616C875.606 622.781 875.611 622.936 875.611 623.08C875.611 623.224 875.592 623.403 875.555 623.616C875.523 623.824 875.472 624.024 875.403 624.216H872.131C872.014 624.216 871.854 624.216 871.651 624.216C871.454 624.211 871.248 624.205 871.035 624.2C871.035 624.419 871.038 624.616 871.043 624.792C871.048 624.963 871.051 625.155 871.051 625.368V626.48C871.264 626.475 871.47 626.472 871.667 626.472C871.864 626.467 872.019 626.464 872.131 626.464H874.571C874.624 626.619 874.662 626.797 874.683 627C874.71 627.203 874.723 627.373 874.723 627.512C874.723 627.656 874.71 627.824 874.683 628.016C874.662 628.208 874.624 628.387 874.571 628.552H872.131C872.019 628.552 871.864 628.552 871.667 628.552C871.47 628.547 871.264 628.541 871.051 628.536V629.768C871.051 629.976 871.048 630.168 871.043 630.344C871.038 630.515 871.035 630.707 871.035 630.92V630.936C871.216 630.925 871.403 630.917 871.595 630.912C871.787 630.907 871.995 630.904 872.219 630.904H875.923ZM885.447 625.784C885.447 626.621 885.276 627.323 884.935 627.888C884.599 628.448 884.135 628.869 883.543 629.152C882.956 629.435 882.284 629.576 881.527 629.576H880.271V633C880.058 633.037 879.831 633.061 879.591 633.072C879.356 633.088 879.154 633.096 878.983 633.096C878.828 633.096 878.628 633.088 878.383 633.072C878.138 633.061 877.911 633.037 877.703 633V622.152L877.815 622.04C878.498 622.024 879.135 622.011 879.727 622C880.324 621.984 880.924 621.976 881.527 621.976C882.284 621.976 882.956 622.115 883.543 622.392C884.135 622.664 884.599 623.083 884.935 623.648C885.276 624.208 885.447 624.92 885.447 625.784ZM880.271 623.928V627.656C880.495 627.651 880.703 627.645 880.895 627.64C881.092 627.635 881.231 627.632 881.311 627.632C881.738 627.632 882.06 627.531 882.279 627.328C882.498 627.125 882.644 626.883 882.719 626.6C882.794 626.312 882.831 626.04 882.831 625.784C882.831 625.533 882.794 625.267 882.719 624.984C882.644 624.696 882.498 624.451 882.279 624.248C882.06 624.045 881.738 623.944 881.311 623.944C881.151 623.944 880.991 623.944 880.831 623.944C880.671 623.939 880.484 623.933 880.271 623.928Z" fill="#F2F7F2"/>
<rect width="58" height="22" transform="translate(834.878 639)" fill="#020202"/>
<path d="M847.806 648.424C847.816 647.981 847.771 647.565 847.67 647.176C847.574 646.781 847.395 646.464 847.134 646.224C846.878 645.979 846.515 645.856 846.046 645.856C845.358 645.856 844.867 646.176 844.574 646.816C844.286 647.451 844.142 648.376 844.142 649.592C844.142 650.728 844.331 651.581 844.71 652.152C845.094 652.723 845.635 653.008 846.334 653.008C846.888 653.008 847.387 652.891 847.83 652.656C848.278 652.421 848.686 652.165 849.054 651.888C849.304 652.059 849.547 652.301 849.782 652.616C850.022 652.931 850.171 653.237 850.23 653.536C849.92 653.84 849.536 654.123 849.078 654.384C848.624 654.64 848.123 654.845 847.574 655C847.024 655.16 846.454 655.24 845.862 655.24C845.024 655.24 844.32 655.077 843.75 654.752C843.184 654.421 842.734 653.984 842.398 653.44C842.062 652.891 841.819 652.283 841.67 651.616C841.526 650.944 841.454 650.264 841.454 649.576C841.454 648.237 841.664 647.144 842.086 646.296C842.512 645.448 843.08 644.824 843.79 644.424C844.499 644.024 845.28 643.824 846.134 643.824C846.96 643.824 847.68 643.971 848.294 644.264C848.912 644.557 849.39 644.955 849.726 645.456C850.067 645.957 850.238 646.523 850.238 647.152C850.238 647.648 850.107 648.008 849.846 648.232C849.59 648.451 849.232 648.56 848.774 648.56C848.587 648.56 848.416 648.547 848.262 648.52C848.112 648.493 847.96 648.461 847.806 648.424ZM851.125 649.528C851.125 648.387 851.296 647.389 851.637 646.536C851.984 645.683 852.509 645.019 853.213 644.544C853.917 644.069 854.808 643.832 855.885 643.832C856.968 643.832 857.861 644.072 858.565 644.552C859.269 645.027 859.792 645.693 860.133 646.552C860.475 647.405 860.645 648.397 860.645 649.528C860.645 650.675 860.472 651.677 860.125 652.536C859.779 653.389 859.253 654.053 858.549 654.528C857.851 655.003 856.963 655.24 855.885 655.24C854.797 655.24 853.901 655 853.197 654.52C852.499 654.04 851.979 653.373 851.637 652.52C851.296 651.661 851.125 650.664 851.125 649.528ZM853.797 649.528C853.797 649.949 853.819 650.379 853.861 650.816C853.909 651.253 854.003 651.659 854.141 652.032C854.285 652.405 854.496 652.707 854.773 652.936C855.051 653.16 855.421 653.272 855.885 653.272C856.344 653.272 856.712 653.16 856.989 652.936C857.267 652.707 857.475 652.405 857.613 652.032C857.757 651.659 857.851 651.253 857.893 650.816C857.941 650.379 857.965 649.949 857.965 649.528C857.965 649.107 857.941 648.677 857.893 648.24C857.851 647.803 857.757 647.4 857.613 647.032C857.475 646.664 857.267 646.368 856.989 646.144C856.712 645.915 856.344 645.8 855.885 645.8C855.421 645.8 855.051 645.915 854.773 646.144C854.496 646.368 854.285 646.664 854.141 647.032C854.003 647.4 853.909 647.803 853.861 648.24C853.819 648.677 853.797 649.107 853.797 649.528ZM871.294 649.528C871.294 650.152 871.248 650.755 871.158 651.336C871.072 651.912 870.902 652.451 870.646 652.952C870.39 653.453 870.006 653.901 869.494 654.296C869.248 654.488 868.952 654.643 868.606 654.76C868.264 654.877 867.912 654.963 867.55 655.016C867.187 655.069 866.856 655.096 866.558 655.096C865.87 655.096 865.2 655.088 864.55 655.072C863.904 655.061 863.232 655.048 862.534 655.032L862.422 654.92V644.152L862.534 644.04C863.222 644.019 863.891 644.003 864.542 643.992C865.198 643.981 865.87 643.976 866.558 643.976C866.856 643.976 867.187 644.005 867.55 644.064C867.912 644.117 868.267 644.203 868.614 644.32C868.96 644.437 869.254 644.592 869.494 644.784C870 645.179 870.382 645.627 870.638 646.128C870.894 646.624 871.067 647.16 871.158 647.736C871.248 648.312 871.294 648.909 871.294 649.528ZM868.662 649.528C868.662 649.123 868.635 648.712 868.582 648.296C868.534 647.875 868.438 647.491 868.294 647.144C868.155 646.792 867.944 646.509 867.662 646.296C867.384 646.077 867.016 645.968 866.558 645.968C866.286 645.968 866.024 645.968 865.774 645.968C865.523 645.968 865.256 645.963 864.974 645.952V653.112C865.256 653.107 865.523 653.104 865.774 653.104C866.024 653.104 866.286 653.104 866.558 653.104C867.016 653.104 867.384 652.997 867.662 652.784C867.944 652.565 868.155 652.28 868.294 651.928C868.438 651.571 868.534 651.184 868.582 650.768C868.635 650.347 868.662 649.933 868.662 649.528ZM880.501 652.904C880.501 653.608 880.389 654.141 880.165 654.504C879.947 654.867 879.499 655.048 878.821 655.048H874.565C874.107 655.048 873.747 654.915 873.485 654.648C873.224 654.381 873.093 654.016 873.093 653.552V644.184L873.205 644.072H880.101C880.139 644.264 880.163 644.445 880.173 644.616C880.184 644.781 880.189 644.936 880.189 645.08C880.189 645.224 880.171 645.403 880.133 645.616C880.101 645.824 880.051 646.024 879.981 646.216H876.709C876.592 646.216 876.432 646.216 876.229 646.216C876.032 646.211 875.827 646.205 875.613 646.2C875.613 646.419 875.616 646.616 875.621 646.792C875.627 646.963 875.629 647.155 875.629 647.368V648.48C875.843 648.475 876.048 648.472 876.245 648.472C876.443 648.467 876.597 648.464 876.709 648.464H879.149C879.203 648.619 879.24 648.797 879.261 649C879.288 649.203 879.301 649.373 879.301 649.512C879.301 649.656 879.288 649.824 879.261 650.016C879.24 650.208 879.203 650.387 879.149 650.552H876.709C876.597 650.552 876.443 650.552 876.245 650.552C876.048 650.547 875.843 650.541 875.629 650.536V651.768C875.629 651.976 875.627 652.168 875.621 652.344C875.616 652.515 875.613 652.707 875.613 652.92V652.936C875.795 652.925 875.981 652.917 876.173 652.912C876.365 652.907 876.573 652.904 876.797 652.904H880.501Z" fill="#F2F7F2"/>
<path d="M834.878 661H896.878C900.191 661 902.878 663.686 902.878 667V681C902.878 684.314 900.191 687 896.878 687H840.878C837.564 687 834.878 684.314 834.878 681V661Z" fill="#020202"/>
<path d="M849.934 669.456C849.934 669.968 849.835 670.424 849.638 670.824C849.44 671.219 849.192 671.549 848.894 671.816C848.595 672.077 848.294 672.267 847.99 672.384C848.288 672.491 848.536 672.675 848.734 672.936C848.936 673.197 849.099 673.504 849.222 673.856L849.702 675.208C849.883 675.725 850.147 676.12 850.494 676.392C850.328 676.605 850.088 676.784 849.774 676.928C849.459 677.072 849.131 677.144 848.79 677.144C848.331 677.144 847.998 677.021 847.79 676.776C847.582 676.525 847.392 676.155 847.222 675.664L846.646 673.992C846.555 673.715 846.414 673.48 846.222 673.288C846.03 673.091 845.72 672.992 845.294 672.992H844.63V677C844.416 677.037 844.195 677.061 843.966 677.072C843.736 677.088 843.534 677.096 843.358 677.096C843.203 677.096 843.006 677.088 842.766 677.072C842.526 677.061 842.302 677.037 842.094 677V666.152L842.206 666.04C842.888 666.024 843.544 666.011 844.174 666C844.808 665.984 845.43 665.976 846.038 665.976C846.779 665.976 847.443 666.099 848.03 666.344C848.622 666.589 849.086 666.968 849.422 667.48C849.763 667.992 849.934 668.651 849.934 669.456ZM844.63 667.896V671.032C844.88 671.021 845.115 671.013 845.334 671.008C845.558 671.003 845.72 671 845.822 671C846.227 671 846.536 670.928 846.75 670.784C846.968 670.635 847.118 670.443 847.198 670.208C847.283 669.973 847.326 669.723 847.326 669.456C847.326 669.179 847.283 668.923 847.198 668.688C847.118 668.453 846.968 668.267 846.75 668.128C846.536 667.984 846.227 667.912 845.822 667.912C845.656 667.912 845.472 667.912 845.27 667.912C845.072 667.912 844.859 667.907 844.63 667.896ZM859.329 674.904C859.329 675.608 859.217 676.141 858.993 676.504C858.775 676.867 858.327 677.048 857.649 677.048H853.393C852.935 677.048 852.575 676.915 852.313 676.648C852.052 676.381 851.921 676.016 851.921 675.552V666.184L852.033 666.072H858.929C858.967 666.264 858.991 666.445 859.001 666.616C859.012 666.781 859.017 666.936 859.017 667.08C859.017 667.224 858.999 667.403 858.961 667.616C858.929 667.824 858.879 668.024 858.809 668.216H855.537C855.42 668.216 855.26 668.216 855.057 668.216C854.86 668.211 854.655 668.205 854.441 668.2C854.441 668.419 854.444 668.616 854.449 668.792C854.455 668.963 854.457 669.155 854.457 669.368V670.48C854.671 670.475 854.876 670.472 855.073 670.472C855.271 670.467 855.425 670.464 855.537 670.464H857.977C858.031 670.619 858.068 670.797 858.089 671C858.116 671.203 858.129 671.373 858.129 671.512C858.129 671.656 858.116 671.824 858.089 672.016C858.068 672.208 858.031 672.387 857.977 672.552H855.537C855.425 672.552 855.271 672.552 855.073 672.552C854.876 672.547 854.671 672.541 854.457 672.536V673.768C854.457 673.976 854.455 674.168 854.449 674.344C854.444 674.515 854.441 674.707 854.441 674.92V674.936C854.623 674.925 854.809 674.917 855.001 674.912C855.193 674.907 855.401 674.904 855.625 674.904H859.329ZM868.853 669.784C868.853 670.621 868.683 671.323 868.341 671.888C868.005 672.448 867.541 672.869 866.949 673.152C866.363 673.435 865.691 673.576 864.933 673.576H863.677V677C863.464 677.037 863.237 677.061 862.997 677.072C862.763 677.088 862.56 677.096 862.389 677.096C862.235 677.096 862.035 677.088 861.789 677.072C861.544 677.061 861.317 677.037 861.109 677V666.152L861.221 666.04C861.904 666.024 862.541 666.011 863.133 666C863.731 665.984 864.331 665.976 864.933 665.976C865.691 665.976 866.363 666.115 866.949 666.392C867.541 666.664 868.005 667.083 868.341 667.648C868.683 668.208 868.853 668.92 868.853 669.784ZM863.677 667.928V671.656C863.901 671.651 864.109 671.645 864.301 671.64C864.499 671.635 864.637 671.632 864.717 671.632C865.144 671.632 865.467 671.531 865.685 671.328C865.904 671.125 866.051 670.883 866.125 670.6C866.2 670.312 866.237 670.04 866.237 669.784C866.237 669.533 866.2 669.267 866.125 668.984C866.051 668.696 865.904 668.451 865.685 668.248C865.467 668.045 865.144 667.944 864.717 667.944C864.557 667.944 864.397 667.944 864.237 667.944C864.077 667.939 863.891 667.933 863.677 667.928ZM877.923 674.904C877.923 675.608 877.811 676.141 877.587 676.504C877.368 676.867 876.92 677.048 876.243 677.048H871.987C871.528 677.048 871.168 676.915 870.907 676.648C870.646 676.381 870.515 676.016 870.515 675.552V666.184L870.627 666.072H877.523C877.56 666.264 877.584 666.445 877.595 666.616C877.606 666.781 877.611 666.936 877.611 667.08C877.611 667.224 877.592 667.403 877.555 667.616C877.523 667.824 877.472 668.024 877.403 668.216H874.131C874.014 668.216 873.854 668.216 873.651 668.216C873.454 668.211 873.248 668.205 873.035 668.2C873.035 668.419 873.038 668.616 873.043 668.792C873.048 668.963 873.051 669.155 873.051 669.368V670.48C873.264 670.475 873.47 670.472 873.667 670.472C873.864 670.467 874.019 670.464 874.131 670.464H876.571C876.624 670.619 876.662 670.797 876.683 671C876.71 671.203 876.723 671.373 876.723 671.512C876.723 671.656 876.71 671.824 876.683 672.016C876.662 672.208 876.624 672.387 876.571 672.552H874.131C874.019 672.552 873.864 672.552 873.667 672.552C873.47 672.547 873.264 672.541 873.051 672.536V673.768C873.051 673.976 873.048 674.168 873.043 674.344C873.038 674.515 873.035 674.707 873.035 674.92V674.936C873.216 674.925 873.403 674.917 873.595 674.912C873.787 674.907 873.995 674.904 874.219 674.904H877.923ZM882.351 674.712C882.266 674.712 882.164 674.709 882.047 674.704C881.935 674.699 881.826 674.696 881.719 674.696L881.039 677.016C880.879 677.053 880.706 677.077 880.519 677.088C880.338 677.104 880.148 677.112 879.951 677.112C879.759 677.112 879.54 677.096 879.295 677.064C879.055 677.037 878.863 676.995 878.719 676.936L878.623 676.8L882.159 666.072C882.362 666.04 882.604 666.016 882.887 666C883.175 665.984 883.426 665.976 883.639 665.976C883.842 665.976 884.087 665.987 884.375 666.008C884.663 666.024 884.911 666.051 885.119 666.088L888.559 676.832C888.383 676.933 888.154 677.011 887.871 677.064C887.594 677.117 887.335 677.144 887.095 677.144C886.69 677.144 886.372 677.051 886.143 676.864C885.914 676.672 885.722 676.301 885.567 675.752L885.263 674.696C885.162 674.696 885.052 674.699 884.935 674.704C884.818 674.709 884.716 674.712 884.631 674.712H882.351ZM882.671 671.456L882.311 672.696C882.412 672.696 882.522 672.696 882.639 672.696C882.756 672.691 882.86 672.688 882.951 672.688H884.119C884.199 672.688 884.29 672.691 884.391 672.696C884.498 672.696 884.602 672.696 884.703 672.696L884.423 671.696C884.3 671.248 884.156 670.72 883.991 670.112C883.826 669.504 883.676 668.936 883.543 668.408H883.447C883.394 668.707 883.322 669.037 883.231 669.4C883.14 669.763 883.044 670.125 882.943 670.488C882.847 670.845 882.756 671.168 882.671 671.456ZM890.576 669.368C890.576 669.149 890.579 668.955 890.584 668.784C890.59 668.608 890.592 668.408 890.592 668.184H890.576C890.459 668.184 890.291 668.187 890.072 668.192C889.854 668.197 889.686 668.2 889.568 668.2H887.912C887.875 668.008 887.851 667.821 887.84 667.64C887.83 667.453 887.824 667.288 887.824 667.144C887.824 666.995 887.83 666.827 887.84 666.64C887.851 666.453 887.875 666.264 887.912 666.072H895.832C895.87 666.205 895.899 666.363 895.92 666.544C895.947 666.72 895.96 666.891 895.96 667.056C895.96 667.472 895.851 667.768 895.632 667.944C895.419 668.115 895.083 668.2 894.624 668.2H894.152C894.035 668.2 893.867 668.197 893.648 668.192C893.43 668.187 893.262 668.184 893.144 668.184H893.128C893.128 668.408 893.131 668.608 893.136 668.784C893.142 668.955 893.144 669.149 893.144 669.368V677C892.926 677.037 892.702 677.061 892.472 677.072C892.243 677.088 892.04 677.096 891.864 677.096C891.683 677.096 891.478 677.088 891.248 677.072C891.019 677.061 890.795 677.037 890.576 677V669.368Z" fill="#F2F7F2"/>
</g>
<path d="M201.703 712C222.414 712 239.203 695.211 239.203 674.5C239.203 653.789 222.414 637 201.703 637C180.992 637 164.203 653.789 164.203 674.5C164.203 695.211 180.992 712 201.703 712Z" fill="#FFD447"/>
<path d="M214.771 629.938C211.376 629.506 207.939 629.506 204.544 629.938C196.979 630.931 189.859 634.073 184.027 638.992C178.194 643.911 173.896 650.399 171.641 657.687C170.615 661.009 170.034 664.452 169.913 667.926C169.896 668.409 169.885 668.898 169.885 669.386C169.895 679.932 174.089 690.042 181.546 697.498C189.002 704.955 199.112 709.149 209.658 709.159C210.504 709.159 211.351 709.131 212.186 709.08C214.147 708.957 216.095 708.687 218.016 708.273C227.186 706.301 235.364 701.152 241.106 693.735C246.848 686.318 249.784 677.11 249.396 667.738C249.008 658.366 245.321 649.433 238.985 642.517C232.649 635.6 224.073 631.144 214.771 629.938H214.771ZM222.106 705.966H222.101C218.898 707.059 215.564 707.722 212.186 707.937C211.351 707.994 210.504 708.023 209.658 708.023C199.414 708.01 189.594 703.936 182.351 696.693C175.108 689.45 171.034 679.63 171.021 669.386C171.021 668.898 171.033 668.409 171.05 667.926C171.44 657.944 175.677 648.499 182.873 641.57C190.07 634.64 199.667 630.763 209.658 630.75C218.811 630.751 227.667 634.001 234.648 639.921C241.629 645.842 246.281 654.049 247.775 663.079C249.27 672.11 247.51 681.378 242.809 689.232C238.108 697.086 230.772 703.016 222.106 705.966H222.106Z" fill="#3F3D56"/>
<path d="M210.226 633.023H209.089V640.977H210.226V633.023Z" fill="#3F3D56"/>
<path d="M184.346 643.272L183.543 644.075L189.167 649.7L189.971 648.896L184.346 643.272Z" fill="#3F3D56"/>
<path d="M173.294 668.818V669.955H181.248V668.818H173.294Z" fill="#3F3D56"/>
<path d="M183.543 694.698L184.346 695.501L189.971 689.876L189.167 689.073L183.543 694.698Z" fill="#3F3D56"/>
<path d="M229.344 648.896L230.148 649.7L235.772 644.075L234.969 643.272L229.344 648.896Z" fill="#3F3D56"/>
<path d="M238.067 668.818V669.955H246.021V668.818H238.067Z" fill="#3F3D56"/>
<path d="M230.148 689.073L229.344 689.876L234.969 695.501L235.772 694.698L230.148 689.073Z" fill="#3F3D56"/>
<path d="M210.226 697.795H209.089V705.75H210.226V697.795Z" fill="#3F3D56"/>
<path d="M211.362 667.114C210.87 666.745 210.272 666.545 209.657 666.545C209.043 666.545 208.445 666.745 207.953 667.114C207.616 667.369 207.339 667.695 207.14 668.068C206.889 668.549 206.78 669.091 206.827 669.632C206.874 670.172 207.074 670.688 207.405 671.118C207.735 671.548 208.182 671.874 208.692 672.059C209.202 672.243 209.755 672.277 210.284 672.158C210.813 672.038 211.297 671.769 211.678 671.384C212.059 670.998 212.322 670.511 212.436 669.98C212.549 669.45 212.508 668.898 212.318 668.39C212.128 667.882 211.796 667.439 211.362 667.114H211.362ZM209.657 671.091C209.206 671.09 208.773 670.91 208.454 670.59C208.134 670.271 207.954 669.838 207.953 669.386C207.955 669.042 208.06 668.705 208.254 668.42C208.421 668.179 208.646 667.985 208.91 667.857C209.173 667.729 209.465 667.671 209.758 667.688C210.05 667.706 210.333 667.799 210.579 667.958C210.826 668.117 211.027 668.336 211.163 668.596C211.299 668.855 211.366 669.145 211.358 669.438C211.349 669.731 211.265 670.017 211.113 670.268C210.962 670.519 210.749 670.726 210.494 670.87C210.238 671.015 209.95 671.09 209.657 671.091V671.091Z" fill="#3F3D56"/>
<path d="M214.771 619.955H204.544V630.182H214.771V619.955Z" fill="#3F3D56"/>
<path d="M209.658 621.659C217.189 621.659 223.294 619.497 223.294 616.83C223.294 614.162 217.189 612 209.658 612C202.126 612 196.021 614.162 196.021 616.83C196.021 619.497 202.126 621.659 209.658 621.659Z" fill="#3F3D56"/>
<path d="M211.362 647.795H207.953V667.114H211.362V647.795Z" fill="#3F3D56"/>
<path d="M1400 716.316H0V759.322H82.8084V769.318H1317.22V759.322H1400V716.316Z" fill="#F2F7F2"/>
</g>
<defs>
<filter id="filter0_d_104_341" x="1068.99" y="588.638" width="118.856" height="138.689" filterUnits="userSpaceOnUse" color-interpolation-filters="sRGB">
<feFlood flood-opacity="0" result="BackgroundImageFix"/>
<feColorMatrix in="SourceAlpha" type="matrix" values="0 0 0 0 0 0 0 0 0 0 0 0 0 0 0 0 0 0 127 0" result="hardAlpha"/>
<feOffset/>
<feGaussianBlur stdDeviation="3"/>
<feComposite in2="hardAlpha" operator="out"/>
<feColorMatrix type="matrix" values="0 0 0 0 0 0 0 0 0 0 0 0 0 0 0 0 0 0 0.25 0"/>
<feBlend mode="normal" in2="BackgroundImageFix" result="effect1_dropShadow_104_341"/>
<feBlend mode="normal" in="SourceGraphic" in2="effect1_dropShadow_104_341" result="shape"/>
</filter>
<filter id="filter1_d_104_341" x="831.878" y="588" width="74" height="102" filterUnits="userSpaceOnUse" color-interpolation-filters="sRGB">
<feFlood flood-opacity="0" result="BackgroundImageFix"/>
<feColorMatrix in="SourceAlpha" type="matrix" values="0 0 0 0 0 0 0 0 0 0 0 0 0 0 0 0 0 0 127 0" result="hardAlpha"/>
<feOffset/>
<feGaussianBlur stdDeviation="1.5"/>
<feComposite in2="hardAlpha" operator="out"/>
<feColorMatrix type="matrix" values="0 0 0 0 0 0 0 0 0 0 0 0 0 0 0 0 0 0 0.11 0"/>
<feBlend mode="normal" in2="BackgroundImageFix" result="effect1_dropShadow_104_341"/>
<feBlend mode="normal" in="SourceGraphic" in2="effect1_dropShadow_104_341" result="shape"/>
</filter>
<clipPath id="clip0_104_341">
<rect width="1400" height="769.318" fill="white"/>
</clipPath>
</defs>
</svg>
