<svg width="243" height="239" viewBox="0 0 243 239" fill="none" xmlns="http://www.w3.org/2000/svg">
<path d="M120.558 238.109C175.282 238.109 219.644 193.763 219.644 139.059C219.644 84.3558 175.282 40.0099 120.558 40.0099C65.8339 40.0099 21.4714 84.3558 21.4714 139.059C21.4714 193.763 65.8339 238.109 120.558 238.109Z" fill="#C8967B"/>
<path d="M215.106 53.6077C200.292 29.5607 177.103 11.8413 150.002 3.86059L137.838 12.7342V1.21208C131.33 0.216331 124.742 -0.167261 118.162 0.0663512L107.668 9.55865V0.854975C92.1288 2.78518 77.1588 7.91281 63.7013 15.9145C50.2439 23.9162 38.5909 34.6185 29.4773 47.3463C6.68609 80.1903 2.83878 125.883 25.2556 158.991C31.4085 140.087 38.8776 122.349 45.0324 103.446C49.8688 104.105 54.7707 104.129 59.6133 103.517L67.0996 86.0545L69.1913 102.778C92.397 100.758 126.816 96.3201 148.814 92.2547L146.675 79.4246L159.473 90.0856C166.213 88.535 170.215 87.1277 169.884 86.0527C186.246 112.419 206.269 129.26 222.628 155.626C228.842 118.448 235.994 87.5343 215.106 53.6077Z" fill="#020202"/>
<path d="M29.4414 175.977C13.5202 175.977 0.613403 162.027 0.613403 144.819V129.24C0.613403 112.032 13.5201 98.0817 29.4414 98.0817V175.977H29.4414Z" fill="#FFD447"/>
<path d="M213.441 98.0817C229.362 98.0817 242.269 112.032 242.269 129.24V144.819C242.269 162.027 229.362 175.977 213.441 175.977V98.0817Z" fill="#FFD447"/>
<path d="M229.548 131.647H224.974C224.974 68.9508 177.782 17.9436 119.774 17.9436C61.7667 17.9436 14.5739 68.9508 14.5739 131.647H10C10 66.2247 59.2444 13 119.774 13C180.304 13 229.548 66.2248 229.548 131.647Z" fill="#FFD447"/>
</svg>
