<svg width="335" height="402" viewBox="0 0 335 402" fill="none" xmlns="http://www.w3.org/2000/svg">
<path opacity="0.64" d="M167.124 402C259.425 402 334.249 386.933 334.249 368.346C334.249 349.76 259.425 334.692 167.124 334.692C74.8242 334.692 0 349.76 0 368.346C0 386.933 74.8242 402 167.124 402Z" fill="#68CCE9"/>
<path d="M87.0143 362.894C89.3877 355.306 96.5505 351.216 108.203 347.831C115.625 345.675 124.996 344.707 139.666 341.733C146.822 340.282 151.868 337.492 151.868 337.492V345.631C151.868 345.631 103.161 355.245 95.5824 367.842C91.8819 373.992 93.0213 389.137 110.415 390.695C105.103 391.471 96.3429 390.13 91.6452 385.37C85.823 379.471 84.2827 371.628 87.0143 362.894Z" fill="#282323" stroke="black" stroke-width="4" stroke-miterlimit="10" stroke-linecap="round" stroke-linejoin="round"/>
<path d="M151.868 345.632C151.868 345.632 122.707 351.033 107.164 357.736C93.5061 363.627 93.9169 369.715 93.5708 375.973C93.371 379.586 95.9086 388.567 106.292 390.101C118.654 391.928 133.257 389.974 151.868 378.11C151.868 349.084 151.868 345.632 151.868 345.632Z" fill="#442C2A"/>
<path opacity="0.37" d="M93.5708 375.973C93.8508 370.91 93.6383 365.957 100.78 361.131C100.464 362.879 100.426 364.642 100.328 366.419C100.129 370.031 108.847 365.325 119.231 366.859C130.056 368.459 136.42 380.847 151.868 372.532C151.868 374.28 151.868 376.13 151.868 378.11C133.257 389.974 118.654 391.927 106.292 390.101C95.9086 388.567 93.371 379.586 93.5708 375.973Z" fill="#442C2A"/>
<path d="M141.931 358.609C139.5 362.029 141.245 370.023 145.52 372.03M151.868 345.632C151.868 345.632 122.707 351.033 107.164 357.736C93.5061 363.627 93.9169 369.715 93.5708 375.973C93.371 379.586 95.9086 388.567 106.292 390.101C118.654 391.928 133.257 389.974 151.868 378.11C151.868 349.084 151.868 345.632 151.868 345.632ZM124.892 362.352C122.555 363.636 123.125 376.037 128.808 377.773L124.892 362.352ZM133.766 361.453C131.335 364.873 133.08 372.867 137.355 374.874L133.766 361.453Z" stroke="black" stroke-width="4" stroke-miterlimit="10" stroke-linecap="round" stroke-linejoin="round"/>
<path d="M225.831 321.77C210.492 332.421 188.636 338.531 165.868 338.531C143.101 338.531 121.245 332.421 105.906 321.77C98.8612 316.878 87.0441 306.634 87.0441 292.988C87.0441 279.341 98.8619 269.097 105.906 264.206C121.245 253.554 143.101 247.445 165.868 247.445C188.636 247.445 210.492 253.554 225.831 264.206C232.876 269.097 244.693 279.341 244.693 292.988C244.693 306.634 232.876 316.878 225.831 321.77Z" fill="#151E28"/>
<path d="M296.076 304.323C295.799 305.723 295.472 307.116 295.095 308.495C284.035 348.962 230.553 379.647 166.247 379.647C101.769 379.647 48.1744 348.798 37.3061 308.183C37.0005 307.045 36.7304 305.908 36.5029 304.757C36.1973 302.653 36.2612 300.52 36.7304 298.395C39.3817 286.475 53.8893 279.566 69.129 282.956C79.1514 285.188 87.0058 291.315 90.4461 298.644C90.8228 300.236 91.3417 301.771 91.9744 303.243C95.6421 311.758 103.091 318.17 108.074 321.745C122.958 332.393 144.155 338.506 166.247 338.506C188.331 338.506 209.535 332.393 224.412 321.745C229.423 318.148 236.929 311.68 240.576 303.093C241.159 301.714 241.642 300.286 242.005 298.8C245.402 291.408 253.285 285.202 263.386 282.956C278.633 279.566 293.133 286.475 295.784 298.395C296.226 300.371 296.311 302.361 296.076 304.323Z" fill="#2A3749"/>
<path opacity="0.67" d="M295.785 298.395C295.711 298.063 295.624 297.736 295.533 297.411C295.288 298.573 295.017 299.732 294.705 300.878C283.644 341.345 230.163 372.03 165.856 372.03C101.379 372.03 47.7841 341.181 36.9158 300.566C36.7978 300.127 36.6905 299.688 36.5832 299.248C36.2704 301.09 36.2392 302.933 36.5036 304.756C36.731 305.907 37.0011 307.045 37.3068 308.182C48.175 348.798 101.77 379.647 166.247 379.647C230.554 379.647 284.035 348.961 295.096 308.495C295.472 307.116 295.799 305.723 296.076 304.322C296.311 302.361 296.226 300.371 295.785 298.395Z" fill="#151E28"/>
<path d="M296.076 304.323C295.799 305.723 295.472 307.116 295.095 308.495C284.035 348.962 230.553 379.647 166.247 379.647C101.769 379.647 48.1744 348.798 37.3061 308.183C37.0005 307.045 36.7304 305.908 36.5029 304.757C36.1973 302.653 36.2612 300.52 36.7304 298.395C39.3817 286.475 53.8893 279.566 69.129 282.956C79.1514 285.188 87.0058 291.315 90.4461 298.644C90.8228 300.236 91.3417 301.771 91.9744 303.243C95.6421 311.758 103.091 318.17 108.074 321.745C122.958 332.393 144.155 338.506 166.247 338.506C188.331 338.506 209.535 332.393 224.412 321.745C229.423 318.148 236.929 311.68 240.576 303.093C241.159 301.714 241.642 300.286 242.005 298.8C245.402 291.408 253.285 285.202 263.386 282.956C278.633 279.566 293.133 286.475 295.784 298.395C296.226 300.371 296.311 302.361 296.076 304.323Z" stroke="black" stroke-width="4" stroke-miterlimit="10" stroke-linecap="round" stroke-linejoin="round"/>
<path d="M167.124 316.895C202.514 316.895 231.203 307.146 231.203 295.12C231.203 283.094 202.514 273.345 167.124 273.345C131.735 273.345 103.046 283.094 103.046 295.12C103.046 307.146 131.735 316.895 167.124 316.895Z" fill="#9B2121"/>
<path d="M167.124 316.895C202.514 316.895 231.203 307.146 231.203 295.12C231.203 283.094 202.514 273.345 167.124 273.345C131.735 273.345 103.046 283.094 103.046 295.12C103.046 307.146 131.735 316.895 167.124 316.895Z" stroke="black" stroke-width="4" stroke-miterlimit="10" stroke-linecap="round" stroke-linejoin="round"/>
<path d="M240.053 247.649H92.4364C81.1501 247.649 72.4179 237.758 73.816 226.559L80.3384 174.328C82.1993 159.427 94.8659 148.243 109.883 148.243H222.607C237.624 148.243 250.29 159.426 252.151 174.328L258.674 226.559C260.071 237.758 251.339 247.649 240.053 247.649Z" fill="#F1534D"/>
<path d="M240.053 247.649H92.4364C81.1501 247.649 72.4179 237.758 73.816 226.559L80.3384 174.328C82.1993 159.427 94.8659 148.243 109.883 148.243H222.607C237.624 148.243 250.29 159.426 252.151 174.328L258.674 226.559C260.071 237.758 251.339 247.649 240.053 247.649Z" stroke="black" stroke-width="4" stroke-miterlimit="10" stroke-linecap="round" stroke-linejoin="round"/>
<path d="M108.46 192.358L107.051 210.152" stroke="black" stroke-width="4" stroke-miterlimit="10" stroke-linecap="round" stroke-linejoin="round"/>
<path d="M225.079 192.358L226.487 210.152" stroke="black" stroke-width="4" stroke-miterlimit="10" stroke-linecap="round" stroke-linejoin="round"/>
<path d="M240.053 247.649H92.4364C81.1501 247.649 72.4179 237.758 73.816 226.559L80.3384 174.328C82.1993 159.427 94.8659 148.243 109.883 148.243H222.607C237.624 148.243 250.29 159.426 252.151 174.328L258.674 226.559C260.071 237.758 251.339 247.649 240.053 247.649Z" fill="#F1534D"/>
<path opacity="0.24" d="M80.3376 179.844C82.1985 164.943 94.8651 153.759 109.882 153.759H222.606C237.623 153.759 250.29 164.942 252.151 179.844L258.619 231.647C258.861 230.003 258.89 228.297 258.672 226.559L252.15 174.328C250.289 159.427 237.622 148.243 222.605 148.243H109.883C94.8658 148.243 82.1992 159.426 80.3383 174.328L73.8159 226.559C73.5991 228.297 73.6269 230.004 73.8693 231.647L80.3376 179.844Z" fill="#9B2121"/>
<path opacity="0.24" d="M116.444 153.76C116.444 153.76 125.178 155.291 125.932 160.165C126.53 164.041 126.43 166.659 127.955 168.185C129.479 169.71 132.962 172.919 139.984 172.919C136.054 168.989 135.976 155.291 134.954 155.291C133.932 155.291 131.395 148.477 131.395 148.477L127.955 146.916C127.955 146.915 115.37 148.491 116.444 153.76ZM209.794 153.76C209.794 153.76 201.06 155.291 200.306 160.165C199.708 164.041 199.808 166.659 198.283 168.185C196.758 169.71 193.276 172.919 186.254 172.919C190.184 168.989 190.262 155.291 191.284 155.291C192.306 155.291 194.843 148.477 194.843 148.477L198.283 146.916C198.283 146.915 210.868 148.491 209.794 153.76Z" fill="#9B2121"/>
<path d="M240.053 247.649H92.4364C81.1501 247.649 72.4179 237.758 73.816 226.559L80.3384 174.328C82.1993 159.427 94.8659 148.243 109.883 148.243H222.607C237.624 148.243 250.29 159.426 252.151 174.328L258.674 226.559C260.071 237.758 251.339 247.649 240.053 247.649Z" stroke="black" stroke-width="4" stroke-miterlimit="10" stroke-linecap="round" stroke-linejoin="round"/>
<path d="M108.46 192.358L107.051 210.152" stroke="black" stroke-width="4" stroke-miterlimit="10" stroke-linecap="round" stroke-linejoin="round"/>
<path d="M225.079 192.358L226.487 210.152" stroke="black" stroke-width="4" stroke-miterlimit="10" stroke-linecap="round" stroke-linejoin="round"/>
<path d="M147.264 118.474L123.871 117.248L112.947 118.474C112.947 118.474 105.592 123.934 105.592 125.442C105.592 126.949 106.314 139.119 106.314 139.119C106.314 139.119 123.592 141.431 125.415 143.253C127.237 145.075 138.232 155.29 138.232 155.29L148.848 151.171L154.394 136.387L147.264 118.474Z" fill="#9B2121"/>
<path d="M143.155 109.422H116.175C105.274 109.422 96.4368 118.26 96.4368 129.161C96.4368 140.062 105.274 148.899 116.175 148.899H119.73C125.458 148.899 130.103 153.543 130.103 159.272V160.352C130.103 167.259 135.702 172.858 142.609 172.858V160.063C142.769 160.063 142.897 160.193 142.897 160.351V159.271C142.897 146.497 132.505 136.104 119.731 136.104H116.176C112.347 136.104 109.232 132.988 109.232 129.159C109.232 125.33 112.347 122.215 116.176 122.215H143.155L143.155 109.422Z" fill="#F1534D"/>
<path d="M141.476 151.281C138.215 142.432 129.698 136.105 119.73 136.105H116.175C112.346 136.105 109.231 132.99 109.231 129.161C109.231 125.332 112.346 122.217 116.175 122.217H143.155V109.422H116.175C105.274 109.422 96.4368 118.26 96.4368 129.161C96.4368 140.062 105.274 148.899 116.175 148.899H119.73C125.458 148.899 130.103 153.543 130.103 159.272V160.352C130.103 167.259 135.702 172.858 142.609 172.858" stroke="black" stroke-width="4" stroke-miterlimit="10" stroke-linecap="round" stroke-linejoin="round"/>
<path d="M178.209 118.474L201.602 117.248L212.526 118.474C212.526 118.474 219.881 123.934 219.881 125.442C219.881 126.949 219.158 139.119 219.158 139.119C219.158 139.119 201.88 141.431 200.058 143.253C198.235 145.076 187.24 155.29 187.24 155.29L176.624 151.171L171.079 136.387L178.209 118.474Z" fill="#9B2121"/>
<path d="M182.318 109.422H209.298C220.198 109.422 229.036 118.26 229.036 129.161C229.036 140.062 220.198 148.899 209.298 148.899H205.743C200.014 148.899 195.37 153.543 195.37 159.272V160.352C195.37 167.259 189.771 172.858 182.864 172.858V160.063C182.705 160.063 182.576 160.193 182.576 160.351V159.271C182.576 146.497 192.969 136.104 205.743 136.104H209.298C213.127 136.104 216.241 132.988 216.241 129.159C216.241 125.33 213.127 122.215 209.298 122.215H182.318V109.422Z" fill="#F1534D"/>
<path d="M183.996 151.281C187.258 142.432 195.775 136.105 205.743 136.105H209.298C213.127 136.105 216.241 132.99 216.241 129.161C216.241 125.332 213.127 122.217 209.298 122.217H182.318V109.422H209.298C220.198 109.422 229.036 118.26 229.036 129.161C229.036 140.062 220.198 148.899 209.298 148.899H205.743C200.014 148.899 195.37 153.543 195.37 159.272V160.352C195.37 167.259 189.771 172.858 182.864 172.858" stroke="black" stroke-width="4" stroke-miterlimit="10" stroke-linecap="round" stroke-linejoin="round"/>
<path d="M164.055 162.796C179.365 162.796 191.776 150.384 191.776 135.074C191.776 119.764 179.365 107.353 164.055 107.353C148.744 107.353 136.333 119.764 136.333 135.074C136.333 150.384 148.744 162.796 164.055 162.796Z" fill="#F46262"/>
<path d="M137.549 126.936C145.201 131.865 154.296 134.738 164.055 134.738C173.813 134.738 182.908 131.865 190.56 126.936C187.083 115.598 176.533 107.353 164.055 107.353C151.576 107.352 141.026 115.598 137.549 126.936Z" fill="#F1534D"/>
<path d="M164.055 162.796C179.365 162.796 191.776 150.384 191.776 135.074C191.776 119.764 179.365 107.353 164.055 107.353C148.744 107.353 136.333 119.764 136.333 135.074C136.333 150.384 148.744 162.796 164.055 162.796Z" stroke="black" stroke-width="4" stroke-miterlimit="10" stroke-linecap="round" stroke-linejoin="round"/>
<path d="M164.055 151.171C155.025 151.171 147.706 143.852 147.706 134.822V122.566C147.706 120.306 149.538 118.474 151.799 118.474H176.311C178.571 118.474 180.404 120.306 180.404 122.566V134.822C180.403 143.852 173.084 151.171 164.055 151.171Z" fill="#FFC897"/>
<path d="M176.31 118.474H151.798C149.538 118.474 147.705 120.44 147.705 122.867V132.917C152.822 134.863 158.323 135.933 164.054 135.933C169.784 135.933 175.285 134.863 180.402 132.917V122.867C180.403 120.441 178.571 118.474 176.31 118.474Z" fill="#E5A973"/>
<path d="M164.055 151.171C155.025 151.171 147.706 143.852 147.706 134.822V122.566C147.706 120.306 149.538 118.474 151.799 118.474H176.311C178.571 118.474 180.404 120.306 180.404 122.566V134.822C180.403 143.852 173.084 151.171 164.055 151.171Z" stroke="black" stroke-width="4" stroke-miterlimit="10" stroke-linecap="round" stroke-linejoin="round"/>
<path d="M181.754 335.34H166.51V383.899H181.754V335.34Z" fill="#607691"/>
<path d="M181.754 335.34H166.51V383.899H181.754V335.34Z" stroke="black" stroke-width="4" stroke-miterlimit="10" stroke-linecap="round" stroke-linejoin="round"/>
<path d="M91.975 303.242C91.3424 301.771 90.8235 300.236 90.4468 298.644C91.1498 300.136 91.6687 301.672 91.975 303.242ZM240.577 303.093C240.875 301.629 241.358 300.193 242.005 298.8C241.643 300.286 241.159 301.714 240.577 303.093Z" stroke="black" stroke-width="4" stroke-miterlimit="10" stroke-linecap="round" stroke-linejoin="round"/>
<path d="M240.343 299.646H92.1456C86.8543 299.646 82.3876 295.714 81.7166 290.465L72.469 218.122C71.6658 211.837 76.5626 206.275 82.898 206.275H249.591C255.927 206.275 260.823 211.837 260.02 218.122L250.772 290.465C250.101 295.714 245.635 299.646 240.343 299.646Z" fill="#B5B5B5"/>
<path opacity="0.21" d="M250.772 285.95C250.101 291.199 245.635 295.131 240.343 295.131H92.1456C86.8543 295.131 82.3876 291.199 81.7166 285.95L72.6019 214.649C72.3716 215.758 72.3162 216.927 72.469 218.122L81.7166 290.464C82.3876 295.713 86.8543 299.645 92.1456 299.645H240.343C245.634 299.645 250.101 295.713 250.772 290.464L260.019 218.122C260.172 216.926 260.117 215.758 259.886 214.649L250.772 285.95Z" fill="#7E7E7E"/>
<path opacity="0.21" d="M72.5557 218.804C73.4279 213.946 77.6672 210.152 82.898 210.152H249.591C254.821 210.152 259.061 213.946 259.933 218.804L260.021 218.122C260.824 211.837 255.927 206.275 249.592 206.275H82.898C76.5619 206.275 71.6658 211.838 72.469 218.122L72.5557 218.804Z" fill="#7E7E7E"/>
<path d="M240.343 299.646H92.1456C86.8543 299.646 82.3876 295.714 81.7166 290.465L72.469 218.122C71.6658 211.837 76.5626 206.275 82.898 206.275H249.591C255.927 206.275 260.823 211.837 260.02 218.122L250.772 290.465C250.101 295.714 245.635 299.646 240.343 299.646Z" stroke="black" stroke-width="4" stroke-miterlimit="10" stroke-linecap="round" stroke-linejoin="round"/>
<path opacity="0.66" d="M173.3 248.52C170.133 248.52 167.565 245.952 167.565 242.785C167.565 242.565 167.58 242.349 167.604 242.135C167.041 242.03 166.462 241.968 165.869 241.968C160.649 241.968 156.418 246.2 156.418 251.418C156.418 256.637 160.65 260.869 165.869 260.869C171.087 260.869 175.319 256.637 175.319 251.418C175.319 250.33 175.125 249.29 174.787 248.317C174.312 248.445 173.815 248.52 173.3 248.52Z" fill="white"/>
<path d="M246.609 362.894C244.235 355.306 237.072 351.216 225.42 347.831C217.998 345.675 208.627 344.707 193.957 341.733C186.8 340.282 181.755 337.492 181.755 337.492V345.631C181.755 345.631 230.462 355.245 238.04 367.842C241.741 373.992 240.601 389.137 223.208 390.695C228.52 391.471 237.28 390.13 241.978 385.37C247.8 379.471 249.34 371.628 246.609 362.894Z" fill="#282323" stroke="black" stroke-width="4" stroke-miterlimit="10" stroke-linecap="round" stroke-linejoin="round"/>
<path d="M181.755 345.632C181.755 345.632 210.915 351.033 226.459 357.736C240.117 363.627 239.706 369.715 240.052 375.973C240.252 379.586 237.714 388.567 227.331 390.101C214.969 391.928 200.366 389.974 181.755 378.11C181.755 349.084 181.755 345.632 181.755 345.632Z" fill="#442C2A"/>
<path opacity="0.37" d="M240.052 375.973C239.772 370.91 239.985 365.957 232.843 361.131C233.159 362.879 233.196 364.642 233.294 366.419C233.494 370.031 230.957 379.013 220.573 380.547C209.748 382.146 197.204 380.846 181.755 372.532C181.755 374.28 181.755 376.13 181.755 378.11C200.366 389.974 214.969 391.927 227.331 390.101C237.714 388.567 240.252 379.586 240.052 375.973Z" fill="#442C2A"/>
<path d="M191.692 358.609C194.122 362.029 192.377 370.023 188.103 372.03M181.755 345.632C181.755 345.632 210.915 351.033 226.459 357.736C240.117 363.627 239.706 369.715 240.052 375.973C240.252 379.586 237.714 388.567 227.331 390.101C214.969 391.928 200.366 389.974 181.755 378.11C181.755 349.084 181.755 345.632 181.755 345.632ZM208.73 362.352C211.068 363.636 210.498 376.037 204.814 377.773L208.73 362.352ZM199.857 361.453C202.288 364.873 200.542 372.867 196.268 374.874L199.857 361.453Z" stroke="black" stroke-width="4" stroke-miterlimit="10" stroke-linecap="round" stroke-linejoin="round"/>
<path d="M139.068 165.684V203.462" stroke="black" stroke-width="6" stroke-miterlimit="10" stroke-linecap="round" stroke-linejoin="round"/>
<path d="M187.061 165.684V192.358" stroke="black" stroke-width="6" stroke-miterlimit="10" stroke-linecap="round" stroke-linejoin="round"/>
<path d="M187.061 200.369C190.33 200.369 192.98 197.719 192.98 194.45C192.98 191.181 190.33 188.531 187.061 188.531C183.792 188.531 181.142 191.181 181.142 194.45C181.142 197.719 183.792 200.369 187.061 200.369Z" fill="black"/>
<path d="M187.061 196.122C188.377 196.122 189.445 195.055 189.445 193.739C189.445 192.423 188.377 191.355 187.061 191.355C185.745 191.355 184.678 192.423 184.678 193.739C184.678 195.055 185.745 196.122 187.061 196.122Z" fill="#7E7E7E"/>
<path d="M164.055 130.473C139.294 130.473 119.221 110.401 119.221 85.6407V33.5825H208.887V85.6407C208.887 110.401 188.816 130.473 164.055 130.473Z" fill="#FFC897"/>
<path d="M164.055 124.271C139.294 124.271 119.221 104.198 119.221 79.438V85.6405C119.221 110.401 139.294 130.473 164.054 130.473C188.815 130.473 208.887 110.401 208.887 85.6405V79.438C208.887 104.198 188.816 124.271 164.055 124.271Z" fill="#E5A973"/>
<path d="M164.055 130.473C139.294 130.473 119.221 110.401 119.221 85.6407V33.5825H208.887V85.6407C208.887 110.401 188.816 130.473 164.055 130.473Z" stroke="black" stroke-width="4" stroke-miterlimit="10" stroke-linecap="round" stroke-linejoin="round"/>
<path d="M209.273 38.7757C209.132 36.3326 209.003 33.8882 208.888 31.4423C179.005 32.8532 149.057 32.6322 119.233 30.0342C119.036 32.7992 118.854 35.5657 118.687 38.3343C120.053 39.5675 121.429 40.7901 122.813 42.0014C123.978 42.5828 125.473 43.3689 126.786 44.0485C132.758 47.1632 141.09 51.1786 149.014 52.6862C151.943 53.2513 155.01 53.5228 158.116 53.5015C171.574 53.3771 182.86 48.0262 187.616 45.8177C188.317 45.4893 188.923 45.2049 189.241 45.0756C189.538 44.9547 189.845 44.8922 190.206 44.8766C191.039 44.8424 192.061 45.0607 193.247 45.308C194.839 45.6407 196.647 46.0089 198.696 45.8973C201.039 45.7708 203.206 45.0329 205.227 43.6838C206.579 42.0426 207.928 40.4063 209.273 38.7757Z" fill="#E5A973"/>
<path d="M187.606 11.7573C187.606 11.7573 151.72 -11.9254 121.994 14.5017C116.484 19.3999 114.242 26.417 114.242 32.9287V67.2231H119.222V42.3398C119.222 40.5272 120.479 39.058 122.03 39.058C124.566 39.058 138.452 46.4561 150.151 48.494C167.832 51.5739 184.02 43.3541 187.44 42.1358C193.389 40.0169 198.258 47.3709 205.814 39.058H206.079C207.63 39.058 208.888 40.5272 208.888 42.3398V67.2231H213.868V33.0929C213.867 24.7999 204.186 3.73155 187.606 11.7573Z" fill="#231A17"/>
<path opacity="0.34" d="M119.222 62.5625H114.242V67.2233H119.222V62.5625Z" fill="#231A17"/>
<path opacity="0.34" d="M213.867 62.5625H208.887V67.2233H213.867V62.5625Z" fill="#231A17"/>
<path d="M162.737 29.9504C162.737 29.9504 125.608 27.5763 115.942 7.15694M187.606 11.7573C187.606 11.7573 151.721 -11.9254 121.994 14.5017C116.484 19.3999 114.242 26.417 114.242 32.9287V67.2231H119.222V42.3398C119.222 40.5272 120.479 39.058 122.03 39.058C124.566 39.058 138.452 46.4561 150.151 48.494C167.832 51.5739 184.02 43.3541 187.44 42.1358C193.389 40.0169 198.258 47.3709 205.814 39.058H206.08C207.63 39.058 208.888 40.5272 208.888 42.3398V67.2231H213.868V33.0929C213.867 24.7999 204.186 3.73155 187.606 11.7573ZM157.305 34.8607C157.305 34.8607 118.787 37.3613 110.578 16.8978L157.305 34.8607Z" stroke="black" stroke-width="4" stroke-miterlimit="10" stroke-linecap="round" stroke-linejoin="round"/>
<path d="M208.887 61.6841V84.9758C213.841 84.9758 217.857 79.7621 217.857 73.33C217.857 66.8986 213.842 61.6841 208.887 61.6841Z" fill="#FFC897"/>
<path d="M208.887 62.9805V83.6813C211.777 81.7479 213.758 77.8435 213.758 73.3313C213.758 68.8183 211.777 64.9139 208.887 62.9805Z" fill="#E5A973"/>
<path d="M208.887 61.6841V84.9758C213.841 84.9758 217.857 79.7621 217.857 73.33C217.857 66.8986 213.842 61.6841 208.887 61.6841Z" stroke="black" stroke-width="4" stroke-miterlimit="10" stroke-linecap="round" stroke-linejoin="round"/>
<path d="M119.221 61.6841V84.9758C114.267 84.9758 110.251 79.7621 110.251 73.33C110.252 66.8986 114.267 61.6841 119.221 61.6841Z" fill="#FFC897"/>
<path d="M119.221 63.3789C116.63 65.4211 114.893 69.1073 114.893 73.3302C114.893 77.5531 116.63 81.2401 119.221 83.2815V63.3789Z" fill="#E5A973"/>
<path d="M162.216 80.6492L159.228 90.4093C159.228 91.4712 162.736 90.6076 166.244 91.4705M119.221 61.6841V84.9758C114.267 84.9758 110.251 79.7621 110.251 73.33C110.252 66.8986 114.267 61.6841 119.221 61.6841Z" stroke="black" stroke-width="4" stroke-miterlimit="10" stroke-linecap="round" stroke-linejoin="round"/>
<path d="M178.99 98.8359C180.083 106.239 170.562 112.788 163.083 111.431" stroke="black" stroke-width="3" stroke-miterlimit="10" stroke-linecap="round" stroke-linejoin="round"/>
<path d="M147.869 72.3913C149.517 72.3913 150.853 70.9586 150.853 69.1913C150.853 67.4239 149.517 65.9912 147.869 65.9912C146.221 65.9912 144.885 67.4239 144.885 69.1913C144.885 70.9586 146.221 72.3913 147.869 72.3913Z" stroke="black" stroke-width="2" stroke-miterlimit="10" stroke-linecap="round" stroke-linejoin="round"/>
<path d="M147.869 72.3913C149.517 72.3913 150.853 70.9586 150.853 69.1913C150.853 67.4239 149.517 65.9912 147.869 65.9912C146.221 65.9912 144.885 67.4239 144.885 69.1913C144.885 70.9586 146.221 72.3913 147.869 72.3913Z" fill="black"/>
<path d="M137.561 62.4485C139.058 60.6786 142.563 59.4375 146.647 59.4375C149.894 59.4375 152.774 60.2222 154.571 61.4327" stroke="black" stroke-width="3" stroke-miterlimit="10" stroke-linecap="round" stroke-linejoin="round"/>
<path d="M180.601 72.3918C182.249 72.3918 183.585 70.9591 183.585 69.1917C183.585 67.4244 182.249 65.9917 180.601 65.9917C178.953 65.9917 177.617 67.4244 177.617 69.1917C177.617 70.9591 178.953 72.3918 180.601 72.3918Z" stroke="black" stroke-width="2" stroke-miterlimit="10" stroke-linecap="round" stroke-linejoin="round"/>
<path d="M180.601 72.3918C182.249 72.3918 183.585 70.9591 183.585 69.1917C183.585 67.4244 182.249 65.9917 180.601 65.9917C178.953 65.9917 177.617 67.4244 177.617 69.1917C177.617 70.9591 178.953 72.3918 180.601 72.3918Z" fill="black"/>
<path d="M190.909 62.4485C189.412 60.6786 185.908 59.4375 181.823 59.4375C178.576 59.4375 175.696 60.2222 173.899 61.4327" stroke="black" stroke-width="3" stroke-miterlimit="10" stroke-linecap="round" stroke-linejoin="round"/>
</svg>
