<svg width="702" height="942" viewBox="0 0 702 942" fill="none" xmlns="http://www.w3.org/2000/svg">
<path d="M257.169 214.338C234.734 223.355 212.927 232.057 192.379 253.76C167.637 279.972 158.201 311.531 150.339 337.848C144.048 358.922 141.008 376.956 139.54 389.328C144.153 388.384 165.855 384.19 184.411 397.611C191.016 402.434 195.314 408.095 198.04 412.499C200.242 392.263 202.548 372.028 204.75 351.688C206.637 349.486 208.524 347.179 210.411 344.977C222.573 366.052 229.911 384.924 234.629 399.078C242.911 424.347 246.266 446.05 248.573 461.882C249.831 470.584 250.669 477.819 251.194 482.956C313.363 481.593 358.863 482.327 393.984 483.9C410.863 484.634 431.412 485.787 445.46 472.576C459.928 459.051 468.001 430.008 471.67 416.588C475.234 403.587 476.388 394.989 483.097 392.054C491.275 388.489 502.493 395.514 511.299 402.748C511.404 402.224 511.509 401.595 511.614 400.651C513.186 391.005 518.428 356.091 514.549 324.637C512.452 307.652 506.896 260.89 470.831 230.065C457.097 218.322 443.992 213.289 430.573 208.152C353.412 179.214 278.661 205.74 257.169 214.338Z" fill="#1E1C1A"/>
<path d="M231.798 155.204C232.008 157.72 232.218 160.551 232.427 160.551C233.161 160.551 226.556 127.629 235.048 96.909C243.33 66.8179 267.234 34.8395 302.04 23.3063C313.887 19.4269 324.266 18.693 331.186 18.693C324.476 8.10344 325.839 5.48226 326.573 4.74833C329.508 1.49807 341.145 3.28046 347.121 10.0955C350.686 14.1846 351.21 18.9027 354.25 19.1124C356.242 19.2172 357.29 17.4348 359.911 14.9185C365.573 9.5713 374.274 5.37742 381.718 6.74044C384.444 7.26467 387.694 8.62767 387.694 10.0955C387.589 12.7167 375.742 12.1925 371.758 19.427C370.5 21.7336 370.395 24.0402 370.5 25.5081C374.484 24.4596 380.879 23.3063 388.428 24.7741C404.468 27.9195 416.42 41.0255 415.057 43.437C414.637 44.066 412.855 44.2757 407.299 42.3885C412.855 46.163 421.452 52.978 429.21 63.6724C444.097 84.3273 449.129 110.329 446.089 111.797C445.25 112.112 443.992 110.854 441.686 108.337C433.404 99.5302 430.887 90.4085 430.154 90.6182C429.105 90.9327 437.597 113.37 437.492 138.429C437.492 142.413 436.968 181.94 419.565 188.231C411.702 191.062 405.097 185.295 394.403 180.263C370.186 168.939 331.605 169.988 254.443 172.294C250.564 172.399 240.5 172.714 235.258 166.318C232.218 162.229 231.798 157.93 231.798 155.204Z" fill="#E2B97F"/>
<path d="M115.741 772.335C126.854 778.521 138.806 785.86 151.177 794.458C164.282 803.579 175.919 812.806 186.088 821.508C202.129 810.918 213.137 804.208 221.209 800.119C223.411 799.071 228.024 796.764 228.338 792.99C228.758 788.901 223.935 785.546 222.467 784.497C208.733 765.939 192.379 747.486 173.088 729.977C171.096 728.194 169.209 726.517 167.217 724.734C165.854 728.928 163.967 733.332 161.346 737.735C148.346 760.382 125.596 769.189 115.741 772.335ZM414.218 792.465C413.484 800.014 411.282 827.065 423.339 832.727C426.589 834.299 429.839 833.775 431.831 833.356C479.952 824.654 514.339 802.845 514.339 802.845C519.371 799.595 526.92 794.667 535.726 787.957C530.17 784.392 519.266 776.319 511.089 761.955C502.912 747.591 501.549 734.17 501.339 727.565C491.904 737.316 480.686 747.696 467.581 758.076C448.5 772.964 430.153 784.078 414.218 792.465ZM140.064 389.642C140.274 402.119 141.637 417.742 145.935 435.146C151.491 458.003 159.983 476.141 167.322 489.038C183.991 487.255 200.661 485.578 217.33 483.795C217.645 478.343 217.435 471.633 216.072 464.294C212.612 445.945 203.596 432.944 197.935 425.92C197.516 419 197.096 412.08 196.677 405.16C193.427 402.119 189.338 398.869 184.306 396.038C166.169 386.182 147.822 388.279 140.064 389.642ZM458.984 389.642C465.484 388.07 478.484 385.973 492.113 391.635C495.363 392.998 498.194 394.57 500.605 396.143C500.605 409.039 498.613 419.734 496.726 427.283C494.734 435.146 489.387 452.656 475.968 470.794C471.67 476.666 467.476 481.174 464.226 484.424C444.097 484.005 423.968 483.586 403.839 483.166C405.936 477.4 409.081 470.585 413.589 463.665C425.226 445.945 440.218 436.195 449.339 431.162C450.178 425.71 451.226 420.153 452.484 414.282C454.371 405.474 456.678 397.296 458.984 389.642ZM235.153 167.366C233.58 170.512 231.169 176.383 231.903 183.618C232.637 190.642 236.725 200.813 243.016 201.861C245.951 202.385 248.153 200.708 251.298 202.281C253.709 203.539 254.863 205.74 255.492 206.894C258.322 212.241 262.516 216.645 265.242 222.097C269.121 229.96 286.524 249.881 312.21 257.325C340.516 265.399 364.315 254.809 371.548 251.454C402.161 237.195 414.742 210.459 417.782 203.224C419.669 204.273 424.807 206.474 430.782 205.216C439.694 203.224 446.823 194.102 445.774 184.981C444.831 177.117 437.702 169.778 432.774 170.617C428.161 171.455 428.371 178.795 423.024 180.997C420.089 182.255 416.839 180.997 403.419 173.133C393.984 167.576 389.266 164.85 386.855 163.068C371.548 151.534 365.258 138.953 363.685 139.896C361.589 141.05 373.75 162.019 370.815 164.011C368.194 165.794 353.411 151.534 342.823 134.654C340.202 130.46 338.314 126.895 336.952 124.274C332.863 128.154 326.887 133.291 319.339 138.848C312.419 143.881 303.927 149.962 291.976 154.89C280.968 159.398 268.806 162.124 267.863 160.132C267.024 158.14 278.556 154.26 286.105 141.889C291.766 132.767 293.024 122.492 291.347 121.653C289.355 120.709 283.693 133.291 267.863 149.647C263.04 154.68 260.209 156.882 257.484 158.769C248.887 164.536 240.605 166.528 235.153 167.366Z" fill="#E0AF90"/>
<path d="M302.774 236.67C305.395 249.567 309.379 259.527 312.629 266.342C318.919 279.343 323.323 288.57 332.444 290.771C341.565 292.973 349.952 286.787 351.629 285.529C362.847 277.246 367.25 260.89 363.79 243.695C343.452 241.388 323.113 238.977 302.774 236.67Z" fill="#E0AF90"/>
<path d="M200.556 681.327C192.693 658.471 185.04 631.944 179.274 602.063C172.355 566.31 169.419 533.912 168.58 506.232C183.887 504.345 204.959 502.039 230.121 500.361C300.153 495.643 337.581 499.942 433.613 499.208C450.178 499.103 471.88 498.788 497.46 498.054C494.525 539.574 491.694 581.303 489.178 623.452C487.92 644.002 486.767 664.552 485.613 684.997C443.678 688.771 409.815 690.239 386.226 690.868C354.46 691.812 353.516 690.764 322.379 692.022C287.677 693.385 275.516 695.167 254.968 693.175C231.274 690.973 212.403 685.521 200.556 681.327Z" fill="#FF4F03"/>
<path d="M334.121 610.555C350.855 610.555 364.42 595.018 364.42 575.851C364.42 556.684 350.855 541.146 334.121 541.146C317.388 541.146 303.823 556.684 303.823 575.851C303.823 595.018 317.388 610.555 334.121 610.555Z" fill="#E5D2CC"/>
<path d="M143.943 924.153C145.306 908.321 148.556 895.321 151.387 886.094C157.258 867.326 164.282 856.108 178.225 833.775C185.145 822.661 193.113 811.023 198.145 812.596C201.29 813.54 201.29 819.097 203.806 819.411C207.161 819.83 207.79 807.039 216.282 795.087C219.427 790.683 222.677 787.642 224.984 785.755C232.532 792.151 240.919 798.547 249.935 805.047C256.54 809.765 262.935 814.169 269.226 818.153C265.451 821.823 259.685 827.065 252.347 833.146C240.185 843.211 231.693 848.663 224.25 853.696C207.58 865.229 193.008 878.65 163.758 905.386C155.475 913.249 148.556 919.75 143.943 924.153ZM403.21 795.087C400.065 799.91 396.291 807.459 395.766 816.895C395.242 826.96 398.702 833.985 406.355 851.18C418.621 878.859 416.839 877.077 420.089 882.949C430.573 902.24 445.775 912.411 474.92 933.485C479.533 936.735 484.46 940.195 487.396 938.518C490.331 936.84 489.807 930.654 484.25 907.378C484.25 907.378 475.025 868.689 463.073 851.285C459.613 846.252 456.258 843.736 454.371 842.582C451.331 840.695 448.605 839.751 445.67 838.808C442.629 837.864 438.121 836.711 432.565 836.292C431.936 830.001 431.202 824.653 430.678 820.669C428.895 807.983 427.428 802.216 424.492 796.345C422.291 792.151 420.823 789.215 417.678 788.271C410.968 786.175 403.629 794.562 403.21 795.087Z" fill="#FF4F03"/>
<path d="M418.412 202.175C418.621 202.28 418.412 203.014 418.097 204.482C417.887 205.216 417.678 206.055 417.363 207.103C416.944 208.152 416.525 209.305 416 210.668C415.476 212.031 414.742 213.394 414.008 214.967C413.275 216.54 412.226 218.112 411.178 219.895C410.654 220.733 410.024 221.677 409.395 222.516C408.766 223.355 408.137 224.298 407.403 225.242C405.936 227.024 404.468 229.016 402.686 230.799C401.008 232.791 399.016 234.573 397.024 236.565C395.976 237.509 394.928 238.453 393.774 239.396C392.726 240.34 391.468 241.179 390.315 242.122C385.492 245.792 380.041 249.252 373.96 252.292C372.387 253.026 370.92 253.865 369.347 254.494C367.774 255.228 366.202 255.962 364.524 256.486C361.17 257.849 357.815 259.003 354.25 259.946C347.121 261.938 339.468 263.301 331.5 263.301C327.516 263.301 323.637 262.987 319.758 262.358C315.984 261.729 312.21 260.89 308.645 259.632C301.516 257.325 295.016 254.18 289.25 250.51C283.484 246.84 278.556 242.646 274.258 238.348C270.064 234.049 266.5 229.645 263.669 225.347C257.903 216.854 254.548 209.305 252.661 203.958C250.774 198.611 250.145 195.57 250.46 195.465C250.774 195.36 252.032 198.191 254.548 203.224C256.96 208.257 260.734 215.386 266.71 223.25C269.645 227.234 273.21 231.323 277.403 235.307C281.597 239.291 286.419 243.171 291.871 246.526C297.323 249.881 303.508 252.817 310.218 254.914C313.573 255.962 317.032 256.801 320.597 257.325C324.161 257.849 327.831 258.269 331.5 258.164C338.839 258.164 346.073 257.011 352.887 255.123C356.242 254.18 359.597 253.131 362.742 251.873C364.315 251.349 365.887 250.615 367.46 249.986C369.032 249.357 370.5 248.623 371.968 247.994C377.839 245.163 383.186 242.017 387.799 238.662C388.952 237.824 390.105 236.985 391.258 236.146C392.307 235.307 393.46 234.364 394.404 233.525C396.395 231.742 398.387 230.065 400.065 228.282C407.089 221.363 411.387 214.547 414.113 209.724C414.742 208.466 415.371 207.418 415.895 206.474C416.315 205.531 416.734 204.692 417.154 204.063C417.783 202.805 418.202 202.175 418.412 202.175Z" fill="black" stroke="black" stroke-width="1.5" stroke-miterlimit="10"/>
<path d="M357.71 226.919C358.129 227.444 356.452 230.17 352.678 233.735C350.79 235.517 348.379 237.509 345.444 239.396C342.508 241.284 338.944 242.961 334.855 243.905C330.766 244.848 326.677 244.953 323.113 244.324C319.548 243.695 316.403 242.437 314.202 240.969C311.895 239.501 310.323 237.824 309.484 236.565C308.645 235.307 308.436 234.468 308.75 234.259C309.379 233.735 311.581 236.041 315.879 237.719C317.976 238.662 320.702 239.291 323.742 239.606C326.782 239.921 330.137 239.711 333.597 238.872C340.516 237.09 346.282 233.525 350.371 230.799C354.669 228.178 357.29 226.395 357.71 226.919ZM326.677 220.733C326.468 221.363 325.105 221.677 323.113 220.943C321.121 220.209 318.71 218.112 317.661 214.862C316.613 211.612 317.242 208.466 318.395 206.684C319.548 204.902 320.806 204.272 321.331 204.692C321.96 205.111 321.855 206.265 321.855 207.837C321.855 209.41 321.96 211.297 322.589 213.184C323.218 215.072 324.371 216.644 325.315 217.903C326.048 219.161 326.887 220.104 326.677 220.733ZM298.79 196.933C298.266 197.457 297.113 197.248 295.75 196.199C294.387 195.151 292.814 193.264 291.976 190.747C291.137 188.231 291.032 185.819 291.452 184.142C291.871 182.464 292.605 181.521 293.339 181.625C294.073 181.73 294.597 182.674 295.121 184.037C295.645 185.4 296.169 187.182 296.903 189.07C297.637 190.957 298.266 192.634 298.79 194.102C299.105 195.36 299.315 196.514 298.79 196.933ZM358.549 197.457C358.024 197.038 358.129 195.99 358.444 194.627C358.758 193.264 359.387 191.691 360.016 189.908C360.645 188.126 361.274 186.553 361.903 185.295C362.532 184.037 363.161 183.303 363.895 183.303C364.629 183.303 365.258 184.247 365.573 185.819C365.887 187.392 365.678 189.594 364.839 191.796C364 193.997 362.637 195.78 361.379 196.723C360.226 197.667 359.178 197.982 358.549 197.457ZM302.774 170.092C302.46 170.721 300.887 170.512 298.581 170.407C296.274 170.302 293.234 170.302 290.089 171.036C288.516 171.455 287.048 171.98 285.685 172.609C285.056 172.923 284.427 173.238 283.903 173.552C283.484 173.762 283.064 174.076 282.645 174.391C281.911 175.02 281.597 175.439 281.387 175.964C281.177 176.488 281.177 176.907 280.863 177.012C280.548 177.117 279.919 177.012 279.395 176.173C279.185 175.754 278.976 175.125 279.081 174.391C279.081 173.657 279.29 172.923 279.71 172.189C280.024 171.455 280.548 170.721 281.282 170.092C281.911 169.463 282.54 168.939 283.379 168.415C284.952 167.366 286.839 166.527 288.935 166.003C293.129 164.955 297.113 165.689 299.629 166.842C302.04 168.1 303.089 169.568 302.774 170.092ZM376.057 173.552C375.532 174.076 374.065 173.238 372.073 171.875C370.081 170.512 367.46 168.624 364.524 167.576C361.694 166.632 358.758 166.737 356.766 167.261C354.774 167.786 353.516 168.729 352.887 168.31C352.573 168.1 352.573 167.576 352.782 166.842C353.097 166.003 353.831 165.06 354.984 164.116C357.395 162.229 361.694 161.18 366.097 162.753C368.194 163.487 369.976 164.64 371.339 165.794C372.702 166.947 373.75 168.205 374.484 169.254C376.057 171.455 376.581 173.133 376.057 173.552ZM226.347 180.367C227.08 180.577 226.661 183.093 227.185 186.658C227.395 188.441 227.919 190.537 228.863 192.739C229.282 193.788 229.911 194.941 230.54 195.99C231.274 197.038 232.008 198.086 232.951 199.03C236.621 202.909 241.548 204.063 245.008 203.748C248.468 203.539 250.355 201.861 250.879 202.385C250.984 202.49 250.984 202.7 250.984 203.014C250.879 203.329 250.669 203.853 250.25 204.272C249.516 205.321 247.943 206.474 245.742 207.208C243.54 207.942 240.71 208.047 237.774 207.313C236.306 206.998 234.839 206.369 233.371 205.531C231.903 204.692 230.645 203.643 229.387 202.385C228.129 201.127 227.185 199.764 226.347 198.401C225.613 197.038 224.879 195.57 224.459 194.207C223.516 191.376 223.306 188.755 223.516 186.553C223.726 184.352 224.355 182.674 224.879 181.625C225.508 180.787 226.032 180.262 226.347 180.367ZM442.524 179.424C442.839 179.319 443.468 179.738 444.097 180.892C444.726 181.94 445.46 183.722 445.67 186.029C445.984 188.336 445.879 191.062 445.041 194.102C444.202 197.038 442.525 200.288 440.008 202.805C437.492 205.426 434.452 207.208 431.516 208.152C428.581 209.095 425.75 209.305 423.444 209.095C421.137 208.886 419.355 208.257 418.202 207.628C417.049 206.999 416.629 206.369 416.734 206.055C417.049 205.426 419.46 206.055 423.339 205.531C425.226 205.321 427.428 204.797 429.734 203.748C432.041 202.805 434.347 201.232 436.234 199.24C438.226 197.248 439.589 194.941 440.428 192.634C441.371 190.328 441.686 188.021 441.895 186.134C442.42 182.255 441.791 179.738 442.524 179.424ZM245.008 187.916C244.274 188.126 243.435 187.287 242.597 186.029C241.758 184.771 240.71 183.198 239.556 182.255C239.137 181.94 238.508 181.625 237.984 181.416C237.355 181.206 236.831 181.206 236.306 181.206C235.782 181.206 235.363 181.206 234.943 181.416C234.524 181.521 234.105 181.625 233.79 181.521C233.476 181.416 233.161 180.996 233.266 180.367C233.266 179.738 233.685 178.795 234.629 178.061C235.572 177.327 236.83 176.802 238.298 176.802C239.766 176.802 241.443 177.222 242.911 178.375C244.169 179.424 245.008 180.787 245.427 181.94C245.847 183.093 246.056 184.142 246.056 185.085C246.056 186.763 245.637 187.811 245.008 187.916Z" fill="black" stroke="black" stroke-width="1.5" stroke-miterlimit="10"/>
<path d="M237.669 194.731C237.04 194.836 236.201 194.417 235.677 193.263C235.258 192.11 235.258 190.328 236.096 188.65C236.935 186.973 238.403 185.924 239.556 185.61C240.814 185.295 241.653 185.714 241.863 186.344C242.177 186.973 241.967 187.811 241.653 188.545C241.338 189.279 241.024 190.118 240.605 190.957C240.185 191.796 239.766 192.53 239.242 193.263C238.927 193.997 238.403 194.626 237.669 194.731ZM423.339 195.36C422.71 195.256 422.081 194.102 422.081 192.11C422.081 190.118 422.919 187.497 424.702 185.085C426.484 182.674 428.79 181.206 430.678 180.577C432.565 179.948 433.823 180.158 434.137 180.892C434.452 181.521 433.718 182.464 432.67 183.722C431.621 184.876 430.258 186.448 428.895 188.231C427.532 190.013 426.484 191.796 425.645 193.159C424.702 194.417 423.968 195.36 423.339 195.36Z" fill="black" stroke="black" stroke-width="1.5" stroke-miterlimit="10"/>
<path d="M430.573 197.038C429.839 196.933 429.315 196.409 428.791 196.094C428.266 195.78 427.847 195.465 427.533 195.046C427.218 194.627 427.008 194.207 426.694 193.683C426.484 193.159 426.17 192.53 426.065 191.796C426.065 191.062 426.589 190.433 427.742 190.223C428.791 190.013 430.363 190.538 431.412 191.796C432.46 193.054 432.67 194.627 432.355 195.675C432.041 196.724 431.307 197.143 430.573 197.038ZM223.306 156.462C222.992 156.567 222.363 154.994 221.524 152.268C221.314 151.534 221.105 150.8 220.895 149.962C220.685 149.123 220.58 148.179 220.371 147.131C220.056 145.139 219.532 142.727 219.322 140.211C219.218 138.953 219.113 137.59 218.903 136.122C218.798 134.654 218.798 133.186 218.693 131.718C218.484 128.678 218.693 125.323 218.903 121.863C219.427 114.943 220.476 107.394 222.363 99.635C224.355 91.8763 227.08 84.7467 230.016 78.4559C231.589 75.4153 232.951 72.3748 234.629 69.7536C235.468 68.3906 236.097 67.1324 236.935 65.9791C237.774 64.8257 238.508 63.6724 239.242 62.6239C240.71 60.4222 242.177 58.6398 243.435 57.0671C244.064 56.2283 244.693 55.4943 245.322 54.8653C245.951 54.2362 246.476 53.6071 247 53.0828C249.097 50.9859 250.25 49.9374 250.564 50.252C250.879 50.4617 250.145 51.9295 248.572 54.341C248.153 54.9701 247.734 55.5992 247.314 56.3331C246.895 57.067 246.371 57.9058 245.847 58.7446C244.798 60.527 243.54 62.4142 242.387 64.616C241.758 65.6645 241.129 66.8178 240.395 68.076C239.766 69.2293 239.137 70.5923 238.403 71.9553C237.04 74.5765 235.782 77.5123 234.419 80.5528C231.903 86.7388 229.387 93.5539 227.395 100.998C225.508 108.442 224.355 115.677 223.621 122.282C223.411 125.637 222.992 128.783 222.992 131.718C222.992 133.186 222.887 134.654 222.887 136.017C222.887 137.38 222.887 138.743 222.887 140.001C222.887 142.518 223.097 144.824 223.097 146.816C223.097 147.865 223.201 148.808 223.201 149.647C223.306 150.486 223.306 151.325 223.411 152.059C223.621 154.68 223.621 156.357 223.306 156.462Z" fill="black" stroke="black" stroke-width="1.5" stroke-miterlimit="10"/>
<path d="M238.508 129.936C238.927 130.565 237.774 132.033 236.097 134.235C235.258 135.388 234.21 136.646 233.266 138.219C232.218 139.687 231.169 141.364 230.226 143.251C229.282 145.139 228.443 146.921 227.814 148.599C227.185 150.276 226.556 151.849 226.137 153.212C225.298 155.833 224.669 157.615 223.935 157.615C223.306 157.615 222.573 155.728 222.573 152.583C222.573 151.01 222.782 149.123 223.306 147.131C223.831 145.139 224.564 142.937 225.718 140.84C226.871 138.743 228.234 136.856 229.597 135.283C230.96 133.71 232.427 132.452 233.685 131.613C236.202 129.831 238.194 129.412 238.508 129.936ZM248.468 174.81C247.839 175.23 246.476 174.181 244.694 172.609C242.911 171.036 240.605 169.044 237.669 168.205C236.306 167.786 234.943 167.786 233.895 167.995C232.847 168.205 231.798 168.834 231.064 169.358C229.597 170.512 229.073 171.98 228.339 171.98C228.024 171.98 227.605 171.56 227.395 170.721C227.185 169.883 227.395 168.52 228.129 167.157C228.863 165.794 230.226 164.326 232.323 163.487C234.419 162.648 236.831 162.648 239.137 163.277C241.339 163.906 243.226 165.164 244.589 166.527C245.952 167.891 246.895 169.254 247.524 170.407C248.782 172.713 249.097 174.391 248.468 174.81Z" fill="black" stroke="black" stroke-width="1.5" stroke-miterlimit="10"/>
<path d="M232.637 162.019C232.113 162.438 230.645 161.809 229.072 159.817C228.339 158.874 227.605 157.615 226.976 156.043C226.347 154.47 225.927 152.793 225.822 150.905C225.718 149.018 225.822 147.236 226.242 145.558C226.661 143.985 227.185 142.622 227.814 141.469C229.072 139.267 230.435 138.428 230.96 138.743C231.589 139.058 231.484 140.525 231.274 142.622C231.169 143.671 231.064 144.824 230.96 146.187C230.96 147.55 230.96 148.913 231.064 150.486C231.169 151.954 231.379 153.422 231.693 154.68C232.008 155.938 232.218 157.091 232.532 158.14C232.847 160.132 233.161 161.6 232.637 162.019ZM295.121 113.894C295.645 114.314 294.073 117.983 290.613 123.435C288.936 126.161 286.734 129.307 284.113 132.767C281.492 136.122 278.452 139.791 275.097 143.356C271.742 146.921 268.282 150.171 265.137 153.002C261.887 155.833 258.847 158.245 256.226 160.132C250.984 163.906 247.314 165.689 247 165.165C246.161 164.011 258.218 153.946 271.427 139.896C284.637 125.847 293.863 113.055 295.121 113.894Z" fill="black" stroke="black" stroke-width="1.5" stroke-miterlimit="10"/>
<path d="M337.266 121.967C337.686 122.387 333.387 128.468 324.161 136.227C319.549 140.106 313.678 144.3 306.653 148.179C304.871 149.123 303.089 150.171 301.202 151.01C299.315 151.954 297.427 152.793 295.436 153.736C293.444 154.575 291.347 155.414 289.25 156.148C288.202 156.567 287.153 156.882 286 157.301C285.476 157.511 284.952 157.72 284.323 157.825C283.589 158.035 282.855 158.245 282.226 158.454L280.653 158.979L279.081 159.398C278.032 159.712 277.089 159.922 276.145 160.132C274.153 160.551 272.266 160.971 270.379 161.495C268.387 161.914 266.5 162.334 264.613 162.753L263.145 163.068L262.411 163.172H261.992C261.468 163.172 261.048 163.277 260.524 163.277C262.202 161.914 263.879 160.656 265.556 159.293C266.395 158.559 267.339 157.93 268.177 157.196L268.806 156.672L269.331 156.253L270.379 155.309C271.113 154.68 271.847 154.051 272.476 153.526L273.524 152.583L274.048 152.163C274.258 152.059 274.258 151.954 274.468 151.744C275.411 150.696 276.355 149.752 277.194 148.808C277.718 148.284 277.927 147.97 278.137 147.655C278.347 147.341 278.661 147.026 278.871 146.711C279.395 146.082 279.815 145.453 280.339 144.824C281.282 143.566 282.121 142.308 282.96 141.05C286.21 136.017 288.516 131.089 290.298 127C293.863 118.717 295.54 113.475 296.169 113.685C296.694 113.789 296.065 119.346 293.234 128.153C291.766 132.557 289.774 137.799 286.524 143.251C285.686 144.614 284.847 145.977 283.903 147.445C283.484 148.179 282.96 148.808 282.436 149.542C282.226 149.857 281.911 150.276 281.702 150.591C281.492 150.905 281.073 151.325 281.073 151.43C280.863 151.744 280.548 152.059 280.339 152.373C280.129 152.583 280.024 152.793 279.815 152.897C279.5 153.212 279.186 153.526 278.871 153.736L278.556 153.946L278.452 154.051H278.556L278.766 153.946C279.081 153.841 279.395 153.841 279.71 153.736C280.234 153.526 280.863 153.422 281.387 153.212L282.436 152.897C282.96 152.793 283.484 152.583 284.008 152.373C285.057 152.059 286.105 151.639 287.048 151.325C289.04 150.591 291.032 149.857 293.024 149.018C294.911 148.179 296.903 147.445 298.686 146.502C300.573 145.663 302.25 144.824 304.032 143.881C310.847 140.421 316.718 136.541 321.54 133.186C331.5 126.581 336.742 121.443 337.266 121.967ZM421.452 180.787C421.452 180.996 420.823 180.996 419.67 180.892C419.146 180.787 418.412 180.787 417.573 180.682C417.154 180.577 416.734 180.577 416.21 180.472C415.686 180.367 415.266 180.263 414.742 180.158C413.694 179.948 412.541 179.633 411.178 179.319C409.92 179.004 408.557 178.48 407.089 177.956C405.621 177.536 404.049 176.803 402.476 176.173C400.799 175.544 399.121 174.706 397.339 173.867C395.557 173.028 393.774 171.98 391.887 170.931C390.944 170.407 390 169.778 389.057 169.149C388.113 168.52 387.17 167.891 386.226 167.261C385.283 166.528 384.339 165.898 383.395 165.165C382.871 164.85 382.452 164.431 381.928 164.116C381.508 163.697 380.984 163.382 380.565 162.963C379.621 162.124 378.678 161.39 377.734 160.551C376.791 159.712 375.847 158.769 374.903 157.93C373.96 157.091 373.016 156.043 372.178 155.099C371.234 154.156 370.291 153.107 369.452 152.059C368.613 151.01 367.67 149.962 366.831 148.808C365.992 147.655 365.153 146.502 364.315 145.348C361.065 140.63 358.129 135.493 355.613 129.936L360.541 128.573L360.75 129.726C362.428 141.469 366.412 152.163 371.549 160.971L376.266 169.044L368.299 164.221C364.839 162.124 361.903 159.712 359.178 157.196C356.557 154.68 354.25 152.163 352.258 149.542C348.274 144.405 345.444 139.582 343.242 135.388C338.944 127.105 337.266 121.967 337.686 121.758C338.21 121.548 340.831 126.266 345.653 133.92C348.17 137.695 351.21 142.308 355.194 146.921C359.178 151.639 364.315 156.253 370.605 160.027L367.355 163.277C361.694 154.051 357.291 142.727 355.508 130.355L355.299 129.097L352.782 110.854L360.226 127.734C362.532 132.976 365.258 137.799 368.299 142.308C369.032 143.356 369.871 144.51 370.605 145.558C371.444 146.607 372.283 147.655 373.016 148.599C373.75 149.647 374.694 150.591 375.533 151.534C376.371 152.478 377.21 153.422 378.049 154.26C378.887 155.099 379.831 156.043 380.67 156.882C381.508 157.72 382.452 158.454 383.291 159.293C383.71 159.712 384.129 160.027 384.549 160.446C384.968 160.866 385.492 161.18 385.912 161.495C386.855 162.229 387.694 162.963 388.533 163.592C389.371 164.221 390.315 164.85 391.154 165.479C391.992 166.108 392.831 166.737 393.774 167.261C395.557 168.31 397.129 169.463 398.807 170.407C400.484 171.351 401.952 172.294 403.525 172.923C405.097 173.657 406.46 174.496 407.823 175.02C409.186 175.649 410.444 176.173 411.702 176.698C412.96 177.117 414.008 177.536 415.057 177.956C415.581 178.166 416 178.375 416.42 178.48C416.839 178.585 417.258 178.795 417.678 178.899C418.412 179.214 419.146 179.424 419.67 179.633C420.928 180.367 421.452 180.577 421.452 180.787ZM157.677 280.496C157.363 280.287 157.887 278.714 159.04 275.988C159.355 275.254 159.669 274.52 160.088 273.681C160.508 272.843 160.927 272.004 161.451 271.06C162.5 269.173 163.548 267.076 165.121 264.769C165.855 263.616 166.588 262.463 167.427 261.205C168.266 259.946 169.209 258.793 170.048 257.535C171.83 254.914 174.032 252.397 176.339 249.671C181.056 244.324 186.613 238.872 193.008 233.63C199.403 228.492 206.008 224.194 212.193 220.734C215.339 219.056 218.274 217.483 221.21 216.225C222.677 215.596 224.04 214.967 225.403 214.443C226.766 213.918 228.129 213.394 229.387 212.975C231.903 212.031 234.21 211.402 236.306 210.773C237.355 210.459 238.298 210.249 239.137 210.039C240.081 209.829 240.814 209.725 241.548 209.515C244.484 208.991 246.161 208.781 246.266 209.2C246.371 209.515 244.903 210.354 242.177 211.507C241.443 211.822 240.71 212.136 239.871 212.451C239.032 212.765 238.193 213.185 237.25 213.604C235.363 214.443 233.161 215.281 230.75 216.435C229.597 216.959 228.339 217.588 227.081 218.217C225.822 218.846 224.46 219.58 223.097 220.209C220.371 221.572 217.54 223.25 214.605 224.927C208.734 228.492 202.443 232.686 196.258 237.719C190.072 242.751 184.621 247.889 179.903 252.922C177.597 255.438 175.395 257.849 173.403 260.261C172.459 261.414 171.411 262.568 170.572 263.721C169.734 264.874 168.895 265.923 168.056 266.971C166.379 268.963 165.121 270.955 163.863 272.633C163.234 273.472 162.709 274.31 162.185 274.94C161.661 275.673 161.242 276.407 160.822 276.932C159.04 279.343 157.992 280.601 157.677 280.496ZM163.234 487.884C163.024 488.094 160.613 486.836 156.943 483.271C153.379 479.706 148.871 473.835 144.992 465.761C143 461.777 141.113 457.269 139.33 452.341C138.492 449.93 137.548 447.308 136.709 444.687C135.871 442.066 135.032 439.235 134.193 436.509C131.048 425.186 128.532 412.499 127.379 398.869C126.121 385.344 126.435 372.343 127.798 360.6C129.161 348.857 131.572 338.582 134.088 329.984C136.814 321.492 139.645 314.886 141.846 310.483C144.153 306.079 145.621 303.773 145.935 303.877C146.774 304.297 142.056 314.152 137.548 330.928C135.451 339.421 133.459 349.591 132.411 361.019C131.363 372.447 131.258 385.134 132.411 398.345C133.564 411.555 135.871 424.032 138.701 435.146C139.435 437.872 140.169 440.598 140.903 443.219C141.637 445.841 142.476 448.357 143.314 450.768C144.887 455.696 146.564 460.1 148.242 464.084C151.597 472.052 155.371 477.924 158.411 481.803C161.451 485.682 163.443 487.57 163.234 487.884ZM214.605 357.664C213.242 358.188 209.782 351.688 204.016 344.873C198.355 338.058 192.589 333.549 193.322 332.186C193.637 331.557 195.629 331.976 198.46 333.549C201.29 335.017 204.75 337.848 207.895 341.518C211.04 345.292 213.137 349.276 214.081 352.212C215.234 355.357 215.234 357.454 214.605 357.664Z" fill="black" stroke="black" stroke-width="1.5" stroke-miterlimit="10"/>
<path d="M198.04 414.386C197.411 414.491 196.153 410.821 195.838 404.74C195.629 401.7 195.838 398.03 196.153 394.046C196.572 390.062 197.201 385.763 198.04 381.255C201.185 363.326 204.855 348.962 206.217 349.276C207.58 349.486 206.217 364.269 203.072 382.198C202.234 386.707 201.5 390.9 200.871 394.675C200.242 398.449 199.717 401.909 199.403 404.845C198.774 410.612 198.774 414.281 198.04 414.386ZM219.008 480.859C218.274 480.964 217.121 476.77 215.024 470.06C213.975 466.705 212.717 462.826 211.04 458.527C210.201 456.43 209.258 454.228 208.314 451.922C207.371 449.615 206.322 447.203 205.169 444.897C202.863 440.179 200.346 435.985 197.621 432.42C194.895 428.855 192.169 425.815 189.758 423.403C184.83 418.58 181.371 415.959 181.685 415.33C182 414.806 186.298 416.273 192.064 420.677C195 422.879 198.145 425.815 201.29 429.484C204.435 433.154 207.371 437.662 209.782 442.695C211.04 445.211 211.984 447.623 212.927 450.034C213.871 452.341 214.709 454.752 215.443 457.059C216.911 461.567 217.959 465.761 218.484 469.326C219.847 476.351 219.637 480.754 219.008 480.859ZM245.322 481.593C243.855 481.908 237.25 451.712 226.766 415.225C216.492 378.633 206.322 349.591 207.685 349.066C208.314 348.857 211.669 355.777 216.282 367.415C220.895 379.053 226.556 395.409 231.693 413.757C236.935 432.105 240.709 448.986 242.911 461.358C245.113 473.73 245.951 481.384 245.322 481.593ZM500.081 430.742C499.871 430.638 500.186 429.799 500.71 428.121C501.025 427.282 501.444 426.339 501.758 425.081C502.178 423.927 502.702 422.459 503.226 420.887C505.323 414.596 507.944 405.474 509.726 393.836C511.613 382.198 512.662 368.149 512.662 352.526C512.662 336.904 512.138 319.709 508.783 302.095C505.428 284.585 499.242 268.439 490.541 255.752C486.242 249.357 481.42 243.905 476.283 239.396C471.25 234.783 466.008 231.113 460.976 227.968C456.049 224.823 451.331 222.201 447.137 220.104C442.944 217.903 439.379 216.12 436.339 214.652C430.363 211.717 427.113 209.934 427.323 209.62C427.428 209.305 430.992 210.458 437.178 212.87C440.323 214.128 444.097 215.596 448.395 217.588C452.694 219.58 457.621 221.992 462.758 224.927C468 227.968 473.452 231.638 478.904 236.251C484.355 240.864 489.597 246.631 494.21 253.131C503.541 266.342 510.146 283.118 513.605 301.151C517.065 319.29 517.379 336.799 517.17 352.631C516.96 368.463 515.492 382.722 513.081 394.465C510.775 406.208 507.525 415.54 504.799 421.621C504.065 423.089 503.436 424.452 502.912 425.605C502.388 426.758 501.759 427.702 501.339 428.436C500.815 430.113 500.291 430.847 500.081 430.742ZM460.871 357.14C460.137 357.349 459.194 355.672 457.516 353.26C457.097 352.631 456.678 352.002 456.154 351.373C455.734 350.639 455.105 350.01 454.581 349.276C453.428 347.808 451.96 346.34 450.387 344.873C448.815 343.405 447.137 342.251 445.565 341.203C444.726 340.679 443.992 340.154 443.258 339.84C442.524 339.42 441.895 339.001 441.162 338.687C438.645 337.324 436.863 336.485 436.968 335.751C437.073 335.122 439.065 334.598 442.315 335.227C443.154 335.331 443.992 335.541 444.936 335.96C445.879 336.275 446.823 336.694 447.766 337.114C449.758 338.057 451.75 339.42 453.637 341.098C455.525 342.776 456.992 344.663 458.25 346.55C458.775 347.494 459.299 348.332 459.718 349.276C460.137 350.115 460.452 350.954 460.662 351.792C461.71 354.833 461.5 356.93 460.871 357.14Z" fill="black" stroke="black" stroke-width="1.5" stroke-miterlimit="10"/>
<path d="M446.823 431.371C445.355 430.847 451.331 412.08 452.17 388.07C453.218 364.164 448.71 344.873 450.178 344.558C450.807 344.348 452.799 348.962 454.581 356.93C454.791 357.874 455 358.922 455.21 360.075C455.42 361.124 455.629 362.277 455.839 363.43C456.258 365.737 456.468 368.253 456.783 370.979C457.307 376.327 457.517 382.198 457.307 388.384C457.097 394.57 456.363 400.442 455.525 405.684C455 408.305 454.581 410.821 453.952 413.128C453.637 414.281 453.428 415.435 453.113 416.483C452.799 417.532 452.484 418.58 452.17 419.524C449.758 427.178 447.452 431.581 446.823 431.371Z" fill="black" stroke="black" stroke-width="1.5" stroke-miterlimit="10"/>
<path d="M399.645 485.368C399.016 485.053 400.694 480.65 404.363 474.149C408.032 467.649 413.694 458.842 421.347 450.349C425.226 446.05 429.21 442.276 433.089 439.13C435.081 437.558 436.968 436.09 438.75 434.936C439.694 434.307 440.532 433.678 441.476 433.154C442.315 432.63 443.258 432.106 443.992 431.686C450.597 427.912 455.105 426.653 455.42 427.283C455.734 428.016 451.855 430.428 445.984 434.727C445.25 435.251 444.516 435.88 443.678 436.404C442.944 437.033 442.105 437.662 441.266 438.396C439.589 439.655 437.911 441.227 436.129 442.8C432.565 446.05 428.895 449.72 425.121 453.914C417.678 462.197 411.702 470.375 407.298 476.246C403 482.013 400.274 485.682 399.645 485.368ZM478.694 478.762C478.17 478.238 480.371 475.198 483.621 470.165C484.041 469.536 484.46 468.907 484.879 468.173C485.299 467.439 485.718 466.705 486.137 465.971C487.081 464.503 487.92 462.826 488.863 461.043C490.645 457.583 492.533 453.599 494.315 449.405C497.774 441.018 500.291 433.049 502.178 427.283C504.065 421.516 505.428 417.951 506.057 418.056C506.686 418.161 506.686 422.04 505.637 428.121C504.589 434.202 502.597 442.59 499.033 451.293C497.25 455.696 495.154 459.68 492.952 463.245C491.799 465.028 490.855 466.705 489.702 468.173C489.178 468.907 488.653 469.641 488.129 470.27C487.605 470.899 487.081 471.528 486.557 472.157C482.363 476.98 479.113 479.182 478.694 478.762ZM179.169 685.207C178.54 685.416 175.395 675.456 171.306 659.309C167.217 643.163 162.08 620.621 157.362 595.667C152.645 570.609 149.185 547.857 147.193 531.291C145.096 514.725 144.467 504.45 145.096 504.345C145.83 504.24 147.822 514.411 150.758 530.767C153.693 547.123 157.677 569.77 162.395 594.724C167.112 619.677 171.62 642.219 174.766 658.575C178.016 674.932 179.903 685.102 179.169 685.207Z" fill="black" stroke="black" stroke-width="1.5" stroke-miterlimit="10"/>
<path d="M496.202 483.795C496.202 484.11 491.484 484.739 482.783 485.682C478.484 486.207 473.137 486.416 466.952 486.836C460.766 487.255 453.742 487.465 445.879 487.674C430.258 488.094 411.702 488.094 391.048 487.674C370.395 487.255 347.75 486.521 324.056 485.892C300.258 485.263 277.718 485.053 257.169 485.473C236.621 485.892 218.169 486.941 202.653 488.304C187.137 489.667 174.661 491.344 166.064 492.393C157.467 493.546 152.645 494.175 152.54 493.756C152.435 493.441 157.153 492.183 165.749 490.401C174.346 488.723 186.822 486.521 202.338 484.634C217.854 482.747 236.411 481.384 257.064 480.65C277.718 479.916 300.468 480.021 324.266 480.65C348.064 481.279 370.71 482.118 391.258 482.852C411.807 483.481 430.363 483.795 445.879 483.9C453.637 483.9 460.662 483.9 466.847 483.795C473.033 483.69 478.379 483.69 482.678 483.481C491.379 483.376 496.202 483.481 496.202 483.795ZM485.508 684.473C484.774 684.368 485.508 673.568 486.871 655.954C488.234 638.445 490.331 614.225 492.218 587.489C494.105 560.753 495.573 536.533 496.726 519.024C497.879 501.514 498.718 490.61 499.452 490.61C500.186 490.61 500.605 501.514 500.396 519.129C500.186 536.743 499.347 561.068 497.355 587.908C495.363 614.749 492.847 638.864 490.436 656.374C488.234 673.883 486.242 684.577 485.508 684.473ZM469.992 687.828C469.992 688.142 466.113 688.666 459.089 689.296C452.065 689.925 441.791 690.659 429.105 691.392C403.839 692.965 368.823 694.748 330.242 696.32C310.952 697.054 292.5 698.103 275.621 697.683C258.742 697.264 243.645 695.167 231.169 693.594C218.588 692.022 208.419 690.659 201.395 689.61C194.371 688.562 190.492 687.828 190.596 687.408C190.596 687.094 194.58 687.094 201.604 687.618C208.629 688.142 218.903 688.876 231.484 690.029C244.064 691.078 259.056 692.86 275.621 692.965C292.185 693.07 310.637 691.917 329.927 691.183C368.508 689.505 403.524 688.352 428.895 687.723C441.581 687.408 451.855 687.303 458.879 687.303C465.904 687.303 469.992 687.513 469.992 687.828ZM314.306 599.337C314.516 599.232 314.935 599.861 315.774 600.909C316.613 601.958 317.976 603.426 319.968 604.789C321.96 606.257 324.685 607.62 328.145 608.354C331.5 609.088 335.589 609.192 339.677 607.829C343.766 606.466 347.855 603.845 351.21 599.966C352.887 598.079 354.355 595.877 355.613 593.36C356.766 590.949 357.71 588.223 358.339 585.392C359.492 579.73 359.492 573.439 358.339 567.149C357.815 564.003 356.871 560.858 355.718 557.922C354.46 554.986 352.887 552.051 350.685 549.744C348.589 547.333 345.968 545.655 343.137 544.606C340.306 543.663 337.161 543.348 334.226 543.768C328.25 544.397 322.903 547.647 318.814 551.631C314.726 555.72 311.895 560.543 310.008 565.471C308.226 570.294 307.492 575.222 307.597 579.625C307.702 584.029 308.75 587.908 310.218 591.159C311.581 594.409 313.363 597.03 314.935 598.917C318.185 602.797 320.702 604.265 320.387 604.684C320.282 604.789 319.548 604.579 318.395 603.95C317.137 603.321 315.46 602.168 313.468 600.28C311.476 598.393 309.379 595.772 307.597 592.417C305.814 589.062 304.347 584.763 303.927 579.835C303.508 575.012 304.137 569.56 305.919 564.108C306.863 561.382 308.121 558.656 309.589 556.035C311.161 553.414 313.048 550.792 315.25 548.486C317.556 546.074 320.177 543.977 323.218 542.3C326.258 540.622 329.718 539.364 333.387 538.945C337.056 538.525 340.935 538.735 344.605 539.993C348.274 541.251 351.734 543.558 354.355 546.494C356.976 549.429 358.863 552.785 360.226 556.14C361.589 559.495 362.532 563.06 363.056 566.52C364.21 573.335 364.21 580.255 362.637 586.65C361.903 589.796 360.75 592.836 359.282 595.562C357.815 598.288 356.032 600.805 354.04 602.902C350.056 607.2 345.234 610.031 340.411 611.394C335.589 612.757 330.871 612.338 327.097 611.184C323.323 610.031 320.387 608.249 318.395 606.361C316.403 604.474 315.145 602.692 314.621 601.434C314.306 600.071 314.097 599.337 314.306 599.337ZM151.701 553.518C151.806 553.833 149.395 555.406 144.887 557.817C143.733 558.446 142.475 559.075 141.112 559.809C139.749 560.543 138.282 561.382 136.709 562.326C133.564 564.108 129.895 566.1 126.016 568.512C124.024 569.665 122.032 570.923 119.83 572.181C117.733 573.439 115.532 574.907 113.225 576.375C108.612 579.206 103.999 582.561 98.9671 585.916C89.1123 592.941 78.6283 601.014 68.1444 610.241C57.6605 619.467 48.3299 628.799 40.0476 637.606C36.0637 642.114 32.0798 646.308 28.725 650.502C27.0476 652.599 25.2653 654.486 23.6927 656.478C22.1201 658.47 20.6524 660.358 19.2895 662.14C16.354 665.705 13.9427 669.06 11.7411 671.996C10.6927 673.464 9.64428 674.827 8.70073 676.085C7.75718 677.343 6.91847 678.496 6.1846 679.545C3.14427 683.739 1.36201 685.94 1.0475 685.731C0.73298 685.521 1.99104 683.005 4.50717 678.496C5.1362 677.343 5.87008 676.085 6.60395 674.722C7.44266 673.359 8.38622 671.996 9.32977 670.423C11.3217 667.382 13.5233 663.818 16.2491 660.043C17.6121 658.156 18.975 656.164 20.4427 654.172C21.9105 652.18 23.5879 650.083 25.2653 647.986C28.5153 643.687 32.3944 639.283 36.3782 634.67C44.5557 625.548 53.9911 615.903 64.5799 606.571C75.2735 597.24 85.9671 589.167 96.1365 582.247C101.274 578.892 106.096 575.641 110.814 572.915C113.12 571.552 115.427 570.189 117.628 568.931C119.83 567.778 122.032 566.624 124.024 565.471C128.112 563.269 131.887 561.487 135.241 559.914C136.919 559.18 138.491 558.446 139.854 557.817C141.322 557.188 142.685 556.664 143.838 556.245C148.87 554.148 151.596 553.204 151.701 553.518ZM176.653 824.024C176.233 824.653 165.54 818.467 148.451 808.087C131.362 797.708 108.088 783.029 82.4025 766.673C69.6122 758.495 57.4509 750.526 46.3379 743.292C40.7815 739.622 35.6443 736.162 30.7169 733.017C25.8943 729.767 21.1766 726.831 17.1927 723.685C13.2088 720.54 9.85398 717.185 7.44268 713.83C5.03138 710.475 3.56365 707.12 2.82977 704.394C1.99106 701.563 1.99105 699.361 2.09589 697.788C2.20073 696.32 2.51524 695.482 2.62008 695.482C2.82976 695.482 2.9346 696.32 3.14428 697.683C3.35395 699.151 3.77332 701.143 4.82171 703.66C5.76526 706.176 7.44267 709.112 9.85396 712.047C12.2653 714.983 15.5153 717.919 19.4992 720.75C23.483 723.581 28.2008 726.307 33.1282 729.452C38.0557 732.597 43.4024 735.848 49.0637 739.413C60.2815 746.437 72.4429 754.196 85.3381 762.374C110.919 778.835 133.983 793.933 150.548 805.047C167.008 816.161 177.072 823.395 176.653 824.024ZM272.476 819.83C272.266 820.145 269.33 818.677 263.984 815.846C263.355 815.532 262.621 815.112 261.887 814.693C261.153 814.273 260.419 813.749 259.685 813.33C258.113 812.386 256.435 811.338 254.653 810.184C253.709 809.555 252.766 809.031 251.822 808.402C250.879 807.773 249.935 807.039 248.887 806.305C246.895 804.942 244.798 803.369 242.596 801.797C234 795.296 224.25 786.908 213.975 777.053C203.701 767.197 193.008 755.769 182.104 743.606C171.201 731.444 160.927 719.701 151.387 709.321C148.975 706.7 146.669 704.184 144.362 701.772C142.056 699.361 139.854 696.949 137.653 694.748C133.354 690.239 129.161 686.255 125.072 682.9C120.983 679.65 116.999 677.028 113.33 675.141C109.661 673.254 106.201 672.205 103.37 671.472C97.6042 670.318 94.3542 670.738 94.2494 670.318C94.1445 670.109 97.4994 668.955 103.685 669.479C106.725 669.899 110.499 670.738 114.483 672.52C118.467 674.198 122.87 676.819 127.274 680.069C131.677 683.319 136.08 687.303 140.693 691.707C142.895 693.909 145.201 696.215 147.612 698.627C150.024 701.038 152.33 703.555 154.846 706.071C164.596 716.346 174.975 727.984 185.879 740.146C196.782 752.309 207.266 763.737 217.225 773.698C227.185 783.658 236.621 792.151 244.798 798.966C261.467 812.386 273 819.096 272.476 819.83ZM132.83 927.299C132.516 927.299 132.201 925.516 132.201 922.266C132.201 919.016 132.62 914.402 133.878 908.846C135.137 903.184 137.128 896.788 139.854 889.763C142.58 882.739 146.04 875.19 150.233 867.536C158.62 852.228 168.58 839.856 176.443 831.678C184.306 823.5 190.072 819.306 190.492 819.83C191.016 820.354 186.193 825.492 179.169 834.089C172.145 842.792 162.919 855.164 154.741 870.052C150.653 877.496 147.193 884.731 144.257 891.546C141.427 898.361 139.016 904.547 137.443 909.789C133.983 920.379 133.564 927.299 132.83 927.299ZM263.564 828.218C263.984 828.847 256.016 833.67 243.75 841.953C231.484 850.236 214.919 862.293 198.04 877.391C189.653 884.94 181.895 892.384 175.08 899.514C173.403 901.297 171.725 902.974 170.153 904.756C168.58 906.434 167.008 908.112 165.54 909.684C162.604 912.935 159.669 915.87 156.838 918.491C154.008 921.008 151.282 923.21 148.661 924.782C146.04 926.46 143.628 927.404 141.532 928.137C137.443 929.396 134.927 929.291 134.927 928.976C134.822 928.557 137.128 928.033 140.798 926.25C142.58 925.306 144.782 924.153 146.983 922.371C149.29 920.693 151.701 918.491 154.217 915.87C156.733 913.249 159.354 910.208 162.185 906.853C163.548 905.176 165.12 903.498 166.588 901.716C168.161 899.933 169.733 898.151 171.411 896.264C178.121 888.925 185.774 881.166 194.371 873.617C211.459 858.309 228.653 846.566 241.548 838.913C254.758 831.364 263.25 827.694 263.564 828.218ZM549.146 690.449C549.25 691.183 546.105 692.022 540.968 692.651C535.831 693.28 528.702 693.489 520.734 692.756C512.871 692.022 505.847 690.554 500.92 688.981C495.992 687.408 493.057 685.94 493.266 685.311C493.686 683.844 505.952 686.36 521.154 687.723C536.565 689.191 549.041 688.981 549.146 690.449ZM700.952 716.766C700.009 717.185 694.557 703.345 681.243 683.739C679.565 681.327 677.783 678.811 675.896 676.085C673.904 673.568 671.912 670.842 669.815 668.116C665.517 662.664 660.694 657.003 655.452 651.236C644.864 639.703 632.388 627.855 618.339 616.427C604.291 604.998 590.242 595.038 577.138 586.336C564.033 577.738 551.976 570.399 541.492 564.947C520.525 553.938 505.952 550.897 506.162 550.059C506.266 549.744 509.936 550.163 516.436 551.736C522.936 553.414 532.267 556.454 543.065 561.592C553.968 566.729 566.339 573.754 579.759 582.247C593.073 590.739 607.436 600.7 621.589 612.338C635.743 623.976 648.428 636.033 658.912 647.986C664.259 653.857 668.872 659.834 673.17 665.495C675.267 668.326 677.259 671.157 679.146 673.778C680.928 676.504 682.606 679.23 684.283 681.747C685.96 684.263 687.323 686.779 688.686 689.086C689.315 690.239 689.944 691.393 690.573 692.546C691.202 693.699 691.831 694.748 692.356 695.796C693.404 697.893 694.348 699.885 695.291 701.772C696.13 703.66 697.073 705.232 697.598 706.805C700.009 713.096 701.267 716.556 700.952 716.766Z" fill="black" stroke="black" stroke-width="1.5" stroke-miterlimit="10"/>
<path d="M626.727 655.64C626.727 655.849 625.888 656.164 624.106 656.688C623.267 656.898 622.219 657.212 620.961 657.527C620.332 657.632 619.598 657.842 618.969 658.051C618.235 658.261 617.501 658.471 616.662 658.68C615.089 659.1 613.202 659.624 611.315 660.253C609.323 660.882 607.227 661.616 605.025 662.35C604.501 662.56 603.872 662.769 603.243 662.979C602.614 663.189 602.089 663.398 601.46 663.713C600.307 664.132 599.049 664.657 597.791 665.181C595.275 666.124 592.654 667.383 589.928 668.536C589.194 668.85 588.565 669.165 587.831 669.48C587.097 669.794 586.468 670.214 585.735 670.528C584.372 671.262 582.904 671.891 581.436 672.625C579.968 673.359 578.501 674.198 577.033 674.932C575.565 675.77 573.993 676.504 572.42 677.448C569.38 679.23 566.13 681.013 562.985 683.11C561.412 684.158 559.735 685.102 558.162 686.15C556.589 687.199 554.912 688.352 553.235 689.401C540.025 698.313 526.186 709.217 512.033 721.169C497.88 733.122 484.46 744.655 471.775 754.616C465.484 759.648 459.299 764.157 453.428 768.35C450.492 770.447 447.662 772.335 444.831 774.222C443.468 775.165 442 776.004 440.742 776.843C440.113 777.262 439.379 777.682 438.75 778.101C438.121 778.521 437.387 778.94 436.758 779.255C431.516 782.4 426.694 785.021 422.291 787.223C420.089 788.271 418.097 789.32 416.21 790.159C414.323 790.997 412.541 791.731 410.968 792.361C410.129 792.675 409.395 792.99 408.766 793.304C408.033 793.514 407.403 793.828 406.774 794.038C405.516 794.457 404.468 794.877 403.629 795.087C401.952 795.611 401.008 795.82 400.904 795.716C400.589 794.877 414.637 789.53 434.871 776.214C435.5 775.795 436.129 775.375 436.758 774.956C437.387 774.536 438.016 774.117 438.646 773.593C439.904 772.649 441.266 771.81 442.629 770.867C445.355 768.98 448.081 766.987 451.017 764.891C456.678 760.592 462.758 755.979 468.944 750.946C481.315 740.881 494.63 729.242 508.888 717.29C523.146 705.337 537.194 694.433 550.718 685.521C552.396 684.473 554.073 683.319 555.751 682.271C557.428 681.223 559.105 680.279 560.783 679.23C564.033 677.238 567.388 675.456 570.533 673.778C572.106 672.939 573.678 672.206 575.251 671.367C576.823 670.633 578.291 669.794 579.864 669.06C581.436 668.326 582.904 667.697 584.372 667.068C585.106 666.754 585.839 666.439 586.573 666.124C587.307 665.81 588.041 665.495 588.775 665.286C591.606 664.237 594.331 662.979 596.952 662.245C598.315 661.826 599.573 661.406 600.727 660.987C601.356 660.777 601.985 660.568 602.509 660.358C603.138 660.148 603.767 660.043 604.291 659.834C606.598 659.205 608.799 658.575 610.896 658.051C612.888 657.632 614.775 657.212 616.452 656.898C617.291 656.688 618.13 656.583 618.864 656.478C619.598 656.374 620.332 656.269 620.961 656.164C622.219 655.954 623.372 655.849 624.315 655.849C625.783 655.43 626.727 655.43 626.727 655.64ZM489.492 940.929C489.388 941.243 487.081 940.51 483.097 938.832C482.049 938.413 481 937.888 479.742 937.364C478.589 936.84 477.331 936.106 475.968 935.372C473.242 933.904 470.097 932.332 466.847 930.13C465.17 929.081 463.492 927.928 461.71 926.775C459.928 925.621 458.25 924.258 456.363 922.895C455.42 922.161 454.476 921.532 453.533 920.798C453.113 920.484 452.589 920.064 452.065 919.75C451.646 919.33 451.121 918.911 450.702 918.597C448.815 917.024 446.928 915.346 444.936 913.669C437.283 906.644 429.525 898.361 422.395 888.715C415.371 879.069 409.71 869.109 405.202 859.777C404.153 857.366 403.21 855.059 402.161 852.857C401.952 852.333 401.637 851.704 401.428 851.18C401.218 850.655 401.008 850.026 400.799 849.502C400.379 848.349 399.96 847.3 399.645 846.147C398.912 843.945 398.073 841.953 397.444 839.856C396.92 837.759 396.291 835.872 395.766 833.985C394.613 830.21 394.089 826.75 393.46 823.71C393.145 822.137 392.831 820.774 392.726 819.516C392.621 818.153 392.412 817 392.307 815.951C391.887 811.652 391.782 809.241 392.202 809.136C392.621 809.031 393.25 811.443 394.299 815.532C394.508 816.58 394.823 817.734 395.137 818.992C395.452 820.25 395.871 821.613 396.291 823.081C397.129 826.016 397.968 829.371 399.331 832.936C399.96 834.719 400.589 836.606 401.218 838.598C401.952 840.59 402.791 842.582 403.629 844.679C404.049 845.728 404.468 846.776 404.887 847.825C405.097 848.349 405.307 848.873 405.516 849.397C405.726 849.922 406.041 850.446 406.25 850.97C407.299 853.172 408.347 855.374 409.395 857.68C413.904 866.697 419.565 876.238 426.379 885.57C433.299 894.901 440.847 903.079 448.081 910.104C449.968 911.781 451.75 913.459 453.533 915.032C453.952 915.451 454.371 915.87 454.896 916.185C455.315 916.604 455.839 916.919 456.258 917.338C457.202 918.072 458.041 918.806 458.879 919.54C460.662 920.903 462.234 922.371 463.912 923.629C465.589 924.887 467.267 926.041 468.734 927.194C471.775 929.501 474.71 931.283 477.331 932.961C478.589 933.799 479.742 934.638 480.896 935.267C482.049 935.896 483.097 936.525 483.936 937.05C487.605 939.251 489.597 940.614 489.492 940.929ZM493.896 931.807C493.162 931.807 492.638 926.145 491.275 917.338C491.065 916.185 490.96 915.032 490.75 913.878C490.541 912.62 490.331 911.467 490.017 910.104C489.597 907.483 488.968 904.757 488.339 901.821C486.976 896.054 485.194 889.763 482.992 883.368C480.686 876.972 478.17 870.891 475.654 865.544C474.396 862.923 473.138 860.301 471.879 857.995C471.25 856.842 470.726 855.688 470.097 854.64C469.468 853.591 468.944 852.543 468.315 851.599C463.807 843.84 460.767 839.122 461.291 838.598C461.815 838.179 465.904 842.163 471.355 849.607C471.984 850.551 472.718 851.494 473.452 852.543C474.186 853.591 474.815 854.745 475.549 855.898C477.017 858.204 478.379 860.721 479.847 863.447C482.678 868.899 485.404 874.98 487.71 881.69C490.017 888.4 491.694 894.901 492.847 900.877C493.371 903.918 493.896 906.749 494.105 909.475C494.21 910.838 494.42 912.096 494.525 913.354C494.63 914.612 494.63 915.766 494.734 916.919C495.363 926.145 494.525 931.807 493.896 931.807ZM699.59 712.152C699.799 712.362 697.178 715.403 691.936 720.645C686.59 725.678 678.727 732.912 668.138 740.671C657.549 748.534 644.444 757.027 629.243 765.415C614.041 773.803 596.743 781.981 578.396 789.739C559.944 797.498 542.226 804.313 525.976 810.289C509.726 816.266 495.049 821.403 482.573 825.492C470.202 829.581 460.033 832.727 453.008 834.719C445.984 836.711 442 837.655 441.896 837.34C441.791 837.025 445.565 835.453 452.379 832.832C459.194 830.21 469.154 826.646 481.42 822.137C493.686 817.629 508.259 812.177 524.299 805.991C540.339 799.805 558.057 792.885 576.404 785.126C594.751 777.367 611.839 769.399 627.041 761.326C642.243 753.252 655.348 745.179 666.146 737.735C676.84 730.396 685.017 723.686 690.678 719.177C696.13 714.459 699.38 711.943 699.59 712.152ZM172.984 673.254C173.088 674.722 164.072 676.714 153.169 679.964C142.266 683.11 133.564 686.465 132.935 685.102C132.621 684.473 134.403 682.795 137.758 680.908C141.112 678.916 146.04 676.714 151.701 675.036C157.363 673.359 162.709 672.52 166.588 672.31C170.467 672.206 172.879 672.52 172.984 673.254ZM334.645 293.812C334.436 294.441 331.395 294.336 326.782 292.554C324.476 291.715 321.855 290.352 319.129 288.465C316.403 286.682 313.677 284.271 311.056 281.44C307.387 277.456 304.766 273.052 303.089 269.173C301.411 265.294 300.782 261.834 300.573 259.632L301.831 260.261C301.831 260.261 301.936 260.366 301.831 260.366C301.831 260.366 301.726 260.366 301.621 260.471C301.516 260.576 301.411 260.68 301.411 260.89C301.306 260.995 301.306 261.205 301.306 261.309C301.306 261.414 301.306 261.519 301.306 261.624C301.202 261.729 301.202 261.729 300.992 261.729C300.782 261.729 300.573 261.519 300.363 261.309C300.153 260.995 300.048 260.576 300.048 260.051C300.048 259.737 300.153 259.527 300.363 259.212C300.573 258.898 300.887 258.583 301.306 258.479L302.04 258.269L302.564 259.317C303.613 261.205 304.766 264.14 306.758 267.495C308.75 270.851 311.371 274.625 314.621 278.295C319.234 283.432 324.266 287.102 328.145 289.513C332.234 291.715 334.855 293.078 334.645 293.812ZM345.863 294.441C344.71 293.498 349.637 286.053 354.25 276.303C358.968 266.552 361.589 258.059 363.057 258.374C363.686 258.479 363.895 260.89 363.371 264.56C362.847 268.229 361.379 273.262 358.863 278.504C356.347 283.642 353.411 287.941 350.895 290.771C348.379 293.498 346.387 294.861 345.863 294.441ZM429 174.286C428.371 174.077 431.412 166.737 433.718 154.051C434.871 147.655 435.815 139.896 435.71 131.089C435.71 122.282 434.557 112.531 431.936 102.361L428.895 90.4085L436.339 100.369C442.42 108.442 447.033 118.612 448.815 129.621L449.025 130.984L443.887 131.089C444.517 124.169 444.412 117.354 443.678 110.749C443.468 109.071 443.258 107.499 443.049 105.926C442.734 104.353 442.42 102.78 442.105 101.208C441.791 99.6351 441.371 98.1672 440.952 96.6993C440.533 95.2315 440.218 93.7636 439.589 92.2958C439.065 90.8279 438.646 89.4649 438.121 88.1019C437.597 86.7389 436.968 85.3758 436.444 84.1177C436.129 83.4886 435.92 82.7547 435.605 82.1256C435.291 81.4965 434.976 80.8674 434.662 80.2383C434.033 78.9802 433.404 77.722 432.879 76.5687C432.25 75.4154 431.516 74.262 430.887 73.1087C430.258 71.9554 429.629 70.8021 428.895 69.8584C428.162 68.81 427.533 67.7615 426.799 66.8179C426.484 66.2936 426.17 65.7694 425.75 65.35C425.436 64.9306 425.016 64.4064 424.702 63.987C423.339 62.2046 421.976 60.4222 420.613 58.8495C419.25 57.2768 417.992 55.7041 416.734 54.4459C415.476 53.1878 414.323 51.9296 413.17 50.7763C412.016 49.7278 410.968 48.7842 410.024 47.8405C409.5 47.4211 409.081 47.0018 408.662 46.5824C408.242 46.2678 407.823 45.8485 407.403 45.5339C406.67 44.9048 405.936 44.3806 405.516 43.8564C404.468 42.9127 403.944 42.3885 404.049 42.1788C404.154 42.0739 404.783 42.2837 406.041 42.9127C406.67 43.2273 407.404 43.6466 408.242 44.1709C408.662 44.4854 409.186 44.6951 409.605 45.0097C410.129 45.3242 410.549 45.7436 411.178 46.0581C412.226 46.8969 413.484 47.7357 414.742 48.6793C416 49.7278 417.258 50.8811 418.726 52.1393C420.194 53.2926 421.557 54.8653 423.025 56.3332C424.597 57.801 425.96 59.5834 427.533 61.4707C427.952 61.8901 428.266 62.4143 428.686 62.8337C429.105 63.3579 429.42 63.7773 429.839 64.3016C430.573 65.35 431.307 66.2937 432.146 67.447C432.984 68.4954 433.613 69.6488 434.347 70.8021C435.081 71.9554 435.815 73.1087 436.549 74.3669C437.178 75.6251 437.912 76.8832 438.541 78.1414C438.855 78.7705 439.275 79.3996 439.589 80.1335C439.904 80.7626 440.218 81.4965 440.533 82.1256C441.162 83.4886 441.791 84.8516 442.42 86.3195C442.944 87.7873 443.468 89.2552 444.097 90.7231C444.726 92.1909 445.146 93.7636 445.565 95.3363C445.984 96.909 446.508 98.4817 446.823 100.054C447.137 101.732 447.557 103.305 447.976 104.982C448.186 106.66 448.5 108.337 448.71 110.12C449.549 117.04 449.758 124.274 449.025 131.613L447.137 151.115L443.992 131.718L443.783 130.46C442.105 120.29 437.912 110.854 432.355 103.2L436.654 101.103C439.275 111.797 440.113 121.968 439.799 131.089C439.589 140.211 438.226 148.179 436.549 154.68C434.871 161.18 433.089 166.108 431.621 169.463C430.258 172.714 429.21 174.391 429 174.286Z" fill="black" stroke="black" stroke-width="1.5" stroke-miterlimit="10"/>
<path d="M541.597 794.877C541.178 795.401 537.089 793.304 531.428 788.481C530.694 787.852 529.96 787.223 529.226 786.594C528.493 785.86 527.759 785.126 526.92 784.392C525.347 782.819 523.775 781.037 522.202 779.254C519.057 775.48 515.912 771.076 513.081 766.044C510.251 761.116 508.049 756.083 506.372 751.47C505.638 749.163 504.799 746.961 504.38 744.76C504.065 743.711 503.855 742.663 503.646 741.719C503.436 740.671 503.226 739.727 503.122 738.888C501.863 731.549 502.073 726.936 502.702 726.831C503.436 726.726 504.484 731.129 506.581 737.945C506.896 738.783 507.105 739.727 507.42 740.671C507.734 741.614 508.049 742.558 508.468 743.501C509.097 745.494 510.041 747.591 510.88 749.792C512.767 754.091 514.968 758.809 517.589 763.527C520.315 768.245 523.146 772.544 525.976 776.319C527.444 778.206 528.807 779.988 530.17 781.561C530.799 782.4 531.428 783.134 532.162 783.868C532.791 784.602 533.42 785.336 534.049 785.965C538.872 791.207 542.122 794.248 541.597 794.877ZM546.42 782.61C545.896 783.029 542.856 780.932 538.872 776.528C536.88 774.327 534.573 771.601 532.267 768.35C530.065 765.1 527.759 761.43 525.662 757.341C523.565 753.252 521.993 749.268 520.63 745.494C519.372 741.719 518.428 738.259 517.904 735.428C516.751 729.557 516.855 725.887 517.484 725.677C518.952 725.363 522.202 739.412 530.17 755.035C538.033 770.657 547.468 781.561 546.42 782.61ZM166.379 726.621C166.903 726.936 165.33 731.444 161.032 737.84C160.508 738.679 159.879 739.412 159.355 740.356C158.726 741.195 158.096 742.034 157.363 742.977C156 744.76 154.322 746.542 152.645 748.429C149.08 752.099 144.992 755.873 140.274 759.438C135.556 762.898 130.629 765.729 126.121 767.931C123.814 768.979 121.613 770.028 119.516 770.762C118.467 771.181 117.419 771.601 116.475 771.915C115.427 772.23 114.483 772.544 113.645 772.754C106.306 774.851 101.483 775.061 101.379 774.431C101.169 773.698 105.677 772.23 112.492 769.294C113.33 768.875 114.274 768.56 115.112 768.141C116.056 767.721 117 767.197 117.943 766.778C119.935 765.834 121.927 764.785 124.129 763.632C128.322 761.221 132.935 758.495 137.443 755.14C141.951 751.784 145.935 748.324 149.5 744.969C151.177 743.292 152.855 741.614 154.322 740.042C155.056 739.203 155.79 738.469 156.419 737.735C157.048 737.001 157.677 736.267 158.306 735.533C162.919 730.081 165.645 726.307 166.379 726.621Z" fill="black" stroke="black" stroke-width="1.5" stroke-miterlimit="10"/>
<path d="M138.491 721.588C138.911 721.903 137.338 724.839 134.298 729.242C131.362 733.751 126.959 739.727 121.193 745.703C118.257 748.639 115.322 751.26 112.386 753.462C110.919 754.51 109.556 755.559 108.088 756.293C107.354 756.712 106.725 757.132 106.096 757.446C105.467 757.761 104.838 758.075 104.209 758.39C99.2815 760.801 95.9267 761.43 95.8219 761.011C95.6122 760.487 98.6525 759.124 103.056 756.293C103.58 755.978 104.209 755.559 104.733 755.14C105.362 754.72 105.886 754.301 106.515 753.881C107.773 753.043 109.032 751.994 110.394 750.946C113.015 748.744 115.846 746.123 118.677 743.292C124.233 737.525 128.846 731.863 132.306 727.774C135.87 723.79 138.177 721.274 138.491 721.588Z" fill="black" stroke="black" stroke-miterlimit="10"/>
<path d="M187.556 399.498C187.137 400.127 183.887 398.659 178.645 396.772C176.024 395.828 172.774 394.885 169.314 394.046C165.75 393.207 161.766 392.578 157.572 392.263C151.282 391.739 145.411 392.054 140.588 392.788C135.766 393.417 131.991 394.465 129.475 394.885L128.846 392.997C130.524 392.893 131.572 392.997 131.677 393.312C131.782 393.627 130.943 394.256 129.371 394.99L128.741 393.102C130.943 391.844 134.717 389.957 139.75 388.699C144.782 387.441 151.177 386.707 157.887 387.231C162.395 387.545 166.693 388.384 170.467 389.538C174.242 390.796 177.492 392.054 180.113 393.522C185.25 396.248 187.871 398.869 187.556 399.498ZM177.072 374.544C176.758 376.012 167.846 375.173 157.048 375.593C146.25 375.907 137.443 377.165 137.024 375.802C136.814 375.173 138.911 373.915 142.475 372.762C146.04 371.609 151.177 370.665 156.943 370.455C162.709 370.246 167.846 370.98 171.516 371.923C175.185 372.762 177.282 373.81 177.072 374.544ZM506.162 399.708C505.742 400.337 502.912 399.288 498.299 397.716C497.146 397.296 495.888 396.982 494.525 396.562C493.162 396.143 491.694 395.828 490.226 395.409C487.186 394.675 483.726 394.046 480.162 393.626C476.597 393.207 473.138 393.102 469.992 393.102C468.42 393.102 466.952 393.102 465.484 393.312C464.121 393.417 462.758 393.522 461.605 393.626C456.783 394.046 453.742 394.57 453.533 393.836C453.323 393.207 456.049 391.53 460.976 390.062C462.234 389.747 463.597 389.328 465.065 389.118C466.533 388.804 468.105 388.594 469.783 388.489C473.137 388.174 476.912 388.174 480.791 388.594C484.67 389.013 488.339 389.852 491.589 390.901C493.162 391.425 494.734 391.949 496.097 392.578C497.46 393.102 498.718 393.836 499.871 394.36C504.275 396.877 506.476 399.079 506.162 399.708ZM491.484 374.125C491.17 375.488 483.936 375.278 475.025 374.754C466.113 374.125 458.879 373.391 458.775 372.028C458.67 370.665 466.113 369.092 475.339 369.721C484.67 370.246 491.799 372.762 491.484 374.125ZM334.016 19.7414C333.806 20.4754 329.508 19.9511 322.694 19.8463C321.855 19.8463 320.911 19.8463 319.968 19.8463C319.024 19.8463 318.081 19.9511 317.032 19.9511C315.04 19.9511 312.944 20.2657 310.637 20.4754C306.129 20.9996 301.306 21.9432 296.274 23.3062C291.347 24.7741 286.734 26.5565 282.645 28.4437C280.653 29.4922 278.661 30.331 276.984 31.3795C276.145 31.9037 275.202 32.3231 274.468 32.8473C273.629 33.3716 272.895 33.791 272.161 34.3152C266.395 37.9848 263.04 40.7109 262.411 40.1866C262.201 39.9769 262.726 38.9285 263.984 37.3558C264.298 36.9364 264.613 36.517 265.032 36.0976C265.451 35.6782 265.871 35.154 266.395 34.6298C267.443 33.6861 268.597 32.428 269.96 31.3795C270.693 30.8552 271.427 30.2262 272.161 29.5971C272.895 28.968 273.839 28.4438 274.677 27.8147C276.355 26.5565 278.347 25.508 280.443 24.2499C284.637 22.0481 289.564 19.9511 294.806 18.3784C300.153 16.9106 305.395 16.0718 310.113 15.7573C312.524 15.6524 314.726 15.5476 316.927 15.7573C317.976 15.8621 319.024 15.8621 319.968 15.9669C320.911 16.0718 321.855 16.1766 322.798 16.2815C324.581 16.4912 326.153 16.9106 327.516 17.2251C328.25 17.4348 328.879 17.5397 329.403 17.7493C330.032 17.959 330.557 18.1687 330.976 18.2736C333.073 18.9027 334.121 19.4269 334.016 19.7414ZM342.089 24.0402C340.831 24.6693 337.057 19.8463 331.5 14.9185C326.048 9.99064 320.806 6.74039 321.331 5.37738C321.645 4.74829 323.323 4.7483 325.944 5.69192C328.46 6.5307 331.815 8.41793 334.96 11.144C338 13.9748 340.202 17.0154 341.355 19.5317C342.508 21.9432 342.718 23.7256 342.089 24.0402ZM353.097 17.2251C352.468 17.5397 351.105 16.2815 349.008 14.3942C348.484 13.9748 347.96 13.4506 347.226 12.9264C346.597 12.4021 345.863 11.8779 345.129 11.3537C343.661 10.3052 341.984 9.25672 340.097 8.20825C338.21 7.26462 336.428 6.5307 334.645 5.90161C333.807 5.58707 332.968 5.37738 332.129 5.16769C331.29 4.95799 330.557 4.7483 329.927 4.64345C327.202 4.01437 325.315 3.69982 325.21 2.96589C325.105 2.3368 326.887 1.28833 330.137 1.07864C330.976 0.973788 331.815 0.973788 332.758 1.07864C333.702 1.07864 334.75 1.28834 335.798 1.49803C337.895 1.91742 340.202 2.65135 342.403 3.80467C344.605 4.95799 346.492 6.42586 348.065 7.89372C348.798 8.62765 349.532 9.36155 350.161 10.0955C350.79 10.8294 351.21 11.5634 351.629 12.2973C353.411 14.9185 353.621 16.9106 353.097 17.2251ZM370.605 25.0887C370.186 24.879 370.186 22.8869 371.863 19.8463C372.702 18.3784 373.855 16.596 375.532 14.9185C375.952 14.4991 376.371 14.0797 376.895 13.6603C377 13.5555 377.21 13.3457 377.42 13.2409C377.734 13.0312 377.944 12.8215 378.258 12.6118C378.468 12.507 378.573 12.4021 378.782 12.4021C378.887 12.4021 378.992 12.2973 378.992 12.2973H379.097L378.887 12.1924C378.363 11.9827 377.944 11.8779 377.42 11.8779C377.21 11.8779 377 11.8779 376.686 11.8779H376.371C376.161 11.8779 376.161 11.8779 375.532 11.8779C373.75 11.9827 371.968 12.1924 370.29 12.2973C366.936 12.6118 364.21 13.0312 362.113 13.9748C360.016 14.9185 358.549 16.0718 357.71 17.1203C356.766 18.0639 356.347 18.7978 356.032 18.693C355.718 18.5881 355.508 17.6445 356.032 16.0718C356.557 14.4991 357.919 12.4021 360.436 10.7246C362.952 9.04702 366.307 8.10339 369.766 7.57916C371.549 7.26462 373.331 7.05492 375.218 6.84523C375.637 6.84523 376.476 6.74039 377.21 6.74039C378.049 6.74039 378.887 6.63555 379.726 6.74039C381.403 6.74039 382.871 7.05494 384.234 7.36948C385.597 7.68402 386.645 8.10339 387.589 8.62763C388.532 9.15187 389.581 9.57125 390.629 10.2003L391.468 10.6197C391.678 10.7246 391.573 10.7246 391.573 10.7246V10.8294C391.573 10.9343 391.468 10.9343 391.573 11.144C391.678 11.3537 391.573 11.3537 391.887 11.6682L392.202 12.0876L392.411 12.2973C392.516 12.4021 392.621 12.507 392.726 12.6118C391.468 12.9264 390.315 13.2409 389.161 13.4506C388.218 13.6603 387.17 13.9749 386.226 14.1846C385.807 14.2894 385.282 14.3942 384.863 14.4991L384.549 14.6039C384.444 14.6039 384.444 14.7088 384.339 14.7088L383.92 14.9185C383.395 15.1282 382.766 15.4427 382.242 15.6524C381.718 15.8621 381.299 16.1766 380.879 16.3863L380.25 16.8057L379.936 17.0154L379.726 17.2251C379.307 17.5397 378.887 17.7493 378.468 18.0639C376.895 19.2172 375.532 20.4754 374.589 21.6287C372.178 23.7256 371.234 25.2983 370.605 25.0887Z" fill="black" stroke="black" stroke-width="1.5" stroke-miterlimit="10"/>
<path d="M418.831 47.0017C418.307 47.526 415.686 45.6387 411.492 42.703C407.299 39.7673 401.532 35.8879 394.718 32.3231C391.258 30.5407 388.008 28.968 384.863 27.7099C383.29 27.0808 381.823 26.4517 380.46 25.9274C379.202 25.4032 377.944 25.0887 376.79 24.879C374.484 24.4596 372.807 24.7741 371.758 25.2984C370.71 25.8226 370.186 26.4517 369.766 26.3468C369.452 26.242 369.347 25.1935 370.395 23.7256C371.024 23.0966 371.863 22.3627 373.016 21.9433C374.169 21.5239 375.532 21.3142 377 21.2093C378.468 21.2093 380.04 21.3142 381.718 21.7336C383.29 22.1529 384.863 22.5724 386.54 23.0966C389.895 24.2499 393.46 25.7178 397.129 27.605C404.363 31.3795 410.234 35.9928 413.903 39.7673C417.573 43.7515 419.355 46.5824 418.831 47.0017Z" fill="black" stroke="black" stroke-width="1.5" stroke-miterlimit="10"/>
<path d="M226.347 785.021C226.661 785.44 223.516 788.062 219.427 792.989C217.435 795.506 215.129 798.651 213.137 802.321C212.088 804.208 211.145 806.2 210.306 808.297C209.887 809.345 209.467 810.499 209.153 811.652C208.943 812.281 208.734 812.805 208.524 813.435L208.209 814.378C208.105 814.693 208 814.902 207.79 815.531C207.476 816.37 207.056 817.209 206.637 817.943C206.217 818.677 205.798 819.306 205.274 819.83C204.33 820.879 203.492 821.613 202.338 822.556C202.234 822.451 202.129 822.242 202.129 822.137L201.919 821.613C201.814 821.298 201.709 820.984 201.5 820.774C201.29 820.25 201.08 819.725 200.976 819.096C200.871 818.467 200.766 817.628 200.766 816.79C200.766 816.265 200.766 815.846 200.766 815.427C200.766 815.217 200.766 815.007 200.766 814.798C200.766 814.693 200.766 814.588 200.766 814.483V814.378C200.556 813.644 200.346 813.225 200.032 813.12C199.717 812.91 199.193 812.91 198.564 813.225C197.935 813.435 197.201 813.959 196.467 814.378C195.838 814.798 195.105 815.322 194.58 815.741C193.427 816.685 192.379 817.733 191.54 818.677C189.863 820.669 188.709 822.451 187.975 823.71C187.242 824.968 186.822 825.702 186.613 825.702C186.403 825.597 186.403 824.758 186.822 823.29C187.242 821.822 188.08 819.62 189.653 817.314C190.492 816.161 191.435 814.902 192.693 813.749C193.322 813.12 193.951 812.596 194.685 812.072C195.419 811.547 196.153 810.918 197.201 810.499C197.725 810.289 198.25 810.079 198.984 809.975C199.613 809.87 200.451 809.975 201.185 810.289C201.919 810.604 202.548 811.128 202.967 811.757C203.387 812.386 203.597 813.015 203.806 813.644L203.911 814.064C203.911 814.168 203.911 814.169 203.911 814.273V814.693C203.911 814.902 203.911 815.217 204.121 815.322C204.54 815.007 204.75 814.483 204.959 814.064L205.169 813.435L205.484 812.596C205.693 811.967 205.903 811.442 206.113 810.813C206.532 809.66 206.951 808.402 207.476 807.353C208.419 805.047 209.467 802.95 210.621 801.063C212.927 797.183 215.443 794.038 217.855 791.626C220.266 789.215 222.363 787.537 223.935 786.489C225.193 785.231 226.137 784.811 226.347 785.021ZM186.088 836.501C186.403 836.501 186.717 837.759 187.137 840.171C187.346 841.324 187.556 842.792 187.766 844.469C187.871 845.308 187.976 846.147 188.08 847.09C188.185 847.51 188.185 848.034 188.29 848.558C188.395 849.187 188.395 850.131 187.975 850.865C187.556 851.599 186.822 852.123 185.984 852.438C185.04 852.752 184.621 852.752 183.992 852.752C182.838 852.857 181.58 852.962 180.322 852.962C179.064 852.962 177.806 852.962 176.443 852.857C176.024 852.857 175.814 852.857 175.5 852.857C175.605 853.172 175.814 853.381 175.919 853.801C176.758 855.478 177.701 857.051 178.54 858.624L178.959 859.253L179.588 860.301C180.008 860.93 180.427 861.664 180.846 862.293C181.685 863.552 182.524 864.915 183.363 866.173C179.064 865.544 175.08 864.915 171.411 864.285C168.895 863.866 166.693 863.552 164.806 863.237C161.137 862.608 158.935 862.084 158.935 861.769C158.935 861.455 161.242 861.245 165.016 861.245C166.903 861.245 169.209 861.35 171.725 861.559C172.879 861.664 174.242 861.769 175.5 861.874C175.919 861.874 176.338 861.979 176.758 861.874C176.653 861.664 176.443 861.455 176.338 861.245L176.129 860.93L176.024 860.825L175.709 860.301C174.766 858.729 173.822 857.051 172.879 855.269C171.83 853.172 170.782 850.97 169.838 848.873C172.145 849.083 174.556 849.397 176.653 849.607C177.911 849.712 179.064 849.817 180.217 849.817C181.371 849.817 182.524 849.817 183.572 849.817C184.096 849.817 184.725 849.712 184.83 849.712C185.04 849.712 185.25 849.607 185.354 849.397C185.459 849.188 185.459 849.083 185.459 848.768C185.459 848.244 185.459 847.825 185.459 847.3C185.459 846.357 185.459 845.518 185.459 844.679C185.459 843.002 185.459 841.534 185.459 840.38C185.669 837.864 185.879 836.501 186.088 836.501ZM445.984 838.178C445.775 838.493 444.412 837.549 441.791 836.606C440.533 836.186 438.855 835.767 437.073 835.557C436.129 835.452 435.186 835.452 434.137 835.557C433.928 835.557 433.613 835.557 433.404 835.662L432.879 835.767C432.67 835.767 432.355 835.872 432.145 835.872C431.202 836.082 430.153 836.291 429.105 836.501C429.105 835.557 429.105 834.299 429.21 833.251C429.21 832.726 429.21 832.202 429.21 831.678C429.21 831.363 429.21 830.944 429.21 830.63C429.21 829.267 429.21 827.799 429.21 826.226C429.105 823.29 429 820.145 428.686 816.895C428.266 812.281 427.428 807.878 426.274 804.103C425.121 800.224 423.758 796.974 422.395 794.248C421.662 792.885 421.033 791.731 420.403 790.683C420.089 790.158 419.774 789.634 419.46 789.215C419.145 788.795 418.936 788.376 418.726 788.062C418.516 787.852 418.307 787.642 418.097 787.537C417.887 787.537 417.678 787.642 417.573 787.852C417.363 788.166 417.678 788.271 417.678 788.271C417.783 788.062 417.258 787.852 417.468 787.223C417.573 787.013 417.783 786.699 418.202 786.594C418.621 786.489 419.145 786.699 419.565 787.118C419.984 787.432 420.299 787.852 420.718 788.166C421.137 788.586 421.452 789.005 421.871 789.529C422.71 790.473 423.549 791.626 424.387 792.989C426.17 795.715 427.847 799.07 429.21 803.16C430.573 807.144 431.516 811.757 432.041 816.58C432.355 819.935 432.46 823.185 432.46 826.226C432.46 827.799 432.355 829.267 432.355 830.63C432.355 830.944 432.355 831.259 432.355 831.678V832.202V832.622C432.355 832.727 432.25 832.936 432.355 832.936C432.565 832.936 432.774 832.936 432.984 832.936C433.089 832.936 433.089 832.936 433.194 832.936H433.299H433.508C433.823 832.936 434.137 832.936 434.452 832.936C435.605 832.936 436.758 833.041 437.807 833.251C439.904 833.67 441.581 834.404 442.944 835.138C445.145 836.501 446.194 837.969 445.984 838.178ZM465.694 841.009C464.96 841.639 461.395 838.808 456.154 837.549C450.912 836.186 446.404 836.92 446.089 835.977C445.984 835.557 447.033 834.719 449.025 834.194C449.968 833.88 451.226 833.775 452.589 833.67C453.952 833.67 455.42 833.775 456.992 834.194C458.565 834.614 459.928 835.138 461.081 835.872C462.234 836.501 463.283 837.235 464.016 837.969C465.484 839.542 466.008 840.695 465.694 841.009ZM471.879 894.377C471.879 894.586 470.726 894.901 468.42 895.111C467.266 895.215 465.799 895.215 464.226 894.796C462.549 894.377 460.662 893.538 459.194 891.651C458.46 890.707 457.831 889.554 457.621 888.191C457.412 886.828 457.726 885.36 458.355 884.206C459.508 881.795 461.5 880.013 462.129 878.02C462.444 876.972 462.549 875.923 462.234 875.399C461.92 874.77 461.186 874.456 460.033 874.246C459.508 874.141 458.775 874.141 458.146 874.246C457.412 874.246 456.678 874.351 455.944 874.351C454.162 874.456 452.275 874.561 450.492 874.561C448.92 874.665 447.347 874.665 445.879 874.77C447.242 872.254 448.605 869.842 449.968 867.431C450.807 865.963 451.645 864.495 452.484 863.027C453.323 861.559 454.057 860.196 454.896 858.833C455.315 858.204 455.629 857.47 456.049 856.841C456.258 856.527 456.468 856.212 456.573 855.898C456.678 855.583 456.678 855.583 456.783 855.478C456.783 855.373 456.783 855.164 456.678 855.059C456.678 854.954 456.468 854.744 456.258 854.64C455.839 854.325 455.315 854.01 454.686 853.801C453.428 853.381 452.17 853.172 451.016 853.067C448.605 852.962 446.404 853.277 444.621 853.591C441.057 854.325 438.855 854.849 438.75 854.535C438.645 854.22 440.533 853.172 444.097 851.913C445.879 851.284 448.186 850.655 451.016 850.655C452.379 850.655 453.952 850.76 455.525 851.18C456.363 851.389 457.202 851.704 458.041 852.333C458.46 852.647 458.879 853.067 459.194 853.591C459.508 854.115 459.718 854.744 459.718 855.478C459.718 856.107 459.508 856.736 459.299 857.156C459.089 857.575 458.879 857.89 458.775 858.204C458.46 858.833 458.041 859.567 457.726 860.196C456.992 861.559 456.258 863.027 455.42 864.495C454.266 866.592 453.113 868.689 451.96 870.996C452.17 870.996 452.379 870.996 452.589 870.996C453.742 870.996 454.895 870.891 456.049 870.891C456.783 870.891 457.516 870.786 458.25 870.786C458.984 870.786 459.823 870.786 460.662 870.891C461.5 870.996 462.444 871.205 463.283 871.73C464.121 872.254 464.96 872.988 465.379 873.931C465.799 874.875 465.904 875.819 465.904 876.762C465.904 877.601 465.694 878.44 465.379 879.174C464.855 880.642 463.912 881.9 463.178 882.843C462.444 883.787 461.71 884.731 461.291 885.57C460.871 886.408 460.557 887.247 460.662 888.086C460.662 888.925 461.081 889.659 461.5 890.392C462.444 891.755 463.807 892.699 465.17 893.118C466.533 893.643 467.791 893.748 468.944 893.957C470.621 894.062 471.879 894.167 471.879 894.377Z" fill="black" stroke="black" stroke-miterlimit="10"/>
</svg>
