<svg width="401" height="372" viewBox="0 0 401 372" fill="none" xmlns="http://www.w3.org/2000/svg">
<path d="M189.105 24.5518C189.105 24.5518 103.886 32.8529 119.866 96.7714C135.846 160.69 153.485 203.29 153.485 203.29H256.212C256.212 203.29 386.18 32.2303 189.105 24.5518Z" fill="#F1534D"/>
<path opacity="0.08" d="M254.796 69.6616C254.796 69.6616 231.723 103.149 239.704 130.845L217.838 179.897L166.522 217.629L256.211 203.291C256.211 203.291 285.982 161.785 290.019 140.768C294.057 119.751 254.796 69.6616 254.796 69.6616Z" fill="black"/>
<path opacity="0.64" d="M200.028 371.198C310.485 371.198 400.028 359.947 400.028 346.069C400.028 332.19 310.485 320.939 200.028 320.939C89.5711 320.939 0.0280762 332.19 0.0280762 346.069C0.0280762 359.947 89.5711 371.198 200.028 371.198Z" fill="#68CCE9"/>
<path d="M273.625 230.533H139.43V344.484H273.625V230.533Z" fill="#E6E6E6"/>
<path opacity="0.14" d="M195.5 235.533L183.615 321.015L204.631 324.996L200.028 344.485H273.606V258.21L268.38 241.532L195.5 235.533Z" fill="black"/>
<path d="M245.948 267.699L225.799 337.372L217.838 333.051L225.026 256.323L245.948 267.699Z" fill="#FFC897"/>
<path d="M225.724 337.372C225.724 337.372 227.101 345.39 232.893 348.183C238.685 350.975 235.176 359.502 226.535 353.654C223.847 351.881 221.322 349.873 218.988 347.654C216.768 345.701 214.075 344.361 211.178 343.768C210.631 343.611 210.144 343.293 209.781 342.856C209.417 342.418 209.194 341.882 209.14 341.315C208.216 336.882 218.347 333.335 218.347 333.335L225.724 337.372Z" fill="#442C2A"/>
<path d="M208.009 183.179C208.009 183.179 242.76 180.877 254.287 188.839C265.814 196.8 254.287 317.129 254.287 317.129L200.821 313.695C200.821 313.695 213.461 226.137 192.708 211.252C171.955 196.367 208.009 183.179 208.009 183.179Z" fill="#2A3749"/>
<path d="M188.426 30.5707C188.426 30.5707 177.728 47.3993 188.218 53.4176C198.708 59.4359 202.047 52.5686 202.047 52.5686C202.047 52.5686 209.857 61.7753 216.838 54.6439C223.818 47.5125 222.837 33.2874 215.725 26.722C208.612 20.1566 188.426 30.5707 188.426 30.5707Z" fill="white"/>
<path d="M190.859 31.1178C191.348 34.2417 191.657 37.3913 191.784 40.5508C191.934 44.8523 193.312 51.2479 200.085 52.4931C210.555 54.3797 213.291 37.8907 213.291 37.8907C213.291 37.8907 219.875 22.3827 208.537 20.2509C198.406 18.251 188.784 16.8738 190.859 31.1178Z" fill="#FFC897"/>
<path d="M212.687 38.4758C212.687 38.4758 213.291 33.4574 217.668 33.665C222.045 33.8725 220.328 43.2678 212.687 38.4758Z" fill="#FFC897"/>
<path d="M193.387 35.6836C193.387 35.6836 194.915 30.8539 190.84 29.2314C186.765 27.6089 184.445 36.8722 193.387 35.6836Z" fill="#FFC897"/>
<path d="M251.25 218.836L304.924 267.643L297.528 272.869L231.818 232.589L251.25 218.836Z" fill="#FFC897"/>
<path d="M304.962 267.642C304.962 267.642 312.753 269.944 317.828 265.963C322.903 261.983 328.922 268.869 319.923 274.076C317.144 275.722 314.228 277.124 311.206 278.264C308.461 279.381 306.06 281.203 304.245 283.547C303.869 283.975 303.37 284.277 302.817 284.412C302.263 284.547 301.682 284.509 301.151 284.301C296.774 283.188 298.057 272.529 298.057 272.529L304.962 267.642Z" fill="#442C2A"/>
<path d="M268.361 43.8335C268.361 43.8335 310.546 62.3223 331.129 128.373C351.712 194.423 317.432 206.309 230.29 190.857L222.837 176.613C222.837 176.613 285.964 178.783 298.302 157.483C310.64 136.183 214.121 121.939 268.361 43.8335Z" fill="#FFC897"/>
<path d="M138.94 43.8335C138.94 43.8335 96.7737 62.3223 76.1718 128.373C55.57 194.423 89.8875 206.271 177.011 190.857L184.558 176.613C184.558 176.613 121.413 178.783 109.093 157.483C96.7737 136.183 193.199 121.939 138.94 43.8335Z" fill="#FFC897"/>
<path d="M189.105 24.5517C189.105 24.5517 189.105 31.6265 191.199 33.6641C191.199 33.6641 204.556 36.3053 209.48 25.0045C209.48 25.0045 208.329 32.6642 213.668 35.7771L217.668 33.6641C219.234 31.7521 220.233 29.4388 220.55 26.9874C220.867 24.536 220.489 22.0449 219.46 19.7975C215.876 12.0812 217.196 8.47778 210.027 5.94971C202.858 3.42165 185.237 8.53438 189.105 24.5517Z" fill="#231A17"/>
<path d="M170.484 177.104L157.409 120.374H247.627L232.968 181.576L231.685 193.688L172.408 190.405L170.484 177.104Z" fill="#B5B5B5"/>
<path d="M203.33 155.088C207.654 155.088 211.159 151.582 211.159 147.258C211.159 142.934 207.654 139.429 203.33 139.429C199.006 139.429 195.5 142.934 195.5 147.258C195.5 151.582 199.006 155.088 203.33 155.088Z" fill="white"/>
<path d="M150.806 205.459C150.806 205.459 153.278 179.499 182.162 176.726C211.046 173.953 281.926 228.627 281.926 228.627L252.759 284.452L150.806 205.459Z" fill="#2A3749"/>
<path d="M150.806 205.46C150.806 205.46 138.506 227.42 157.692 230.533C176.879 233.646 227.497 230.533 227.497 230.533L150.806 205.46Z" fill="#2A3749"/>
</svg>
