<svg width="377" height="401" viewBox="0 0 377 401" fill="none" xmlns="http://www.w3.org/2000/svg">
<path d="M329.029 148.205L332.766 153.603C332.766 153.603 334.531 157.236 338.89 162.738C340.032 164.191 341.382 165.437 342.939 166.371C344.807 167.513 347.403 168.966 349.063 169.381C351.14 169.797 351.555 172.496 349.79 173.326C348.025 174.053 342.42 173.015 337.022 168.862C331.624 164.814 334.115 175.091 335.05 178.931C335.88 182.668 337.956 194.502 337.022 195.748C335.673 197.513 333.493 196.267 332.766 192.53C332.039 188.689 328.925 177.478 326.953 178.101C324.981 178.62 329.548 197.824 329.548 197.824C329.548 197.824 331.209 201.769 328.925 202.495C324.877 203.741 321.451 182.98 321.244 181.008C321.036 179.658 318.856 180.177 319.167 181.63C319.479 183.188 324.15 200.627 320.102 201.976C316.884 203.014 317.195 184.952 314.185 181.838C311.174 178.724 315.43 195.54 312.316 196.371C311.174 196.682 310.24 196.786 309.202 186.717C308.164 176.44 309.825 148.309 309.825 148.309L329.34 148.517" fill="#FFC897"/>
<path d="M131.902 362.148C131.902 362.148 125.363 388.099 130.242 383.428C135.017 378.757 152.663 337.339 152.663 337.339L148.926 333.602L131.902 362.148Z" fill="#0B4870"/>
<path d="M152.56 337.339L135.432 317.408L116.228 351.975L131.902 362.148L152.56 337.339Z" fill="#0B4870"/>
<path d="M289.791 275.886H182.663C177.681 275.886 173.632 271.838 173.632 266.855C173.632 261.873 177.681 257.824 182.663 257.824H289.687C294.669 257.824 298.718 261.873 298.718 266.855C298.822 271.838 294.773 275.886 289.791 275.886Z" fill="#D3D3D3"/>
<path d="M214.042 380.861V389.996H306.221V380.861H214.042Z" fill="#D3D3D3"/>
<path d="M222.525 388.203C223.355 392.978 220.137 397.442 215.362 398.169C210.587 398.999 206.123 395.781 205.397 391.006C204.566 386.231 207.784 381.767 212.559 381.041C217.334 380.21 221.798 383.428 222.525 388.203Z" fill="#D3D3D3"/>
<path d="M264.254 269.969H255.12V384.57H264.254V269.969Z" fill="#D3D3D3"/>
<path d="M314.704 388.203C315.534 392.978 312.316 397.442 307.541 398.169C302.766 398.999 298.303 395.781 297.576 391.006C296.745 386.231 299.963 381.767 304.738 381.041C309.513 380.21 313.977 383.428 314.704 388.203Z" fill="#D3D3D3"/>
<path d="M317.818 275.885H216.712C209.86 275.885 204.878 269.138 206.85 262.39L255.12 95.8864C256.365 91.4227 260.414 88.3086 264.981 88.3086H366.088C372.939 88.3086 377.921 95.0559 375.949 101.803L327.68 268.307C326.434 272.875 322.385 275.885 317.818 275.885Z" fill="#D3D3D3"/>
<path d="M303.908 275.885H215.777C208.926 275.885 203.943 269.138 205.916 262.39L254.185 95.8864C255.431 91.4227 259.479 88.3086 264.047 88.3086H352.178C359.029 88.3086 364.011 95.0559 362.039 101.803L313.77 268.307C312.524 272.875 308.475 275.885 303.908 275.885Z" fill="#F2F2F2"/>
<path d="M317.818 275.886H210.691C205.708 275.886 201.66 271.838 201.66 266.855C201.66 261.873 205.708 257.824 210.691 257.824H317.714C322.697 257.824 326.745 261.873 326.745 266.855C326.849 271.838 322.801 275.886 317.818 275.886Z" fill="#D3D3D3"/>
<path d="M229.272 134.502L205.5 197.719L211.106 210.072L243.182 204.467L252.317 136.889L229.272 134.502Z" fill="#FFC897"/>
<path d="M243.701 103.776C243.701 103.776 224.912 113.638 220.76 146.025L245.569 159.624L243.701 103.776Z" fill="#F1534D"/>
<path d="M274.012 91.4239L244.428 103.881L221.071 207.79L299.133 238.516L340.759 119.97C340.759 119.97 334.012 95.2647 294.981 88.9326L274.012 91.4239Z" fill="#F1534D"/>
<path d="M352.904 213.395C352.904 212.045 352.074 203.845 351.658 202.495L338.787 120.178C336.295 108.863 323.631 103.153 313.562 108.759C306.088 112.911 302.766 121.735 305.673 129.728L320.932 200.419L352.904 213.395Z" fill="#FFC897"/>
<path d="M335.361 195.852L248.268 189.104L243.908 204.468L327.783 232.807C340.655 237.166 353.838 226.993 352.904 213.395C352.281 204.052 344.807 196.578 335.361 195.852Z" fill="#FFC897"/>
<path d="M330.067 106.268C330.067 106.268 341.174 111.043 345.949 139.901L306.711 151.942C306.711 151.942 281.071 123.188 308.475 103.984L330.067 106.268Z" fill="#F1534D"/>
<path d="M220.967 205.402C224.185 213.914 240.275 214.33 248.891 211.112C257.403 207.894 266.227 203.015 263.009 194.399C259.791 185.887 245.569 180.8 236.227 182.876C224.912 185.472 217.75 196.786 220.967 205.402Z" fill="#FFC897"/>
<path d="M115.916 367.961L94.5326 376.784L81.0378 377.822C74.8095 378.238 69.6192 382.805 68.3736 388.826L67.7507 391.629L141.037 400.763L142.491 371.283L115.916 367.961Z" fill="#282323"/>
<path d="M142.491 371.282L149.653 339.206L123.183 335.573L115.916 367.961L142.491 371.282Z" fill="#FFC897"/>
<path d="M299.133 238.516C299.133 238.516 297.057 256.266 265.189 258.654H188.58L152.456 359.449L114.463 353.324L152.456 205.298L239.549 214.952L299.133 238.516Z" fill="#151E28"/>
<path d="M54.5674 310.037L31.6264 306.611L19.4812 300.487C13.8757 297.684 7.12836 298.93 2.87234 303.393L0.900024 305.469L59.0311 350.936L75.4323 326.438L54.5674 310.037Z" fill="#282323"/>
<path d="M75.6399 326.542L95.5705 301.214L74.6018 284.501L54.5674 310.037L75.6399 326.542Z" fill="#FFC897"/>
<path d="M221.071 207.79L162.006 190.143C159.515 189.417 157.127 188.482 154.636 187.652C149.549 185.68 136.678 182.981 126.712 198.24C113.944 217.859 62.7681 291.561 62.7681 291.561L94.0135 314.606L162.214 227.721C167.923 219.832 177.058 215.16 186.816 215.16L239.549 215.057L221.071 207.79Z" fill="#151E28"/>
<path d="M297.057 59.0364C298.095 57.0641 316.365 24.4692 299.652 16.2686C299.652 16.2686 297.472 -0.963156 278.268 0.905342C259.064 2.77384 264.254 8.37933 252.005 5.57659C239.756 2.77384 228.234 9.10599 229.168 19.3827C230.102 29.6595 237.888 34.0193 252.005 31.5279C266.123 29.0366 277.334 30.9051 277.334 30.9051L289.168 34.3307L297.057 59.0364Z" fill="black"/>
<path d="M299.341 94.3305L297.887 52.9121L269.237 63.085L271.521 96.3028C272.04 103.984 276.296 110.005 283.977 109.486L286.365 109.382C294.047 108.656 299.86 102.012 299.341 94.3305Z" fill="#FFC897"/>
<path d="M295.396 58.6211C295.396 58.6211 300.794 93.1883 271.313 95.1606L269.964 78.7593L295.396 58.6211Z" fill="#FCD2B1"/>
<path d="M271.105 87.4788H272.144C286.884 86.7521 298.199 74.2955 297.472 59.5551L296.019 29.4516C295.811 25.6108 292.593 22.7042 288.752 22.9118L253.666 24.5727C246.919 24.8841 241.625 30.6972 241.936 37.4446L243.078 62.0465C243.908 76.7868 256.365 88.1016 271.105 87.4788Z" fill="#FFC897"/>
<path d="M290.725 50.5245C290.932 55.5072 295.188 59.348 300.171 59.0365C305.154 58.8289 308.995 54.5729 308.683 49.5903C308.476 44.6076 304.22 40.7668 299.237 41.0782C294.358 41.2858 290.517 45.5419 290.725 50.5245Z" fill="#FFC897"/>
<path d="M286.469 26.441L288.233 59.9702C288.441 62.9805 287.195 66.0947 284.6 67.7556C283.043 68.8975 281.797 70.3507 278.995 69.9355C271.002 68.7937 274.739 62.8767 258.441 63.7072C243.597 64.5376 244.739 72.7383 244.739 72.7383C244.739 72.7383 247.646 88.4129 267.991 89.1395C288.337 89.8662 298.51 76.9943 296.123 59.8664L294.15 24.4688L286.469 26.441Z" fill="black"/>
<path d="M242.974 32.1506C242.974 32.1506 252.421 33.6039 266.227 30.2821C279.929 26.8565 290.829 37.9637 290.829 37.9637C290.829 37.9637 293.735 43.0502 294.462 42.9464C295.188 42.8425 299.341 41.1817 299.341 41.1817L299.133 25.7146L289.064 17.8255L261.14 16.6836L244.635 20.3168L242.974 32.1506Z" fill="black"/>
<path d="M268.407 217.027L206.227 209.034L207.161 201.976L269.341 209.969C271.313 210.176 272.663 211.941 272.351 213.913C272.04 215.886 270.275 217.235 268.407 217.027Z" fill="#B5B5B5"/>
<path d="M214.428 210.073L132.006 199.484C127.231 198.862 123.494 195.228 122.871 190.453L114.256 130.661C113.529 125.367 117.993 120.8 123.287 121.527L198.961 131.284C202.179 131.699 204.67 134.191 205.085 137.305L214.428 210.073Z" fill="#B5B5B5"/>
<path opacity="0.66" d="M161.237 166.142C160.193 166.142 159.347 165.296 159.347 164.253C159.347 164.18 159.352 164.109 159.36 164.038C159.174 164.004 158.984 163.983 158.788 163.983C157.068 163.983 155.674 165.378 155.674 167.098C155.674 168.817 157.068 170.212 158.788 170.212C160.508 170.212 161.902 168.817 161.902 167.098C161.902 166.739 161.839 166.396 161.727 166.076C161.571 166.118 161.407 166.142 161.237 166.142Z" fill="white"/>
</svg>
