<svg width="1155" height="475" viewBox="0 0 1155 475" fill="none" xmlns="http://www.w3.org/2000/svg">
<path d="M577.5 475C896.444 475 1155 456.572 1155 433.839C1155 411.106 896.444 392.678 577.5 392.678C258.556 392.678 0 411.106 0 433.839C0 456.572 258.556 475 577.5 475Z" fill="#E6E6E6"/>
<path d="M1028.67 456.889C934.506 440.069 831.532 442.865 723.516 456.889C772.748 415.179 815.238 373.469 766.006 331.759C862.039 351.641 875.49 349.629 982.319 331.759C957.541 373.469 1003.89 415.179 1028.67 456.889Z" fill="#6C63FF"/>
<path opacity="0.2" d="M1028.67 456.889C934.506 440.069 831.532 442.865 723.516 456.889C772.748 415.179 815.238 373.469 766.006 331.759C862.039 351.641 875.49 349.629 982.319 331.759C957.541 373.469 1003.89 415.179 1028.67 456.889Z" fill="black"/>
<path d="M1005.7 439.094C925.713 425.669 838.24 427.9 746.484 439.094C788.305 405.801 824.399 372.507 782.578 339.213C864.155 355.083 875.581 353.477 966.328 339.213C945.28 372.507 984.655 405.801 1005.7 439.094Z" fill="#6C63FF"/>
<path d="M975.236 385.45C998.775 385.45 1017.86 366.3 1017.86 342.678C1017.86 319.056 998.775 299.906 975.236 299.906C951.697 299.906 932.615 319.056 932.615 342.678C932.615 366.3 951.697 385.45 975.236 385.45Z" fill="#020202"/>
<path d="M781.757 293.067L811.289 298.007L826.055 340.814L783.399 367.158L734.179 293.067H780.117H781.757Z" fill="#C8967B"/>
<path d="M865.43 358.926C903.486 358.926 934.336 327.966 934.336 289.775C934.336 251.584 903.486 220.624 865.43 220.624C827.374 220.624 796.523 251.584 796.523 289.775C796.523 327.966 827.374 358.926 865.43 358.926Z" fill="#C8967B"/>
<path d="M484.805 37.8685C484.805 37.8685 317.461 55.9794 287.93 52.6865C258.399 49.3936 245.274 46.1007 245.274 46.1007C245.274 46.1007 225.586 72.4439 235.43 83.969C240.943 90.6102 247.614 96.1892 255.117 100.433C255.117 100.433 273.164 95.4941 286.289 100.433C299.414 105.373 432.305 126.777 455.274 107.019C478.242 87.2619 484.805 37.8685 484.805 37.8685Z" fill="#2F2E41"/>
<path d="M496.289 405.026C496.289 405.026 386.367 373.743 366.68 235.442V222.27C366.68 222.27 344.931 260.561 337.148 268.371C328.125 277.426 296.133 358.926 297.773 367.158C299.414 375.39 297.773 378.683 297.773 378.683L250.195 373.744V358.926C250.195 358.926 275.625 282.366 277.266 264.255C278.906 246.144 340.43 120.191 340.43 120.191C340.43 120.191 363.398 72.4438 402.773 120.191C442.148 167.938 445.43 200.867 445.43 200.867L496.289 299.653L496.289 405.026Z" fill="#2F2E41"/>
<path d="M250.195 41.1614L197.695 23.0504C197.695 23.0504 148.477 -13.1714 159.961 23.0504C171.445 59.2723 223.945 138.302 238.711 130.069C253.477 121.837 271.235 101.403 267.277 98.4487C263.32 95.4941 237.07 74.0903 250.195 41.1614Z" fill="#2F2E41"/>
<path d="M256.541 349.205L214.161 369.976C214.161 369.976 162.91 377.889 191.492 392.725C220.074 407.562 298.922 423.387 302.864 409.54C306.806 395.693 305.242 372.711 301.096 373.322C296.951 373.933 268.368 376.9 256.541 349.205Z" fill="#2F2E41"/>
<path d="M474.961 296.361C474.961 296.361 453.633 388.562 489.726 408.319C525.82 428.076 778.476 431.369 798.164 395.147C817.851 358.925 808.008 358.925 808.008 358.925L755.508 299.653L798.164 296.361C798.164 296.361 798.164 283.189 783.398 281.543C768.633 279.896 722.695 263.432 683.32 274.957C643.945 286.482 620.976 251.906 620.976 251.906L474.961 296.361Z" fill="#1E1C1A"/>
<path d="M447.071 8.23216L419.179 161.353L611.133 138.302L645.586 0L447.071 8.23216Z" fill="#3F3D56"/>
<path d="M452.813 13.9952L429.844 150.65L604.57 130.07L638.203 5.763L452.813 13.9952Z" fill="white"/>
<path d="M425.742 162.999L419.179 161.353L415.898 167.937L468.399 314.471L473.336 312.577L474.96 302.947L425.742 162.999Z" fill="#B3B3B3"/>
<path d="M419.179 159.705L471.68 312.825L670.195 283.189L611.133 138.302L419.179 159.705Z" fill="#D0CDE1"/>
<path d="M445.43 154.767V162.999L591.445 146.534L589.805 138.302L445.43 154.767Z" fill="#3F3D56"/>
<path d="M448.711 171.231L471.68 235.442L620.976 217.332L594.727 156.413L448.711 171.231Z" fill="#3F3D56"/>
<path d="M635.742 261.785L630.82 248.614C630.82 248.614 593.086 182.756 573.398 195.927C553.711 209.099 614.414 273.31 614.414 273.31H634.102L635.742 261.785Z" fill="#C8967B"/>
<path d="M511.055 271.664L506.133 251.906C506.133 251.906 493.008 190.988 515.976 194.281C538.945 197.574 545.508 255.199 545.508 255.199L543.867 268.371L511.055 271.664Z" fill="#C8967B"/>
<path d="M550.43 263.432C550.43 263.432 507.773 256.846 506.133 266.724C504.492 276.603 496.289 424.783 537.305 429.723C578.32 434.662 781.758 456.066 760.43 405.026C739.102 353.986 706.289 360.572 706.289 360.572L566.836 375.39L550.43 263.432Z" fill="#1E1C1A"/>
<path d="M679.218 282.366L635.742 251.906L607.031 274.134L643.125 313.648L679.218 282.366Z" fill="#1E1C1A"/>
<path opacity="0.2" d="M562.735 312.002L569.296 374.567L682.5 367.981L584.062 366.335L562.735 312.002Z" fill="black"/>
<path d="M899.444 384.662C944.749 384.662 981.475 347.805 981.475 302.34C981.475 256.874 944.749 220.017 899.444 220.017C854.139 220.017 817.413 256.874 817.413 302.34C817.413 347.805 854.139 384.662 899.444 384.662Z" fill="#020202"/>
<path d="M477.422 61.7419L579.141 58.1884L588.985 20.5811L483.985 23.761L477.422 61.7419Z" fill="#FFD447"/>
<path d="M451.173 83.1462L605.391 78.2063L607.031 71.6203L452.813 77.0695L451.173 83.1462Z" fill="#E6E6E6"/>
<path d="M447.891 99.6105L602.11 94.6706L603.75 88.0846L449.531 93.5338L447.891 99.6105Z" fill="#E6E6E6"/>
<path d="M446.25 112.781L600.468 107.843L602.11 101.257L447.891 106.704L446.25 112.781Z" fill="#E6E6E6"/>
</svg>
